<svg width="45" height="43" viewBox="0 0 45 43" fill="none" xmlns="http://www.w3.org/2000/svg">
<path d="M11.25 20.25C9.92037 20.25 8.60375 19.9881 7.37533 19.4793C6.14691 18.9705 5.03074 18.2246 4.09054 17.2845C3.15035 16.3443 2.40455 15.2281 1.89572 13.9997C1.38689 12.7712 1.125 11.4546 1.125 10.125C1.125 8.79537 1.38689 7.47875 1.89572 6.25033C2.40455 5.02191 3.15035 3.90574 4.09054 2.96554C5.03074 2.02535 6.14691 1.27955 7.37533 0.77072C8.60375 0.261891 9.92037 -1.98131e-08 11.25 0C13.9353 4.00143e-08 16.5106 1.06674 18.4095 2.96554C20.3083 4.86435 21.375 7.43968 21.375 10.125C21.375 12.8103 20.3083 15.3856 18.4095 17.2845C16.5106 19.1833 13.9353 20.25 11.25 20.25V20.25ZM34.875 29.25C32.4881 29.25 30.1989 28.3018 28.511 26.614C26.8232 24.9261 25.875 22.6369 25.875 20.25C25.875 17.8631 26.8232 15.5739 28.511 13.886C30.1989 12.1982 32.4881 11.25 34.875 11.25C37.2619 11.25 39.5511 12.1982 41.239 13.886C42.9268 15.5739 43.875 17.8631 43.875 20.25C43.875 22.6369 42.9268 24.9261 41.239 26.614C39.5511 28.3018 37.2619 29.25 34.875 29.25ZM34.875 31.5C37.5603 31.5 40.1356 32.5667 42.0345 34.4655C43.9333 36.3644 45 38.9397 45 41.625V42.75H24.75V41.625C24.75 38.9397 25.8167 36.3644 27.7155 34.4655C29.6144 32.5667 32.1897 31.5 34.875 31.5V31.5ZM11.25 22.5C12.7274 22.5 14.1903 22.791 15.5552 23.3564C16.9201 23.9217 18.1603 24.7504 19.205 25.795C20.2496 26.8397 21.0783 28.0799 21.6436 29.4448C22.209 30.8097 22.5 32.2726 22.5 33.75V42.75H0V33.75C0 30.7663 1.18526 27.9048 3.29505 25.795C5.40483 23.6853 8.26631 22.5 11.25 22.5V22.5Z" fill="url(#paint0_linear_2_12)"/>
<defs>
<linearGradient id="paint0_linear_2_12" x1="0" y1="21.15" x2="45" y2="21.15" gradientUnits="userSpaceOnUse">
<stop stop-color="#20B8F1"/>
<stop offset="1" stop-color="#297AFF"/>
</linearGradient>
</defs>
</svg>
