<svg width="49" height="46" viewBox="0 0 49 46" fill="none" xmlns="http://www.w3.org/2000/svg">
<path d="M0 23.4647L2.52239 45.4031H29.7389L28.2728 23.0548L0 23.4647ZM17.3919 38.9143H13.0817L13.624 34.6325C13.1216 34.4346 12.6929 34.0857 12.397 33.634C12.1011 33.1822 11.9526 32.6498 11.9719 32.1101C11.9719 30.1301 13.3371 28.9572 15.1249 28.9572C15.5345 28.944 15.9424 29.015 16.3235 29.1658C16.7045 29.3167 17.0506 29.5441 17.3402 29.834C17.6298 30.1239 17.8569 30.4702 18.0073 30.8515C18.1578 31.2327 18.2284 31.6407 18.2148 32.0503C18.2069 32.5874 18.0743 33.1153 17.8275 33.5924C17.5808 34.0695 17.2265 34.4828 16.7928 34.7996L17.3919 38.9143Z" fill="url(#paint0_linear_2_6)"/>
<path d="M48.9978 13.52C49.1302 5.38215 43.3224 0.498169 40.0654 0.469792C36.8083 0.441415 12.4358 0 12.4358 0C10.6186 0.437997 8.96986 1.39946 7.69374 2.76525C6.41762 4.13104 5.57019 5.84116 5.25641 7.68382C6.63426 10.4711 8.48506 13.6083 8.48506 13.6083L12.5839 13.1101L9.59176 7.80048L34.4341 7.59553L43.2625 23.0452H32.3721V45.3935H44.3534L45.2331 23.0452H45.0944C46.5605 21.7398 48.7676 18.8895 48.9978 13.52Z" fill="url(#paint1_linear_2_6)"/>
<path d="M34.1676 15.9858H31.3961L29.7376 13.476L22.5078 15.1503L18.3743 12.6846L13.6669 16.3358L6.32042 16.3799L3.67822 20.7373L36.6301 19.9018L34.1676 15.9858Z" fill="url(#paint2_linear_2_6)"/>
<defs>
<linearGradient id="paint0_linear_2_6" x1="0" y1="34.1113" x2="29.7389" y2="34.1113" gradientUnits="userSpaceOnUse">
<stop stop-color="#20B8F1"/>
<stop offset="1" stop-color="#297AFF"/>
</linearGradient>
<linearGradient id="paint1_linear_2_6" x1="5.25641" y1="22.4578" x2="49" y2="22.4578" gradientUnits="userSpaceOnUse">
<stop stop-color="#20B8F1"/>
<stop offset="1" stop-color="#297AFF"/>
</linearGradient>
<linearGradient id="paint2_linear_2_6" x1="3.67822" y1="16.6686" x2="36.6301" y2="16.6686" gradientUnits="userSpaceOnUse">
<stop stop-color="#20B8F1"/>
<stop offset="1" stop-color="#297AFF"/>
</linearGradient>
</defs>
</svg>
