<svg width="49" height="47" viewBox="0 0 49 47" fill="none" xmlns="http://www.w3.org/2000/svg">
<path d="M0 24.3181L2.52239 46.2566H29.7389L28.2728 23.9082L0 24.3181ZM17.3919 39.7677H13.0817L13.624 35.486C13.1216 35.288 12.6929 34.9392 12.397 34.4874C12.1011 34.0357 11.9526 33.5033 11.9719 32.9636C11.9719 30.9835 13.3371 29.8106 15.1249 29.8106C15.5345 29.7974 15.9424 29.8684 16.3235 30.0193C16.7045 30.1701 17.0506 30.3975 17.3402 30.6874C17.6298 30.9774 17.8569 31.3237 18.0073 31.7049C18.1578 32.0861 18.2284 32.4941 18.2148 32.9037C18.2069 33.4408 18.0743 33.9687 17.8275 34.4458C17.5808 34.9229 17.2265 35.3362 16.7928 35.6531L17.3919 39.7677Z" fill="white"/>
<path d="M48.9972 14.3735C49.1296 6.23566 43.3218 1.35168 40.0648 1.32331C36.8078 1.29493 12.4352 0.853516 12.4352 0.853516C10.6181 1.29151 8.96931 2.25297 7.69319 3.61877C6.41707 4.98456 5.56964 6.69467 5.25586 8.53734C6.63371 11.3246 8.48451 14.4618 8.48451 14.4618L12.5834 13.9637L9.59121 8.654L34.4336 8.44904L43.2619 23.8987H32.3715V46.247H44.3529L45.2326 23.8987H45.0938C46.56 22.5933 48.7671 19.743 48.9972 14.3735Z" fill="white"/>
<path d="M34.1671 16.8393H31.3956L29.7372 14.3295L22.5074 16.0037L18.3738 13.5381L13.6664 17.1892L6.31994 17.2334L3.67773 21.5908L36.6296 20.7553L34.1671 16.8393Z" fill="white"/>
</svg>
