<svg width="44" height="46" viewBox="0 0 44 46" fill="none" xmlns="http://www.w3.org/2000/svg">
<path d="M43.1641 6.55015H35.9183C35.9563 4.99274 35.9016 3.43435 35.7544 1.88379C36.8263 1.76365 36.7889 0 35.6374 0H8.35323C7.20176 0 7.16431 1.76365 8.23621 1.88379C8.08423 3.43402 8.0295 4.99271 8.07238 6.55015H0.826564C0.608026 6.55267 0.399197 6.64323 0.245096 6.80234C0.0909957 6.96146 0.00395861 7.17633 0.00274456 7.40071C-0.0446461 10.3148 0.522188 13.205 1.66441 15.8731C3.81756 20.9047 7.95069 23.8217 13.1697 24.5234C14.8612 27.1511 16.9815 29.4597 19.4373 31.3475V31.3475C19.4373 31.3475 21.5155 34.0627 19.4373 37.5949C19.4373 37.5949 18.2109 40.3725 15.2527 40.8819V44.1065C14.0731 44.1065 14.0778 46 15.2527 46H28.7473C29.9362 46 29.9362 44.1209 28.7473 44.1065V40.8819C25.7891 40.3725 24.5627 37.5949 24.5627 37.5949C22.4845 34.0675 24.5627 31.3475 24.5627 31.3475C27.0185 29.4597 29.1388 27.1511 30.8303 24.5234C36.0493 23.8217 40.1918 20.9047 42.3356 15.8731C43.4778 13.205 44.0446 10.3148 43.9973 7.40071C43.996 7.17467 43.9077 6.95832 43.7516 6.79894C43.5955 6.63956 43.3843 6.55015 43.1641 6.55015V6.55015ZM1.65037 8.24651H8.14259C8.40756 13.2748 9.74161 18.1826 12.051 22.6251C5.56349 21.121 1.76739 15.0081 1.65037 8.24651V8.24651ZM31.9396 22.6251C34.2499 18.1833 35.5826 13.2749 35.8434 8.24651H42.3403C42.2233 15.0081 38.4412 21.121 31.9396 22.6251Z" fill="white"/>
</svg>
