<svg width="41" height="47" viewBox="0 0 41 47" fill="none" xmlns="http://www.w3.org/2000/svg">
<path d="M17.5 27.75V44.75H0.5C0.5 40.2413 2.29107 35.9173 5.47918 32.7292C8.6673 29.5411 12.9913 27.75 17.5 27.75V27.75ZM30.25 43.6875L24.0046 46.9706L25.1967 40.0176L20.1456 35.0919L27.1284 34.0761L30.25 27.75L33.3737 34.0761L40.3544 35.0919L35.3033 40.0176L36.4932 46.9706L30.25 43.6875ZM17.5 25.625C10.4556 25.625 4.75 19.9194 4.75 12.875C4.75 5.83062 10.4556 0.125 17.5 0.125C24.5444 0.125 30.25 5.83062 30.25 12.875C30.25 19.9194 24.5444 25.625 17.5 25.625Z" fill="#FFFDFD"/>
</svg>
