<svg width="233" height="238" viewBox="0 0 233 238" fill="none" xmlns="http://www.w3.org/2000/svg">
<g clip-path="url(#clip0_817_1831)">
<path d="M116.27 130.66C125.156 130.66 132.36 123.456 132.36 114.57C132.36 105.684 125.156 98.48 116.27 98.48C107.383 98.48 100.18 105.684 100.18 114.57C100.18 123.456 107.383 130.66 116.27 130.66Z" fill="url(#paint0_linear_817_1831)"/>
<path d="M111.639 81.7998L112.999 91.7098L112.209 91.8298L110.499 81.9998L111.639 81.7998ZM121.999 81.9998L123.139 82.2198L120.999 91.9998L120.219 91.8398L121.999 81.9998ZM100.739 85.3898L105.449 94.2098L104.739 94.6098L99.739 85.9498C99.999 85.7298 100.369 85.5398 100.709 85.3598L100.739 85.3898ZM132.809 85.9198L133.809 86.5198L128.469 94.9998L127.779 94.5798L132.809 85.9198ZM91.669 92.4398L99.1091 99.1198C98.9291 99.3198 98.7491 99.5198 98.5791 99.7298L90.9091 93.3098L91.669 92.4398ZM141.579 93.2598C141.829 93.5498 142.069 93.8498 142.299 94.1498L134.449 100.34C134.279 100.12 134.109 99.9098 133.929 99.6998L141.579 93.2598ZM85.5791 102.17L94.839 105.92C94.739 106.17 94.6491 106.42 94.5491 106.68L85.1591 103.25C85.2991 102.89 85.4424 102.53 85.589 102.17H85.5791ZM147.329 103.17C147.469 103.54 147.589 103.9 147.709 104.27L138.209 107.37C138.119 107.12 138.039 106.87 137.939 106.62L147.329 103.17ZM83.199 113.42L93.199 113.75C93.199 114.02 93.199 114.29 93.199 114.57V114.68H83.199V114.57C83.179 114.18 83.189 113.8 83.199 113.42ZM149.349 114.51V114.57C149.349 114.93 149.349 115.29 149.349 115.65L139.349 115.33C139.349 115.08 139.349 114.82 139.349 114.57L149.349 114.51ZM94.349 121.78C94.429 122.04 94.5191 122.29 94.6191 122.55L85.209 126C85.079 125.65 84.9491 125.29 84.8291 124.92L94.349 121.78ZM137.999 122.42L147.409 125.82C147.279 126.18 147.139 126.54 146.999 126.9L137.719 123.17C137.799 122.92 137.889 122.67 137.999 122.42ZM98.139 128.84L98.6491 129.46L90.9991 135.92C90.7491 135.63 90.509 135.33 90.269 135.03L98.139 128.84ZM134.009 129.36L141.679 135.78C141.429 136.08 141.179 136.36 140.929 136.65L133.459 130C133.639 129.77 133.819 129.57 133.999 129.36H134.009ZM104.129 134.2C104.349 134.34 104.579 134.47 104.809 134.6L99.809 143.28L98.809 142.67L104.129 134.2ZM127.879 134.54L132.879 143.18L131.879 143.75L127.169 134.93L127.879 134.54ZM111.549 137.17L112.339 137.32L110.649 147.17C110.269 147.11 109.889 147.03 109.509 146.96L111.549 137.17ZM120.359 137.29L122.119 147.14C121.739 147.213 121.359 147.273 120.979 147.32L119.569 137.42L120.359 137.29Z" fill="url(#paint1_linear_817_1831)"/>
<path d="M177.26 7.79004L177.69 8.04004C203.274 22.8037 222.695 46.2751 232.41 74.17L232.58 74.64L176.85 94L176.69 93.53C171.624 79.0079 161.505 66.7914 148.18 59.11L147.75 58.86L177.26 7.79004ZM231.3 74C221.66 46.7062 202.635 23.7258 177.62 9.16004L149.11 58.52C162.285 66.2511 172.323 78.3673 177.47 92.75L231.3 74ZM55.7 135.18L55.87 135.65C60.9557 150.152 71.0849 162.344 84.41 170L84.85 170.25L55.4 221.41L54.96 221.16C29.3589 206.424 9.90933 182.974 0.16 155.09L0 154.62L55.7 135.18ZM83.48 170.65C70.2969 162.934 60.2472 150.828 55.09 136.45L1.27 155.24C10.9447 182.509 29.9852 205.458 55 220L83.48 170.65ZM148.74 169.65L178.36 220.65L177.93 220.9C152.362 235.68 122.34 240.797 93.32 235.32L92.83 235.23L103.83 177.23L104.32 177.33C108.277 178.072 112.294 178.444 116.32 178.44C127.555 178.438 138.591 175.479 148.32 169.86L148.74 169.65ZM177 220.34L148.37 171C138.587 176.563 127.524 179.483 116.27 179.47C112.351 179.484 108.439 179.149 104.58 178.47L94 234.48C122.468 239.731 151.876 234.721 177 220.34Z" fill="url(#paint2_linear_817_1831)"/>
<path d="M116.27 63.52C126.356 63.52 136.217 66.5111 144.604 72.1151C152.991 77.719 159.527 85.6841 163.387 95.0032C167.247 104.322 168.257 114.577 166.29 124.47C164.322 134.363 159.464 143.45 152.332 150.582C145.2 157.715 136.112 162.572 126.219 164.54C116.326 166.508 106.072 165.498 96.7527 161.638C87.4336 157.778 79.4685 151.241 73.8646 142.854C68.2606 134.467 65.2695 124.607 65.2695 114.52C65.296 101.002 70.6776 88.0454 80.2363 78.4868C89.7949 68.9281 102.752 63.5464 116.27 63.52ZM116.27 163.61C125.961 163.61 135.434 160.736 143.492 155.352C151.55 149.968 157.831 142.315 161.54 133.361C165.248 124.408 166.219 114.556 164.328 105.051C162.437 95.5455 157.771 86.8146 150.918 79.9618C144.065 73.109 135.334 68.4422 125.829 66.5515C116.324 64.6609 106.472 65.6312 97.518 69.3399C88.5645 73.0486 80.9117 79.3291 75.5275 87.3871C70.1433 95.4451 67.2695 104.919 67.2695 114.61C67.296 127.598 72.4669 140.046 81.6505 149.229C90.834 158.413 103.282 163.584 116.27 163.61Z" fill="url(#paint3_linear_817_1831)"/>
<path d="M116.27 54.0698C128.235 54.0698 139.932 57.6181 149.882 64.2659C159.831 70.9137 167.585 80.3626 172.164 91.4175C176.743 102.472 177.941 114.637 175.607 126.373C173.273 138.109 167.511 148.889 159.049 157.35C150.588 165.811 139.808 171.573 128.072 173.907C116.337 176.242 104.172 175.044 93.1172 170.465C82.0623 165.885 72.6134 158.131 65.9656 148.182C59.3178 138.233 55.7695 126.536 55.7695 114.57C55.7881 98.5299 62.1681 83.1523 73.51 71.8103C84.852 60.4684 100.23 54.0884 116.27 54.0698ZM116.27 174.07C128.038 174.07 139.541 170.58 149.326 164.042C159.111 157.504 166.737 148.212 171.24 137.339C175.744 126.467 176.922 114.504 174.626 102.962C172.33 91.4201 166.664 80.8182 158.342 72.497C150.021 64.1757 139.419 58.5089 127.877 56.2131C116.336 53.9173 104.372 55.0956 93.4999 59.599C82.6277 64.1024 73.335 71.7287 66.7971 81.5134C60.2591 91.2981 56.7695 102.802 56.7695 114.57C56.7881 130.345 63.0627 145.468 74.2171 156.622C85.3715 167.777 100.495 174.051 116.27 174.07Z" fill="url(#paint4_linear_817_1831)"/>
<path d="M116.27 53.8101C128.287 53.8101 140.034 57.3736 150.026 64.05C160.018 70.7264 167.806 80.2158 172.405 91.3182C177.003 102.421 178.207 114.637 175.862 126.424C173.518 138.21 167.731 149.036 159.234 157.534C150.736 166.031 139.91 171.818 128.123 174.163C116.337 176.507 104.12 175.304 93.0179 170.705C81.9155 166.106 72.4261 158.318 65.7497 148.327C59.0733 138.335 55.5098 126.587 55.5098 114.57C55.5283 98.4612 61.9357 83.0174 73.3264 71.6267C84.7171 60.236 100.161 53.8286 116.27 53.8101ZM116.27 174.32C128.09 174.32 139.644 170.815 149.472 164.248C159.299 157.681 166.959 148.347 171.482 137.427C176.005 126.507 177.187 114.49 174.881 102.898C172.574 91.3052 166.882 80.657 158.523 72.2998C150.164 63.9426 139.515 58.2518 127.922 55.9471C116.329 53.6424 104.313 54.8273 93.3937 59.3519C82.4741 63.8765 73.1416 71.5377 66.5763 81.3665C60.011 91.1953 56.5078 102.75 56.5098 114.57C56.5257 130.414 62.8272 145.604 74.0312 156.806C85.2352 168.008 100.426 174.307 116.27 174.32Z" fill="url(#paint5_linear_817_1831)"/>
<path d="M122.229 10.5898C122.361 10.5975 122.489 10.631 122.608 10.6885C122.726 10.7459 122.832 10.8262 122.919 10.9247C123.007 11.0231 123.074 11.1379 123.116 11.2623C123.159 11.3868 123.177 11.5185 123.169 11.6498C123.161 11.7812 123.128 11.9098 123.071 12.0283C123.013 12.1467 122.933 12.2526 122.834 12.3399C122.736 12.4273 122.621 12.4943 122.497 12.5372C122.372 12.5801 122.241 12.598 122.109 12.5898C121.978 12.5822 121.849 12.5487 121.731 12.4912C121.612 12.4338 121.506 12.3535 121.419 12.255C121.332 12.1565 121.265 12.0418 121.222 11.9173C121.179 11.7929 121.161 11.6612 121.169 11.5298C121.184 11.2752 121.297 11.036 121.482 10.8612C121.668 10.6865 121.914 10.5894 122.169 10.5898H122.229ZM109.229 11.6598C109.248 11.9236 109.162 12.1843 108.99 12.3848C108.818 12.5853 108.573 12.7094 108.309 12.7298C108.045 12.7491 107.785 12.6632 107.584 12.4908C107.384 12.3183 107.26 12.0735 107.239 11.8098C107.22 11.5461 107.306 11.2854 107.478 11.0849C107.651 10.8844 107.895 10.7603 108.159 10.7398H108.239C108.482 10.7513 108.713 10.851 108.888 11.0204C109.063 11.1898 109.17 11.4171 109.189 11.6598H109.229ZM136.289 12.3398C136.549 12.3907 136.778 12.5423 136.926 12.7616C137.074 12.9809 137.129 13.25 137.079 13.5098C137.028 13.7695 136.877 13.9985 136.657 14.1466C136.438 14.2946 136.169 14.3498 135.909 14.2998C135.78 14.2758 135.656 14.2265 135.546 14.1546C135.435 14.0827 135.34 13.9898 135.266 13.8811C135.192 13.7723 135.14 13.65 135.113 13.5211C135.086 13.3922 135.085 13.2592 135.109 13.1298C135.154 12.8987 135.279 12.6908 135.462 12.5426C135.644 12.3945 135.874 12.3156 136.109 12.3198C136.156 12.3214 136.203 12.3281 136.249 12.3398H136.289ZM95.3691 13.5398C95.4257 13.7984 95.3775 14.0688 95.235 14.2919C95.0926 14.515 94.8675 14.6724 94.6091 14.7298C94.4804 14.7643 94.3461 14.7726 94.2141 14.7544C94.0821 14.7361 93.9551 14.6917 93.8405 14.6237C93.7259 14.5557 93.6261 14.4655 93.5468 14.3584C93.4676 14.2512 93.4106 14.1293 93.3791 13.9998C93.3258 13.7414 93.3768 13.4722 93.521 13.2512C93.6653 13.0302 93.891 12.8751 94.1491 12.8198H94.3591C94.5772 12.8177 94.79 12.8868 94.9651 13.0168C95.1403 13.1468 95.2681 13.3305 95.3291 13.5398H95.3691ZM149.899 15.9998C150.15 16.0862 150.356 16.2684 150.472 16.5066C150.588 16.7447 150.605 17.0192 150.519 17.2698C150.477 17.3948 150.411 17.5103 150.325 17.6096C150.238 17.709 150.133 17.7902 150.015 17.8488C149.897 17.9073 149.769 17.942 149.637 17.9507C149.506 17.9595 149.374 17.9422 149.249 17.8998C149.124 17.8581 149.009 17.7921 148.909 17.7056C148.81 17.6191 148.729 17.5138 148.67 17.3958C148.612 17.2778 148.577 17.1493 148.568 17.0179C148.559 16.8865 148.577 16.7546 148.619 16.6298C148.689 16.4229 148.824 16.2443 149.005 16.1216C149.185 15.9988 149.401 15.9385 149.619 15.9498C149.714 15.9547 149.808 15.9715 149.899 15.9998ZM81.8991 17.3198C81.9455 17.4433 81.967 17.5746 81.9625 17.7064C81.9579 17.8381 81.9273 17.9677 81.8725 18.0876C81.8176 18.2075 81.7396 18.3153 81.643 18.405C81.5463 18.4946 81.4328 18.5642 81.3091 18.6098C81.1833 18.6589 81.0489 18.6819 80.9139 18.6776C80.7789 18.6733 80.6463 18.6417 80.5238 18.5847C80.4014 18.5277 80.2918 18.4465 80.2017 18.3459C80.1115 18.2454 80.0426 18.1277 79.9991 17.9998C79.9091 17.7505 79.9217 17.4757 80.0342 17.2357C80.1467 16.9956 80.3499 16.8101 80.5991 16.7198C80.7081 16.6803 80.8232 16.66 80.9391 16.6598C81.1377 16.6616 81.3312 16.7225 81.4951 16.8347C81.6589 16.9469 81.7857 17.1054 81.8591 17.2898L81.8991 17.3198ZM162.979 21.4698C163.216 21.588 163.397 21.7954 163.481 22.0467C163.566 22.298 163.547 22.5725 163.429 22.8098C163.309 23.0454 163.101 23.2239 162.85 23.3063C162.599 23.3888 162.325 23.3685 162.089 23.2498C161.852 23.1317 161.671 22.9242 161.587 22.673C161.502 22.4217 161.521 22.1472 161.639 21.9098C161.723 21.7434 161.852 21.6037 162.011 21.5065C162.17 21.4094 162.353 21.3585 162.539 21.3598C162.677 21.3566 162.813 21.3839 162.939 21.4398L162.979 21.4698ZM68.9991 22.8498C69.1224 23.0846 69.1474 23.3586 69.0686 23.6118C68.9899 23.865 68.8138 24.0765 68.5791 24.1998C68.3444 24.3231 68.0703 24.3481 67.8172 24.2693C67.564 24.1906 67.3525 24.0145 67.2291 23.7798C67.1051 23.5463 67.0786 23.2732 67.1555 23.0202C67.2323 22.7672 67.4062 22.555 67.6391 22.4298C67.7836 22.3519 67.945 22.3107 68.1091 22.3098C68.2928 22.3095 68.473 22.3597 68.6299 22.4549C68.7869 22.5502 68.9147 22.6868 68.9991 22.8498ZM175.099 28.6198C175.318 28.7697 175.468 29.0003 175.517 29.261C175.566 29.5217 175.509 29.791 175.359 30.0098C175.209 30.2286 174.979 30.3789 174.718 30.4277C174.457 30.4765 174.188 30.4197 173.969 30.2698C173.75 30.12 173.6 29.8894 173.551 29.6287C173.503 29.368 173.559 29.0987 173.709 28.8798C173.801 28.7441 173.925 28.633 174.069 28.5563C174.214 28.4796 174.375 28.4396 174.539 28.4398C174.74 28.4423 174.935 28.5051 175.099 28.6198ZM57.0991 30.0898C57.251 30.3062 57.3109 30.5739 57.266 30.8344C57.221 31.0948 57.0747 31.3269 56.8591 31.4798C56.644 31.6327 56.3771 31.6943 56.1168 31.6512C55.8564 31.6081 55.6236 31.4638 55.4691 31.2498C55.3163 31.0347 55.2547 30.7678 55.2978 30.5075C55.3409 30.2471 55.4851 30.0143 55.6991 29.8598C55.868 29.7376 56.0707 29.6712 56.2791 29.6698C56.4344 29.6737 56.5866 29.7137 56.7237 29.7866C56.8609 29.8595 56.9791 29.9633 57.0691 30.0898H57.0991ZM186.209 37.3798C186.405 37.5578 186.522 37.8061 186.535 38.0704C186.549 38.3347 186.456 38.5934 186.279 38.7898C186.101 38.9857 185.853 39.103 185.589 39.1161C185.324 39.1293 185.066 39.0371 184.869 38.8598C184.771 38.7716 184.691 38.6647 184.634 38.5453C184.577 38.426 184.544 38.2965 184.538 38.1645C184.531 38.0324 184.551 37.9004 184.596 37.776C184.641 37.6516 184.71 37.5374 184.799 37.4398C184.894 37.3381 185.008 37.2571 185.135 37.202C185.263 37.1469 185.4 37.1189 185.539 37.1198C185.777 37.1277 186.003 37.2199 186.179 37.3798H186.209ZM46.2091 38.8798C46.3954 39.0672 46.4999 39.3207 46.4999 39.5848C46.4999 39.849 46.3954 40.1025 46.2091 40.2898C46.1162 40.3836 46.0056 40.458 45.8837 40.5087C45.7619 40.5595 45.6312 40.5856 45.4991 40.5856C45.3671 40.5856 45.2364 40.5595 45.1146 40.5087C44.9927 40.458 44.8821 40.3836 44.7891 40.2898C44.6954 40.1969 44.621 40.0863 44.5703 39.9644C44.5195 39.8426 44.4933 39.7119 44.4933 39.5798C44.4933 39.4478 44.5195 39.3171 44.5703 39.1953C44.621 39.0734 44.6954 38.9628 44.7891 38.8698C44.9745 38.6912 45.2217 38.5909 45.4791 38.5898C45.6107 38.5891 45.7412 38.6143 45.863 38.6641C45.9849 38.7138 46.0957 38.7872 46.1891 38.8798H46.2091ZM195.999 47.5398C196.084 47.6403 196.148 47.7564 196.188 47.8817C196.228 48.0069 196.243 48.1388 196.231 48.2697C196.22 48.4007 196.183 48.5281 196.123 48.6448C196.063 48.7615 195.98 48.8652 195.879 48.9498C195.779 49.0346 195.663 49.0988 195.537 49.1386C195.412 49.1785 195.28 49.1933 195.149 49.1821C195.018 49.171 194.891 49.1341 194.774 49.0737C194.657 49.0132 194.554 48.9304 194.469 48.8298C194.384 48.7294 194.32 48.6133 194.28 48.488C194.24 48.3628 194.226 48.2309 194.237 48.1C194.248 47.969 194.285 47.8415 194.345 47.7248C194.406 47.6081 194.489 47.5045 194.589 47.4198C194.77 47.2649 195.001 47.1798 195.239 47.1798C195.384 47.1811 195.528 47.2139 195.659 47.2761C195.79 47.3382 195.906 47.4283 195.999 47.5398ZM36.5891 49.0498C36.6919 49.1324 36.7773 49.2344 36.8404 49.35C36.9036 49.4656 36.9433 49.5926 36.9573 49.7237C36.9712 49.8547 36.9591 49.9872 36.9217 50.1135C36.8842 50.2399 36.8222 50.3576 36.7391 50.4598C36.6566 50.5626 36.5546 50.648 36.439 50.7111C36.3233 50.7743 36.1964 50.814 36.0653 50.828C35.9343 50.8419 35.8018 50.8298 35.6755 50.7924C35.5491 50.7549 35.4314 50.6929 35.3291 50.6098C35.2264 50.5273 35.141 50.4253 35.0778 50.3097C35.0147 50.194 34.975 50.0671 34.961 49.936C34.9471 49.805 34.9592 49.6725 34.9966 49.5462C35.034 49.4198 35.0961 49.3021 35.1791 49.1998C35.2733 49.0838 35.3922 48.9904 35.5272 48.9263C35.6621 48.8623 35.8097 48.8293 35.9591 48.8298C36.1881 48.8289 36.4105 48.9065 36.5891 49.0498ZM204.319 58.9298C204.389 59.0408 204.437 59.1645 204.46 59.2939C204.482 59.4233 204.479 59.5559 204.45 59.6841C204.421 59.8122 204.367 59.9334 204.292 60.0408C204.216 60.1482 204.12 60.2396 204.009 60.3098C203.898 60.3801 203.774 60.4278 203.645 60.4503C203.516 60.4727 203.383 60.4695 203.255 60.4407C203.127 60.4119 203.006 60.3582 202.898 60.2825C202.791 60.2069 202.699 60.1108 202.629 59.9998C202.559 59.8889 202.511 59.7652 202.489 59.6358C202.466 59.5063 202.469 59.3738 202.498 59.2456C202.527 59.1175 202.581 58.9963 202.656 58.8889C202.732 58.7815 202.828 58.6901 202.939 58.6198C203.1 58.5159 203.288 58.4603 203.479 58.4598C203.647 58.4612 203.813 58.505 203.959 58.5871C204.106 58.6693 204.23 58.7872 204.319 58.9298ZM28.4491 60.4298C28.6755 60.5668 28.8384 60.7878 28.9021 61.0446C28.9659 61.3014 28.9252 61.573 28.7891 61.7998C28.7213 61.9133 28.6317 62.0121 28.5254 62.0907C28.4192 62.1693 28.2984 62.2261 28.1701 62.2577C28.0417 62.2893 27.9084 62.2952 27.7778 62.2749C27.6472 62.2547 27.5219 62.2088 27.4091 62.1398C27.1844 62.0013 27.0236 61.7795 26.9618 61.5228C26.9 61.2662 26.9422 60.9955 27.0791 60.7698C27.1668 60.622 27.291 60.4993 27.4399 60.4134C27.5888 60.3276 27.7573 60.2816 27.9291 60.2798C28.113 60.2811 28.2929 60.333 28.4491 60.4298ZM211.049 71.3398C211.157 71.5813 211.166 71.8557 211.072 72.1031C210.978 72.3505 210.79 72.5507 210.549 72.6598C210.309 72.7687 210.036 72.7783 209.788 72.6865C209.541 72.5948 209.34 72.4091 209.229 72.1698C209.174 72.0504 209.142 71.9212 209.137 71.7896C209.132 71.658 209.152 71.5266 209.198 71.403C209.243 71.2795 209.313 71.1661 209.402 71.0694C209.492 70.9728 209.599 70.8948 209.719 70.8398C209.852 70.7815 209.994 70.7509 210.139 70.7498C210.332 70.7502 210.52 70.8061 210.681 70.9108C210.842 71.0154 210.97 71.1644 211.049 71.3398ZM21.9191 72.7998C22.0402 72.852 22.1498 72.9277 22.2416 73.0224C22.3333 73.1171 22.4054 73.229 22.4538 73.3517C22.5021 73.4743 22.5257 73.6054 22.5232 73.7372C22.5207 73.869 22.4921 73.9991 22.4391 74.1198C22.3337 74.3619 22.1367 74.5524 21.8913 74.6499C21.6459 74.7473 21.3719 74.7437 21.1291 74.6398C21.008 74.5877 20.8985 74.512 20.8067 74.4173C20.715 74.3226 20.6429 74.2107 20.5945 74.088C20.5462 73.9653 20.5226 73.8343 20.5251 73.7025C20.5276 73.5706 20.5562 73.4406 20.6091 73.3198C20.6865 73.1425 20.8137 72.9915 20.9752 72.885C21.1367 72.7785 21.3257 72.7211 21.5191 72.7198C21.6563 72.7213 21.792 72.7485 21.9191 72.7998ZM215.999 84.5499C216.038 84.6759 216.051 84.8083 216.038 84.9395C216.025 85.0707 215.986 85.198 215.924 85.3142C215.862 85.4303 215.777 85.533 215.675 85.6164C215.573 85.6997 215.455 85.7621 215.329 85.7999C215.203 85.8383 215.071 85.8515 214.939 85.8386C214.808 85.8257 214.681 85.787 214.565 85.7248C214.449 85.6625 214.346 85.5779 214.263 85.4758C214.179 85.3737 214.117 85.2561 214.079 85.1298C214.041 85.0038 214.027 84.8714 214.04 84.7402C214.053 84.609 214.092 84.4817 214.154 84.3655C214.216 84.2494 214.301 84.1466 214.403 84.0633C214.505 83.9799 214.623 83.9176 214.749 83.8798C214.845 83.8658 214.943 83.8658 215.039 83.8798C215.249 83.8765 215.455 83.9394 215.627 84.0597C215.8 84.18 215.93 84.3515 215.999 84.5499ZM17.1291 85.9998C17.2559 86.0346 17.3746 86.0939 17.4784 86.1746C17.5822 86.2552 17.6691 86.3555 17.7341 86.4697C17.7992 86.584 17.841 86.7099 17.8573 86.8403C17.8736 86.9708 17.864 87.1031 17.8291 87.2299C17.7569 87.484 17.587 87.6993 17.3565 87.8286C17.126 87.9579 16.8537 87.9907 16.5991 87.9198C16.4724 87.8851 16.3537 87.8258 16.2499 87.7451C16.1461 87.6645 16.0592 87.5642 15.9941 87.45C15.9291 87.3357 15.8873 87.2098 15.871 87.0794C15.8547 86.9489 15.8642 86.8166 15.8991 86.6898C15.9596 86.4735 16.0912 86.2839 16.2726 86.1515C16.454 86.0191 16.6747 85.9515 16.8991 85.9598C16.9774 85.9616 17.0549 85.9751 17.1291 85.9998ZM219.129 98.3598C219.149 98.4899 219.143 98.6226 219.112 98.7503C219.08 98.878 219.024 98.9982 218.946 99.1041C218.868 99.21 218.769 99.2995 218.657 99.3674C218.544 99.4353 218.419 99.4803 218.289 99.4998C218.028 99.5402 217.762 99.4755 217.548 99.32C217.334 99.1645 217.191 98.9307 217.149 98.6698C217.109 98.4087 217.173 98.1423 217.329 97.9286C217.485 97.715 217.718 97.5717 217.979 97.5298H218.139C218.375 97.5199 218.607 97.5938 218.794 97.7384C218.98 97.8829 219.11 98.0889 219.159 98.3198L219.129 98.3598ZM14.1291 99.6698C14.3915 99.7047 14.6294 99.8422 14.7906 100.052C14.9518 100.262 15.0232 100.527 14.9891 100.79C14.9719 100.921 14.929 101.047 14.8628 101.161C14.7965 101.275 14.7083 101.375 14.6033 101.455C14.4982 101.535 14.3784 101.594 14.2507 101.627C14.123 101.66 13.9899 101.668 13.8591 101.65C13.5966 101.613 13.3596 101.473 13.2002 101.261C13.0408 101.049 12.9721 100.782 13.0091 100.52C13.0431 100.28 13.1633 100.06 13.3473 99.9016C13.5312 99.7434 13.7665 99.6575 14.0091 99.6599H14.1491L14.1291 99.6698ZM220.399 112.39C220.399 112.655 220.294 112.909 220.106 113.097C219.919 113.284 219.664 113.39 219.399 113.39C219.134 113.39 218.88 113.284 218.692 113.097C218.505 112.909 218.399 112.655 218.399 112.39C218.399 112.125 218.505 111.87 218.692 111.683C218.88 111.495 219.134 111.39 219.399 111.39C219.664 111.39 219.919 111.495 220.106 111.683C220.294 111.87 220.399 112.125 220.399 112.39ZM14.1191 114.57C14.1191 114.835 14.0138 115.089 13.8262 115.277C13.6387 115.464 13.3844 115.57 13.1191 115.57C12.8539 115.57 12.5996 115.464 12.412 115.277C12.2245 115.089 12.1191 114.835 12.1191 114.57C12.1191 114.305 12.2245 114.05 12.412 113.863C12.5996 113.675 12.8539 113.57 13.1191 113.57C13.3844 113.57 13.6387 113.675 13.8262 113.863C14.0138 114.05 14.1191 114.305 14.1191 114.57ZM14.2091 118.87C14.2091 119.135 14.1038 119.389 13.9162 119.577C13.7287 119.764 13.4744 119.87 13.2091 119.87C12.9439 119.87 12.6896 119.764 12.502 119.577C12.3145 119.389 12.2091 119.135 12.2091 118.87C12.2091 118.605 12.3145 118.35 12.502 118.163C12.6896 117.975 12.9439 117.87 13.2091 117.87C13.3405 117.87 13.4705 117.896 13.5918 117.946C13.7132 117.996 13.8234 118.07 13.9162 118.163C14.0091 118.256 14.0828 118.366 14.133 118.487C14.1833 118.608 14.2091 118.739 14.2091 118.87ZM218.859 125.38C218.99 125.395 219.116 125.435 219.231 125.499C219.347 125.563 219.448 125.649 219.53 125.752C219.611 125.855 219.672 125.974 219.708 126.1C219.744 126.227 219.754 126.359 219.739 126.49C219.709 126.752 219.576 126.992 219.37 127.156C219.164 127.321 218.902 127.398 218.639 127.37C218.508 127.355 218.382 127.314 218.267 127.251C218.152 127.187 218.05 127.101 217.969 126.998C217.887 126.894 217.826 126.776 217.79 126.65C217.754 126.523 217.744 126.391 217.759 126.26C217.789 126.016 217.907 125.791 218.091 125.629C218.276 125.467 218.513 125.378 218.759 125.38H218.869H218.859ZM15.7091 132.64C15.7322 132.769 15.7295 132.902 15.7013 133.03C15.673 133.158 15.6198 133.28 15.5445 133.388C15.4693 133.495 15.3736 133.587 15.2628 133.658C15.1521 133.729 15.0285 133.777 14.8991 133.8C14.7698 133.823 14.6372 133.82 14.5088 133.792C14.3805 133.764 14.259 133.71 14.1513 133.635C14.0436 133.56 13.9517 133.464 13.881 133.354C13.8103 133.243 13.7621 133.119 13.7391 132.99C13.7161 132.86 13.7188 132.728 13.747 132.6C13.7753 132.471 13.8285 132.35 13.9038 132.242C13.979 132.134 14.0747 132.042 14.1854 131.972C14.2962 131.901 14.4198 131.853 14.5491 131.83H14.7291C14.9611 131.83 15.1857 131.911 15.3644 132.059C15.5432 132.207 15.6651 132.412 15.7091 132.64ZM216.469 139.16C216.597 139.192 216.716 139.25 216.822 139.329C216.927 139.408 217.016 139.507 217.082 139.62C217.149 139.734 217.193 139.859 217.211 139.989C217.23 140.12 217.222 140.252 217.189 140.38C217.123 140.635 216.959 140.854 216.732 140.989C216.506 141.124 216.235 141.164 215.979 141.1C215.852 141.067 215.732 141.01 215.627 140.931C215.521 140.852 215.433 140.753 215.366 140.639C215.299 140.526 215.255 140.401 215.237 140.27C215.218 140.14 215.226 140.007 215.259 139.88C215.316 139.66 215.446 139.466 215.628 139.329C215.809 139.193 216.032 139.123 216.259 139.13C216.33 139.132 216.4 139.142 216.469 139.16ZM19.0691 146.07C19.1512 146.322 19.1298 146.596 19.0098 146.832C18.8898 147.069 18.681 147.247 18.4291 147.33C18.1772 147.412 17.903 147.391 17.6667 147.271C17.4305 147.151 17.2515 146.942 17.1691 146.69C17.0871 146.438 17.1084 146.164 17.2284 145.927C17.3484 145.691 17.5573 145.512 17.8091 145.43C17.9096 145.399 18.014 145.382 18.1191 145.38C18.33 145.38 18.5354 145.447 18.7061 145.571C18.8767 145.695 19.0038 145.869 19.0691 146.07ZM212.229 152.5C212.474 152.6 212.67 152.793 212.773 153.036C212.876 153.28 212.878 153.554 212.779 153.8C212.73 153.922 212.657 154.034 212.564 154.128C212.471 154.222 212.361 154.297 212.239 154.348C212.117 154.399 211.986 154.426 211.854 154.426C211.722 154.426 211.591 154.4 211.469 154.35C211.224 154.25 211.029 154.057 210.926 153.813C210.823 153.57 210.82 153.295 210.919 153.05C210.995 152.866 211.124 152.708 211.289 152.598C211.455 152.487 211.65 152.429 211.849 152.43C211.979 152.428 212.108 152.452 212.229 152.5ZM24.2291 158.93C24.3425 159.169 24.3567 159.443 24.2686 159.692C24.1805 159.941 23.9974 160.145 23.7591 160.26C23.5216 160.374 23.2486 160.39 22.9995 160.303C22.7505 160.217 22.5455 160.036 22.4291 159.8C22.3711 159.682 22.337 159.553 22.3287 159.422C22.3204 159.291 22.3382 159.159 22.3809 159.034C22.4236 158.91 22.4905 158.795 22.5778 158.696C22.665 158.598 22.7708 158.517 22.8891 158.46C23.0263 158.393 23.1768 158.359 23.3291 158.36C23.5176 158.36 23.7021 158.414 23.8614 158.515C24.0206 158.616 24.1481 158.76 24.2291 158.93ZM206.229 165.13C206.458 165.262 206.625 165.479 206.694 165.734C206.764 165.988 206.73 166.26 206.599 166.49C206.467 166.719 206.25 166.886 205.995 166.955C205.741 167.024 205.469 166.99 205.239 166.86C205.01 166.728 204.843 166.511 204.774 166.256C204.704 166.001 204.739 165.729 204.869 165.5C204.956 165.349 205.082 165.223 205.233 165.135C205.383 165.048 205.555 165.001 205.729 165C205.894 165.004 206.056 165.048 206.199 165.13H206.229ZM31.0791 171C31.2239 171.22 31.2757 171.489 31.2232 171.747C31.1708 172.006 31.0184 172.233 30.7991 172.38C30.6896 172.453 30.5667 172.504 30.4374 172.529C30.3081 172.555 30.1751 172.555 30.0459 172.529C29.9168 172.503 29.794 172.451 29.6847 172.378C29.5754 172.304 29.4818 172.21 29.4091 172.1C29.2644 171.879 29.2126 171.611 29.2651 171.352C29.3175 171.094 29.4699 170.866 29.6891 170.72C29.8502 170.607 30.0425 170.548 30.2391 170.55C30.4055 170.549 30.5695 170.59 30.7162 170.668C30.8629 170.747 30.9876 170.861 31.0791 171ZM198.529 176.87C198.738 177.032 198.875 177.27 198.908 177.533C198.942 177.795 198.87 178.06 198.709 178.27C198.629 178.375 198.528 178.463 198.414 178.529C198.299 178.595 198.173 178.637 198.042 178.654C197.911 178.671 197.777 178.661 197.65 178.626C197.523 178.591 197.403 178.531 197.299 178.45C197.194 178.37 197.106 178.269 197.04 178.155C196.974 178.04 196.932 177.914 196.915 177.782C196.898 177.651 196.908 177.518 196.943 177.391C196.978 177.263 197.038 177.144 197.119 177.04C197.214 176.919 197.336 176.822 197.475 176.756C197.614 176.691 197.766 176.658 197.919 176.66C198.136 176.649 198.35 176.709 198.529 176.83V176.87ZM39.4891 182C39.6639 182.199 39.7526 182.459 39.7358 182.723C39.7189 182.988 39.5978 183.235 39.3991 183.41C39.2001 183.585 38.9399 183.673 38.6755 183.656C38.4112 183.64 38.1643 183.519 37.9891 183.32C37.8143 183.121 37.7256 182.861 37.7425 182.596C37.7594 182.332 37.8805 182.085 38.0791 181.91C38.2614 181.749 38.4961 181.66 38.7391 181.66C38.8811 181.66 39.0214 181.69 39.1508 181.749C39.2801 181.808 39.3954 181.893 39.4891 182ZM189.339 187.43C189.525 187.617 189.63 187.871 189.63 188.135C189.63 188.399 189.525 188.652 189.339 188.84C189.152 189.026 188.898 189.131 188.634 189.131C188.37 189.131 188.117 189.026 187.929 188.84C187.743 188.652 187.638 188.399 187.638 188.135C187.638 187.871 187.743 187.617 187.929 187.43C188.115 187.245 188.367 187.141 188.629 187.14C188.888 187.125 189.143 187.211 189.339 187.38V187.43ZM49.3391 191.77C49.5393 191.944 49.6622 192.19 49.681 192.454C49.6997 192.719 49.6127 192.98 49.4391 193.18C49.2654 193.38 49.0192 193.503 48.7548 193.522C48.4904 193.54 48.2294 193.453 48.0291 193.28C47.829 193.106 47.7061 192.86 47.6873 192.596C47.6686 192.331 47.7555 192.07 47.9291 191.87C48.023 191.76 48.1396 191.672 48.2708 191.612C48.402 191.551 48.5447 191.52 48.6891 191.52C48.9123 191.515 49.1306 191.586 49.3091 191.72L49.3391 191.77ZM178.859 196.65C179.015 196.861 179.082 197.126 179.044 197.386C179.007 197.646 178.868 197.881 178.659 198.04C178.554 198.119 178.435 198.176 178.307 198.209C178.18 198.241 178.048 198.248 177.918 198.23C177.788 198.211 177.663 198.167 177.55 198.1C177.437 198.033 177.338 197.945 177.259 197.84C177.103 197.628 177.037 197.364 177.074 197.104C177.112 196.844 177.25 196.609 177.459 196.45C177.632 196.32 177.843 196.25 178.059 196.25C178.205 196.248 178.35 196.279 178.483 196.339C178.616 196.4 178.734 196.489 178.829 196.6L178.859 196.65ZM60.3591 200.08C60.58 200.225 60.7345 200.451 60.7888 200.71C60.8431 200.969 60.7929 201.238 60.6491 201.46C60.5041 201.681 60.2775 201.835 60.019 201.889C59.7604 201.944 59.4908 201.894 59.2691 201.75C59.0483 201.605 58.8938 201.378 58.8395 201.12C58.7852 200.861 58.8354 200.592 58.9791 200.37C59.0695 200.229 59.1937 200.113 59.3405 200.033C59.4872 199.952 59.6518 199.91 59.8191 199.91C60.0118 199.913 60.1993 199.972 60.3591 200.08ZM167.169 204.31C167.233 204.425 167.273 204.551 167.288 204.682C167.303 204.812 167.292 204.944 167.256 205.071C167.22 205.197 167.159 205.315 167.077 205.418C166.995 205.521 166.894 205.606 166.779 205.67C166.664 205.734 166.538 205.774 166.407 205.789C166.277 205.804 166.145 205.793 166.018 205.757C165.892 205.72 165.774 205.66 165.671 205.578C165.568 205.496 165.483 205.395 165.419 205.28C165.355 205.165 165.315 205.039 165.3 204.908C165.285 204.778 165.296 204.645 165.332 204.519C165.369 204.393 165.429 204.275 165.511 204.172C165.593 204.069 165.694 203.983 165.809 203.92C165.957 203.84 166.122 203.799 166.289 203.8C166.468 203.798 166.644 203.845 166.799 203.935C166.954 204.024 167.081 204.154 167.169 204.31ZM72.4391 206.87C72.6774 206.984 72.8605 207.189 72.9486 207.438C73.0367 207.687 73.0225 207.961 72.9091 208.2C72.7946 208.438 72.5904 208.621 72.3411 208.709C72.0919 208.797 71.8179 208.783 71.5791 208.67C71.3409 208.555 71.1578 208.351 71.0697 208.102C70.9816 207.853 70.9958 207.579 71.1091 207.34C71.1902 207.17 71.3177 207.026 71.4769 206.925C71.6362 206.824 71.8207 206.77 72.0091 206.77C72.1584 206.769 72.3058 206.803 72.4391 206.87ZM154.579 210.38C154.674 210.627 154.667 210.901 154.56 211.142C154.453 211.384 154.255 211.574 154.009 211.67C153.886 211.718 153.755 211.742 153.623 211.74C153.491 211.737 153.361 211.708 153.24 211.656C153.12 211.603 153.01 211.526 152.919 211.431C152.828 211.335 152.757 211.223 152.709 211.1C152.614 210.853 152.621 210.579 152.728 210.337C152.835 210.096 153.033 209.906 153.279 209.81C153.397 209.763 153.522 209.74 153.649 209.74C153.851 209.74 154.047 209.802 154.213 209.916C154.379 210.03 154.507 210.192 154.579 210.38ZM85.3291 212C85.4547 212.04 85.5713 212.104 85.672 212.189C85.7727 212.274 85.8556 212.378 85.916 212.495C85.9764 212.612 86.0131 212.74 86.0239 212.871C86.0348 213.002 86.0195 213.134 85.9791 213.26C85.8987 213.511 85.7222 213.721 85.488 213.842C85.2539 213.964 84.9811 213.988 84.7291 213.91C84.6035 213.87 84.487 213.806 84.3863 213.721C84.2856 213.636 84.2027 213.532 84.1423 213.415C84.0818 213.298 84.0452 213.17 84.0343 213.039C84.0235 212.907 84.0387 212.775 84.0791 212.65C84.1451 212.439 84.2791 212.256 84.4599 212.13C84.6408 212.003 84.8586 211.94 85.0791 211.95C85.1643 211.956 85.2483 211.973 85.3291 212ZM141.269 214.72C141.3 214.848 141.306 214.981 141.286 215.111C141.265 215.241 141.22 215.366 141.151 215.479C141.082 215.591 140.992 215.689 140.885 215.766C140.778 215.844 140.657 215.899 140.529 215.93C140.401 215.961 140.268 215.967 140.138 215.946C140.008 215.926 139.883 215.88 139.77 215.811C139.658 215.743 139.56 215.652 139.483 215.546C139.405 215.439 139.35 215.318 139.319 215.19C139.288 215.062 139.282 214.929 139.303 214.799C139.323 214.668 139.369 214.543 139.438 214.431C139.506 214.318 139.597 214.221 139.703 214.143C139.81 214.066 139.931 214.01 140.059 213.98H140.289C140.505 213.974 140.717 214.037 140.894 214.162C141.071 214.286 141.202 214.464 141.269 214.67V214.72ZM98.7891 215.28C99.0484 215.326 99.2789 215.473 99.4305 215.688C99.5822 215.904 99.6428 216.17 99.5991 216.43C99.5551 216.691 99.4092 216.924 99.1937 217.078C98.9781 217.231 98.7103 217.293 98.4491 217.25C98.3189 217.228 98.1942 217.181 98.0823 217.111C97.9705 217.04 97.8736 216.949 97.7974 216.841C97.7211 216.733 97.667 216.611 97.6381 216.482C97.6093 216.353 97.6062 216.22 97.6291 216.09C97.6696 215.855 97.7926 215.642 97.9759 215.49C98.1593 215.338 98.3909 215.256 98.6291 215.26L98.7891 215.28ZM127.499 217.17C127.524 217.434 127.443 217.697 127.275 217.901C127.106 218.106 126.863 218.235 126.599 218.26C126.335 218.285 126.072 218.204 125.868 218.035C125.663 217.867 125.534 217.624 125.509 217.36C125.484 217.096 125.565 216.833 125.734 216.629C125.902 216.424 126.145 216.295 126.409 216.27H126.499C126.74 216.267 126.974 216.352 127.158 216.508C127.342 216.664 127.463 216.881 127.499 217.12V217.17ZM112.559 216.7C112.824 216.7 113.079 216.805 113.266 216.993C113.454 217.18 113.559 217.435 113.559 217.7C113.559 217.965 113.454 218.219 113.266 218.407C113.079 218.594 112.824 218.7 112.559 218.7C112.294 218.7 112.04 218.594 111.852 218.407C111.664 218.219 111.559 217.965 111.559 217.7C111.559 217.435 111.664 217.18 111.852 216.993C112.04 216.805 112.294 216.7 112.559 216.7Z" fill="url(#paint6_linear_817_1831)"/>
<path d="M86.6896 33.3999L90.1196 42.7999C77.5319 47.4035 66.3733 55.2311 57.7596 65.4999L50.0996 59.0699C59.8393 47.4582 72.4564 38.6066 86.6896 33.3999Z" fill="url(#paint7_linear_817_1831)"/>
<path d="M41.4602 71.3901L50.1202 76.3901C43.423 87.9957 39.9015 101.161 39.9102 114.56V114.73H29.9102V114.56C29.9044 99.4058 33.8879 84.517 41.4602 71.3901Z" fill="url(#paint8_linear_817_1831)"/>
<path d="M197.42 85C200.881 94.4912 202.645 104.517 202.63 114.62C202.63 119.614 202.202 124.599 201.35 129.52L191.5 127.8C192.252 123.447 192.631 119.038 192.63 114.62C192.642 105.669 191.074 96.7864 188 88.38L197.42 85Z" fill="url(#paint9_linear_817_1831)"/>
<path d="M187.781 140L198.121 143.75L197.951 144.22C192.725 158.52 183.843 171.201 172.191 181L171.811 181.32L164.721 172.91L165.111 172.59C175.292 164.012 183.049 152.917 187.611 140.41L187.781 140ZM196.831 144.35L188.371 141.28C183.795 153.608 176.139 164.56 166.131 173.09L171.931 179.97C183.148 170.416 191.722 158.14 196.831 144.32V144.35Z" fill="url(#paint10_linear_817_1831)"/>
<path d="M154.541 180.66L159.541 189.31C146.426 196.904 131.545 200.911 116.391 200.93V190.93C129.789 190.918 142.947 187.376 154.541 180.66Z" fill="url(#paint11_linear_817_1831)"/>
<path d="M116.27 19.3702C126.329 19.3612 136.326 20.9441 145.89 24.0602L145 26.9202C131.151 22.3947 116.428 21.2131 102.034 23.472C87.6412 25.7309 73.9874 31.3661 62.1906 39.9164C50.3939 48.4666 40.7896 59.6889 34.1638 72.6646C27.538 85.6404 24.0792 100.001 24.0703 114.57V114.77H21.0703V114.59C21.0915 89.3462 31.1276 65.142 48.9759 47.2899C66.8242 29.4379 91.0264 19.3966 116.27 19.3702ZM163.82 32.0702C176.85 39.5858 187.913 50.0809 196.105 62.696C204.297 75.311 209.385 89.6872 210.95 104.647C212.516 119.607 210.516 134.725 205.114 148.763C199.712 162.801 191.061 175.359 179.87 185.41L177.87 183.18C188.71 173.447 197.09 161.284 202.323 147.687C207.556 134.091 209.493 119.448 207.976 104.959C206.459 90.4693 201.531 76.5455 193.595 64.328C185.659 52.1105 174.941 41.947 162.32 34.6702L163.82 32.0702ZM26.0503 133.68C29.0774 147.929 35.4353 161.258 44.6038 172.578C53.7723 183.897 65.4907 192.884 78.8001 198.804C92.1095 204.725 106.632 207.409 121.178 206.638C135.724 205.868 149.881 201.664 162.49 194.37L164 197C149.499 205.398 133.038 209.817 116.28 209.81C94.4486 209.807 73.2805 202.305 56.3197 188.559C39.3588 174.813 27.6348 155.658 23.1103 134.3L26.0503 133.68Z" fill="url(#paint12_linear_817_1831)"/>
<path d="M116.221 0.000192649C129.332 -0.0239012 142.349 2.21217 154.701 6.61019L152.871 11.7702C141.122 7.58658 128.742 5.4555 116.271 5.47019L116.221 0.000192649Z" fill="url(#paint13_linear_817_1831)"/>
<path d="M230.83 114.47V114.57C230.851 127.662 228.626 140.661 224.25 153L219.09 151.16C223.254 139.425 225.375 127.062 225.36 114.61L230.83 114.47Z" fill="url(#paint14_linear_817_1831)"/>
<path d="M210.81 169L215.56 171.74C209 183.093 200.544 193.24 190.56 201.74L187 197.6C196.517 189.501 204.571 179.827 210.81 169Z" fill="url(#paint15_linear_817_1831)"/>
<path d="M33.2591 185.36C41.3631 194.859 51.0326 202.902 61.8491 209.14L59.1191 213.88C47.764 207.322 37.617 198.866 29.1191 188.88L33.2591 185.36Z" fill="url(#paint16_linear_817_1831)"/>
<path d="M79.7597 217.4C91.4827 221.557 103.831 223.674 116.27 223.66H116.42V229.13H116.29C103.221 229.149 90.2468 226.927 77.9297 222.56L79.7597 217.4Z" fill="url(#paint17_linear_817_1831)"/>
<path d="M116.27 14.66C129.394 14.6244 142.395 17.1921 154.521 22.2146C166.646 27.2371 177.655 34.6145 186.91 43.92L187.26 44.27L169.7 61.83L169.35 61.48C162.396 54.4854 154.125 48.9394 145.014 45.1631C135.902 41.3868 126.133 39.4551 116.27 39.48C108.646 39.4797 101.067 40.6362 93.7898 42.91L93.3098 43.05L85.8898 19.37L86.3698 19.22C96.0462 16.1866 106.129 14.6489 116.27 14.66ZM185.85 44.27C173.123 31.6854 157.225 22.7835 139.845 18.5102C122.464 14.2368 104.251 14.7517 87.1398 20L93.9998 41.81C101.228 39.6076 108.743 38.4888 116.3 38.49C136.3 38.4465 155.503 46.3324 169.7 60.42L185.85 44.27ZM41.7198 123.55L41.7898 124.04C43.48 137.662 48.8873 150.556 57.4193 161.309C65.9512 172.061 77.2786 180.258 90.1599 185L90.6298 185.17L81.9998 208.44L81.5298 208.26C64.3881 201.95 49.3142 191.043 37.96 176.734C26.6058 162.425 19.4095 145.267 17.1598 127.14L17.0898 126.65L41.7198 123.55ZM89.3398 185.74C76.481 180.91 65.1771 172.676 56.6376 161.917C48.0981 151.158 42.6444 138.28 40.8598 124.66L18.1998 127.51C20.5013 145.275 27.6015 162.077 38.737 176.109C49.8725 190.141 64.622 200.873 81.3998 207.15L89.3398 185.74Z" fill="url(#paint18_linear_817_1831)"/>
<path d="M119.79 44.3901C119.99 44.4002 120.186 44.4502 120.366 44.5371C120.546 44.624 120.707 44.746 120.839 44.896C120.971 45.046 121.072 45.221 121.136 45.4106C121.2 45.6002 121.225 45.8007 121.21 46.0001C121.201 46.1972 121.153 46.3905 121.069 46.5691C120.986 46.7477 120.867 46.908 120.722 47.0408C120.576 47.1736 120.405 47.2764 120.22 47.3432C120.034 47.41 119.837 47.4395 119.64 47.4301C119.443 47.4225 119.249 47.3756 119.071 47.2921C118.892 47.2086 118.732 47.0903 118.6 46.944C118.467 46.7977 118.366 46.6265 118.3 46.4404C118.235 46.2543 118.208 46.057 118.22 45.8601C118.236 45.4755 118.399 45.1117 118.677 44.8451C118.955 44.5785 119.325 44.4298 119.71 44.4301H119.79V44.3901ZM107.3 46.3901C107.327 46.5866 107.314 46.7864 107.263 46.978C107.212 47.1696 107.123 47.3492 107.003 47.5063C106.882 47.6635 106.731 47.7951 106.559 47.8936C106.387 47.9921 106.197 48.0555 106 48.0801C105.805 48.11 105.606 48.101 105.414 48.0538C105.223 48.0065 105.042 47.922 104.884 47.8049C104.725 47.6879 104.591 47.5407 104.489 47.3717C104.387 47.2027 104.319 47.0153 104.29 46.8201C104.259 46.6257 104.266 46.4269 104.312 46.2354C104.358 46.0439 104.442 45.8634 104.558 45.7043C104.674 45.5453 104.821 45.4109 104.99 45.3089C105.158 45.2069 105.345 45.1394 105.54 45.1101H105.77C106.135 45.0982 106.491 45.2195 106.773 45.4514C107.054 45.6834 107.242 46.01 107.3 46.3701V46.3901ZM133.84 46.5401C134.225 46.6413 134.554 46.8903 134.756 47.233C134.959 47.5757 135.017 47.9843 134.92 48.3701C134.819 48.7545 134.57 49.0832 134.226 49.2838C133.883 49.4844 133.475 49.5406 133.09 49.4401C132.897 49.3924 132.715 49.3066 132.555 49.1879C132.395 49.0691 132.261 48.9198 132.16 48.7485C132.058 48.5772 131.992 48.3875 131.964 48.1904C131.937 47.9932 131.949 47.7926 132 47.6001C132.084 47.2785 132.271 46.9934 132.533 46.7891C132.795 46.5848 133.118 46.4727 133.45 46.4701C133.582 46.4712 133.712 46.488 133.84 46.5201V46.5401ZM93.76 49.5401C93.8288 49.7239 93.8605 49.9195 93.8535 50.1157C93.8464 50.3118 93.8007 50.5046 93.7189 50.683C93.6372 50.8614 93.521 51.0219 93.377 51.1553C93.233 51.2886 93.0641 51.3922 92.88 51.4601C92.5161 51.5853 92.1181 51.5658 91.7682 51.4057C91.4183 51.2457 91.1433 50.9573 91 50.6001C90.8608 50.2275 90.8753 49.8148 91.0403 49.4529C91.2054 49.091 91.5074 48.8094 91.88 48.6701C92.0471 48.6112 92.2228 48.5808 92.4 48.5801C92.6988 48.5882 92.9883 48.686 93.2309 48.8607C93.4734 49.0355 93.6578 49.2792 93.76 49.5601V49.5401ZM147.17 51.4301C147.526 51.6047 147.798 51.913 147.928 52.2878C148.057 52.6625 148.033 53.0733 147.86 53.4301C147.684 53.7843 147.375 54.0545 147 54.1819C146.625 54.3093 146.216 54.2835 145.86 54.1101C145.684 54.0238 145.526 53.9036 145.396 53.7562C145.267 53.6088 145.168 53.4373 145.104 53.2515C145.041 53.0656 145.015 52.8691 145.028 52.6733C145.041 52.4774 145.093 52.286 145.18 52.1101C145.301 51.8577 145.491 51.6448 145.728 51.4961C145.966 51.3475 146.24 51.2691 146.52 51.2701C146.747 51.2807 146.97 51.3422 147.17 51.4501V51.4301ZM81.17 55.4301C81.2747 55.5975 81.3454 55.7838 81.378 55.9785C81.4105 56.1733 81.4043 56.3725 81.3597 56.5648C81.3151 56.7571 81.233 56.9387 81.1181 57.0992C81.0032 57.2597 80.8577 57.396 80.69 57.5001C80.5211 57.6085 80.332 57.6817 80.1342 57.7152C79.9363 57.7488 79.7337 57.742 79.5385 57.6953C79.3433 57.6486 79.1596 57.563 78.9983 57.4435C78.837 57.324 78.7015 57.1732 78.6 57.0001C78.4067 56.6701 78.3477 56.2785 78.4352 55.9062C78.5227 55.5339 78.75 55.2095 79.07 55.0001C79.3092 54.8485 79.5868 54.7687 79.87 54.7701C80.1192 54.7636 80.366 54.8197 80.5879 54.9333C80.8097 55.0468 80.9996 55.2142 81.14 55.4201L81.17 55.4301ZM159.24 59.0001C159.551 59.2448 159.754 59.6021 159.805 59.9949C159.855 60.3877 159.749 60.7846 159.51 61.1001C159.39 61.2569 159.239 61.3882 159.068 61.4867C158.896 61.5852 158.707 61.6488 158.511 61.6739C158.315 61.6989 158.116 61.685 157.925 61.6329C157.735 61.5808 157.556 61.4915 157.4 61.3701C157.086 61.127 156.882 60.7695 156.831 60.3759C156.781 59.9823 156.888 59.5847 157.13 59.2701C157.271 59.0894 157.452 58.9433 157.658 58.8428C157.864 58.7423 158.091 58.6901 158.32 58.6901C158.652 58.6901 158.975 58.799 159.24 59.0001ZM70 63.7101C70.1403 63.8487 70.2517 64.0138 70.3277 64.1957C70.4037 64.3777 70.4429 64.5729 70.4429 64.7701C70.4429 64.9673 70.4037 65.1626 70.3277 65.3445C70.2517 65.5265 70.1403 65.6916 70 65.8301C69.7188 66.111 69.3375 66.2688 68.94 66.2688C68.5425 66.2688 68.1612 66.111 67.88 65.8301C67.5985 65.5472 67.4405 65.1643 67.4405 64.7651C67.4405 64.366 67.5985 63.9831 67.88 63.7001C68.1529 63.4471 68.5081 63.3015 68.88 63.2901C69.0856 63.279 69.2912 63.3105 69.484 63.3828C69.6768 63.4551 69.8525 63.5666 70 63.7101ZM169.59 68.7601C169.848 69.0616 169.975 69.4528 169.945 69.8482C169.915 70.2436 169.73 70.611 169.43 70.8701C169.28 70.9992 169.107 71.0976 168.919 71.1594C168.732 71.2213 168.534 71.2454 168.337 71.2306C168.14 71.2157 167.948 71.1621 167.771 71.0728C167.595 70.9835 167.438 70.8602 167.31 70.7101C167.181 70.5615 167.083 70.3887 167.021 70.2019C166.96 70.0151 166.936 69.818 166.95 69.6218C166.965 69.4256 167.019 69.2344 167.108 69.059C167.197 68.8837 167.32 68.7277 167.47 68.6001C167.745 68.3551 168.102 68.223 168.47 68.2301C168.677 68.2392 168.88 68.2909 169.065 68.3821C169.251 68.4733 169.416 68.602 169.55 68.7601H169.59ZM60.67 74.0701C60.8292 74.1843 60.9642 74.3289 61.0672 74.4955C61.1701 74.6622 61.2389 74.8477 61.2696 75.0412C61.3003 75.2347 61.2923 75.4323 61.246 75.6227C61.1997 75.8131 61.1161 75.9923 61 76.1501C60.8888 76.3122 60.7467 76.4507 60.5818 76.5576C60.4169 76.6645 60.2324 76.7377 60.0391 76.773C59.8458 76.8083 59.6473 76.8051 59.4553 76.7634C59.2632 76.7217 59.0813 76.6424 58.92 76.5301C58.5942 76.302 58.3715 75.9546 58.3003 75.5633C58.2292 75.1719 58.3153 74.7683 58.54 74.4401C58.6784 74.2424 58.8625 74.0809 59.0766 73.9695C59.2907 73.8581 59.5286 73.8 59.77 73.8001C60.0918 73.787 60.4086 73.882 60.67 74.0701ZM177.67 80.4101C177.854 80.7532 177.896 81.1545 177.787 81.5283C177.679 81.902 177.429 82.2185 177.09 82.4101C176.746 82.5887 176.346 82.628 175.974 82.52C175.602 82.4121 175.285 82.1651 175.09 81.8301C174.909 81.4865 174.868 81.0861 174.976 80.7131C175.085 80.3401 175.333 80.0236 175.67 79.8301C175.894 79.7069 176.145 79.6416 176.4 79.6401C176.662 79.6445 176.919 79.7179 177.143 79.8531C177.368 79.9884 177.553 80.1805 177.68 80.4101H177.67ZM53.67 86.0801C53.8559 86.1562 54.0245 86.2691 54.1656 86.412C54.3068 86.5549 54.4176 86.7249 54.4914 86.9117C54.5652 87.0985 54.6005 87.2983 54.5951 87.4991C54.5897 87.6999 54.5437 87.8976 54.46 88.0801C54.3829 88.2652 54.2694 88.4327 54.126 88.5728C53.9827 88.7129 53.8126 88.8227 53.6259 88.8955C53.4392 88.9683 53.2397 89.0027 53.0393 88.9966C52.839 88.9906 52.642 88.9441 52.46 88.8601C52.275 88.7831 52.1074 88.6695 51.9673 88.5262C51.8272 88.3829 51.7175 88.2127 51.6446 88.026C51.5718 87.8393 51.5374 87.6398 51.5435 87.4395C51.5496 87.2391 51.596 87.0421 51.68 86.8601C51.7954 86.5926 51.9866 86.3648 52.2301 86.2048C52.4736 86.0449 52.7587 85.9598 53.05 85.9601C53.2527 85.9604 53.4533 86.0012 53.64 86.0801H53.67ZM183.34 93.4601C183.4 93.6492 183.422 93.8483 183.404 94.0458C183.386 94.2433 183.328 94.4353 183.235 94.6104C183.142 94.7855 183.015 94.9402 182.861 95.0655C182.707 95.1908 182.53 95.2842 182.34 95.3401C182.151 95.4001 181.952 95.4217 181.754 95.4037C181.557 95.3857 181.365 95.3285 181.19 95.2354C181.015 95.1422 180.86 95.0151 180.735 94.8613C180.609 94.7076 180.516 94.5304 180.46 94.3401C180.401 94.151 180.381 93.9522 180.399 93.7552C180.418 93.5581 180.476 93.3667 180.569 93.1919C180.661 93.0171 180.788 92.8625 180.941 92.7369C181.094 92.6113 181.27 92.5173 181.46 92.4601C181.606 92.4174 181.758 92.3939 181.91 92.3901C182.226 92.398 182.532 92.5057 182.784 92.6979C183.035 92.8901 183.219 93.1569 183.31 93.4601H183.34ZM49.2 99.2601C49.5824 99.3422 49.918 99.5694 50.1362 99.894C50.3545 100.218 50.4383 100.615 50.37 101C50.3306 101.193 50.2536 101.377 50.1434 101.54C50.0331 101.703 49.8918 101.843 49.7274 101.952C49.563 102.06 49.3788 102.136 49.1854 102.173C48.992 102.211 48.793 102.21 48.6 102.17C48.4069 102.131 48.2235 102.054 48.0602 101.944C47.8969 101.833 47.757 101.692 47.6483 101.528C47.5397 101.363 47.4645 101.179 47.427 100.986C47.3895 100.792 47.3906 100.593 47.43 100.4C47.4971 100.062 47.6792 99.7578 47.9454 99.539C48.2116 99.3203 48.5454 99.2005 48.89 99.2001L49.2 99.2601ZM186.2 107.39C186.239 107.785 186.12 108.18 185.869 108.487C185.618 108.794 185.255 108.99 184.86 109.03C184.664 109.051 184.466 109.033 184.277 108.976C184.089 108.92 183.913 108.827 183.76 108.702C183.608 108.578 183.482 108.424 183.389 108.25C183.296 108.077 183.239 107.886 183.22 107.69C183.199 107.494 183.218 107.296 183.274 107.108C183.33 106.919 183.423 106.743 183.548 106.591C183.673 106.438 183.826 106.312 184 106.219C184.174 106.126 184.364 106.069 184.56 106.05H184.71C185.075 106.058 185.424 106.198 185.693 106.445C185.962 106.691 186.131 107.027 186.17 107.39H186.2ZM49 114.57V114.63V114.72C49 115.117 48.8437 115.498 48.5648 115.781C48.286 116.063 47.907 116.225 47.51 116.23C47.1112 116.23 46.7287 116.072 46.4458 115.791C46.1629 115.51 46.0026 115.129 46 114.73V114.65V114.57C46 114.172 46.158 113.791 46.4393 113.509C46.7206 113.228 47.1022 113.07 47.5 113.07C47.8978 113.07 48.2794 113.228 48.5607 113.509C48.842 113.791 49 114.172 49 114.57ZM184.84 120C185.036 120.019 185.227 120.076 185.401 120.169C185.576 120.262 185.73 120.388 185.855 120.54C185.981 120.692 186.075 120.868 186.132 121.057C186.19 121.246 186.209 121.444 186.19 121.64C186.15 122.035 185.954 122.398 185.647 122.649C185.339 122.9 184.945 123.019 184.55 122.98C184.354 122.961 184.163 122.904 183.989 122.811C183.814 122.719 183.66 122.593 183.535 122.44C183.409 122.288 183.315 122.112 183.258 121.924C183.2 121.735 183.181 121.537 183.2 121.34C183.237 120.971 183.41 120.628 183.685 120.379C183.961 120.129 184.319 119.991 184.69 119.99H184.84V120ZM50.39 128.3C50.4524 128.678 50.3667 129.066 50.1507 129.383C49.9346 129.699 49.6049 129.92 49.23 130C49.0376 130.041 48.8389 130.043 48.6455 130.007C48.4521 129.971 48.2679 129.897 48.1033 129.789C47.9387 129.681 47.7972 129.542 47.6867 129.379C47.5763 129.216 47.4993 129.033 47.46 128.84C47.419 128.647 47.4165 128.448 47.4526 128.254C47.4887 128.06 47.5628 127.875 47.6705 127.709C47.7783 127.544 47.9176 127.402 48.0806 127.29C48.2435 127.179 48.4268 127.101 48.62 127.06H48.93C49.2746 127.06 49.6084 127.18 49.8746 127.399C50.1408 127.618 50.3229 127.922 50.39 128.26V128.3ZM182.39 133.69C182.771 133.808 183.09 134.072 183.278 134.424C183.465 134.776 183.506 135.188 183.39 135.57C183.333 135.76 183.239 135.936 183.113 136.089C182.988 136.242 182.833 136.369 182.658 136.462C182.483 136.555 182.292 136.612 182.095 136.631C181.898 136.649 181.699 136.629 181.51 136.57C181.129 136.452 180.81 136.189 180.622 135.836C180.435 135.484 180.394 135.072 180.51 134.69C180.614 134.395 180.808 134.14 181.065 133.961C181.321 133.781 181.627 133.687 181.94 133.69C182.08 133.655 182.225 133.641 182.37 133.65L182.39 133.69ZM54.49 141.23C54.574 141.412 54.6204 141.609 54.6265 141.809C54.6326 142.01 54.5982 142.209 54.5254 142.396C54.4525 142.583 54.3428 142.753 54.2027 142.896C54.0626 143.039 53.895 143.153 53.71 143.23C53.5278 143.313 53.331 143.358 53.131 143.363C52.9311 143.369 52.732 143.334 52.5457 143.261C52.3593 143.189 52.1894 143.08 52.0459 142.94C51.9024 142.801 51.7882 142.634 51.71 142.45C51.6274 142.268 51.5821 142.071 51.5767 141.871C51.5714 141.671 51.606 141.472 51.6787 141.286C51.7514 141.099 51.8606 140.93 51.9999 140.786C52.1393 140.643 52.3059 140.528 52.49 140.45C52.6802 140.371 52.8841 140.33 53.09 140.33C53.387 140.321 53.6797 140.402 53.9296 140.563C54.1796 140.724 54.3749 140.956 54.49 141.23ZM177.18 146.56C177.517 146.754 177.765 147.07 177.874 147.443C177.982 147.816 177.941 148.217 177.76 148.56C177.565 148.895 177.248 149.142 176.876 149.25C176.504 149.358 176.104 149.319 175.76 149.14C175.423 148.947 175.174 148.631 175.064 148.258C174.954 147.886 174.992 147.485 175.17 147.14C175.302 146.907 175.494 146.712 175.726 146.577C175.958 146.442 176.222 146.37 176.49 146.37C176.732 146.376 176.969 146.441 177.18 146.56ZM61.18 153.11C61.4057 153.437 61.4934 153.84 61.4242 154.231C61.3549 154.622 61.1342 154.971 60.81 155.2C60.483 155.426 60.0803 155.514 59.689 155.444C59.2978 155.375 58.9496 155.154 58.72 154.83C58.4943 154.503 58.4066 154.1 58.4758 153.709C58.5451 153.318 58.7658 152.97 59.09 152.74C59.3425 152.565 59.6425 152.47 59.95 152.47C60.183 152.477 60.4112 152.539 60.6162 152.65C60.8211 152.761 60.9971 152.919 61.13 153.11H61.18ZM169.53 158.11C169.68 158.239 169.803 158.395 169.893 158.572C169.982 158.748 170.036 158.94 170.05 159.137C170.065 159.334 170.041 159.532 169.979 159.719C169.917 159.907 169.819 160.081 169.69 160.23C169.562 160.38 169.406 160.503 169.231 160.592C169.056 160.681 168.865 160.735 168.668 160.75C168.472 160.765 168.275 160.741 168.088 160.679C167.901 160.617 167.729 160.519 167.58 160.39C167.43 160.263 167.307 160.107 167.218 159.931C167.129 159.756 167.075 159.565 167.06 159.368C167.046 159.172 167.07 158.975 167.131 158.788C167.193 158.602 167.291 158.429 167.42 158.28C167.559 158.113 167.733 157.979 167.93 157.887C168.128 157.795 168.343 157.749 168.56 157.75C168.903 157.774 169.228 157.915 169.48 158.15L169.53 158.11ZM70 163.41C70.289 163.683 70.4577 164.06 70.4689 164.458C70.4802 164.855 70.3331 165.241 70.06 165.53C69.9246 165.675 69.7618 165.791 69.5812 165.872C69.4005 165.954 69.2055 165.999 69.0075 166.004C68.8095 166.01 68.6123 165.976 68.4273 165.905C68.2424 165.834 68.0734 165.727 67.93 165.59C67.6491 165.309 67.4913 164.928 67.4913 164.53C67.4913 164.133 67.6491 163.751 67.93 163.47C68.0675 163.324 68.2331 163.207 68.417 163.126C68.6009 163.045 68.7992 163.002 69 163C69.3725 163.009 69.7287 163.155 70 163.41ZM159.6 167.97C159.844 168.285 159.953 168.683 159.904 169.079C159.856 169.474 159.653 169.834 159.34 170.08C159.024 170.323 158.625 170.43 158.229 170.38C157.834 170.329 157.475 170.124 157.23 169.81C156.988 169.496 156.881 169.098 156.931 168.704C156.982 168.311 157.186 167.953 157.5 167.71C157.763 167.505 158.086 167.392 158.42 167.39C158.654 167.391 158.884 167.446 159.093 167.552C159.301 167.658 159.482 167.811 159.62 168L159.6 167.97ZM80.77 171.73C80.9377 171.834 81.0832 171.971 81.1981 172.131C81.313 172.292 81.3951 172.473 81.4397 172.665C81.4843 172.858 81.4905 173.057 81.458 173.252C81.4254 173.446 81.3547 173.633 81.25 173.8C81.1468 173.967 81.0115 174.113 80.8518 174.228C80.6922 174.342 80.5114 174.424 80.3199 174.469C80.1285 174.514 79.93 174.52 79.7361 174.488C79.5422 174.455 79.3566 174.385 79.19 174.28C79.0223 174.176 78.8768 174.04 78.7619 173.879C78.647 173.719 78.5648 173.537 78.5203 173.345C78.4757 173.152 78.4695 172.953 78.502 172.759C78.5346 172.564 78.6053 172.377 78.71 172.21C78.8458 171.991 79.0359 171.81 79.2619 171.686C79.4879 171.562 79.7421 171.498 80 171.5C80.2793 171.504 80.5524 171.583 80.79 171.73H80.77ZM148 175.62C148.087 175.797 148.138 175.989 148.15 176.185C148.162 176.381 148.136 176.578 148.072 176.764C148.007 176.95 147.907 177.121 147.776 177.268C147.646 177.415 147.487 177.535 147.31 177.62C147.134 177.707 146.943 177.759 146.747 177.772C146.551 177.785 146.355 177.759 146.169 177.696C145.983 177.633 145.811 177.533 145.664 177.404C145.517 177.274 145.396 177.116 145.31 176.94C145.137 176.584 145.111 176.175 145.238 175.8C145.366 175.426 145.636 175.116 145.99 174.94C146.196 174.842 146.422 174.791 146.65 174.79C146.93 174.787 147.206 174.864 147.444 175.011C147.683 175.158 147.876 175.369 148 175.62ZM93 177.71C93.3702 177.849 93.6704 178.129 93.8352 178.489C94 178.849 94.0161 179.259 93.88 179.63C93.8131 179.815 93.7102 179.985 93.5772 180.13C93.4443 180.275 93.284 180.392 93.1055 180.475C92.9269 180.558 92.7338 180.605 92.5372 180.612C92.3406 180.62 92.1444 180.589 91.96 180.52C91.775 180.453 91.605 180.35 91.46 180.217C91.315 180.084 91.1977 179.924 91.1149 179.746C91.0322 179.567 90.9856 179.374 90.9779 179.177C90.9702 178.981 91.0015 178.785 91.07 178.6C91.1719 178.308 91.3624 178.054 91.6152 177.875C91.8679 177.696 92.1702 177.6 92.48 177.6C92.6582 177.608 92.8339 177.645 93 177.71ZM135.05 180.71C135.147 181.096 135.089 181.505 134.886 181.847C134.684 182.19 134.355 182.439 133.97 182.54C133.585 182.641 133.177 182.584 132.834 182.384C132.491 182.183 132.241 181.855 132.14 181.47C132.043 181.084 132.101 180.676 132.304 180.333C132.506 179.99 132.835 179.741 133.22 179.64C133.344 179.608 133.472 179.591 133.6 179.59C133.94 179.59 134.27 179.704 134.537 179.915C134.803 180.125 134.991 180.42 135.07 180.75L135.05 180.71ZM106.17 181.05C106.563 181.11 106.916 181.321 107.154 181.639C107.392 181.958 107.494 182.357 107.44 182.75C107.411 182.945 107.343 183.133 107.241 183.302C107.139 183.471 107.005 183.618 106.846 183.735C106.688 183.852 106.507 183.937 106.316 183.984C106.124 184.031 105.925 184.04 105.73 184.01C105.535 183.982 105.348 183.916 105.179 183.815C105.01 183.714 104.863 183.581 104.746 183.423C104.629 183.265 104.544 183.085 104.497 182.894C104.449 182.703 104.44 182.505 104.47 182.31C104.521 181.954 104.698 181.628 104.97 181.393C105.242 181.158 105.59 181.029 105.95 181.03L106.17 181.05ZM121.34 183.13C121.352 183.327 121.325 183.524 121.26 183.71C121.194 183.897 121.093 184.068 120.96 184.214C120.828 184.36 120.668 184.479 120.489 184.562C120.311 184.646 120.117 184.693 119.92 184.7C119.723 184.712 119.526 184.685 119.34 184.62C119.154 184.555 118.982 184.453 118.836 184.321C118.69 184.188 118.572 184.028 118.488 183.849C118.405 183.671 118.358 183.477 118.35 183.28C118.339 183.084 118.368 182.887 118.433 182.701C118.499 182.516 118.601 182.345 118.733 182.199C118.865 182.053 119.024 181.935 119.202 181.851C119.38 181.767 119.573 181.719 119.77 181.71H119.85C120.243 181.707 120.621 181.859 120.903 182.132C121.186 182.405 121.35 182.778 121.36 183.17L121.34 183.13Z" fill="url(#paint19_linear_817_1831)"/>
<path d="M116.27 72.4399C124.603 72.438 132.75 74.9072 139.679 79.5353C146.609 84.1634 152.01 90.7425 155.201 98.4406C158.391 106.139 159.227 114.61 157.602 122.783C155.978 130.956 151.966 138.464 146.074 144.357C140.183 150.25 132.676 154.263 124.503 155.89C116.331 157.516 107.859 156.682 100.16 153.494C92.4614 150.306 85.881 144.906 81.2513 137.977C76.6215 131.049 74.1504 122.903 74.1504 114.57C74.1636 103.402 78.6052 92.6954 86.5011 84.7977C94.3969 76.8999 105.103 72.4558 116.27 72.4399ZM116.27 156.19C124.505 156.192 132.555 153.752 139.403 149.178C146.25 144.605 151.587 138.103 154.74 130.496C157.892 122.888 158.717 114.517 157.111 106.441C155.505 98.3644 151.54 90.9457 145.717 85.1231C139.895 79.3004 132.476 75.3353 124.4 73.7294C116.323 72.1234 107.952 72.9486 100.345 76.1007C92.7374 79.2529 86.2357 84.5902 81.6621 91.4378C77.0885 98.2853 74.6484 106.335 74.6504 114.57C74.6636 125.604 79.0528 136.183 86.8552 143.985C94.6576 151.788 105.236 156.177 116.27 156.19Z" fill="url(#paint20_linear_817_1831)"/>
</g>
<defs>
<linearGradient id="paint0_linear_817_1831" x1="206.87" y1="226.51" x2="8.48969" y2="-18.6" gradientUnits="userSpaceOnUse">
<stop stop-color="#00FFF0"/>
<stop offset="0.36" stop-color="#02E4F2"/>
<stop offset="0.75" stop-color="#03CDF3"/>
<stop offset="1" stop-color="#04C4F4"/>
</linearGradient>
<linearGradient id="paint1_linear_817_1831" x1="206.869" y1="226.51" x2="8.48905" y2="-18.6002" gradientUnits="userSpaceOnUse">
<stop stop-color="#004DDB"/>
<stop offset="0.32" stop-color="#027EE5"/>
<stop offset="0.61" stop-color="#03A4ED"/>
<stop offset="0.85" stop-color="#04BBF2"/>
<stop offset="1" stop-color="#04C4F4"/>
</linearGradient>
<linearGradient id="paint2_linear_817_1831" x1="206.87" y1="226.51" x2="8.49" y2="-18.6" gradientUnits="userSpaceOnUse">
<stop stop-color="#00FFF0"/>
<stop offset="0.36" stop-color="#02E4F2"/>
<stop offset="0.75" stop-color="#03CDF3"/>
<stop offset="1" stop-color="#04C4F4"/>
</linearGradient>
<linearGradient id="paint3_linear_817_1831" x1="206.87" y1="226.51" x2="8.48953" y2="-18.6" gradientUnits="userSpaceOnUse">
<stop stop-color="#004DDB"/>
<stop offset="0.32" stop-color="#027EE5"/>
<stop offset="0.61" stop-color="#03A4ED"/>
<stop offset="0.85" stop-color="#04BBF2"/>
<stop offset="1" stop-color="#04C4F4"/>
</linearGradient>
<linearGradient id="paint4_linear_817_1831" x1="206.87" y1="226.51" x2="8.48953" y2="-18.6002" gradientUnits="userSpaceOnUse">
<stop stop-color="#004DDB"/>
<stop offset="0.32" stop-color="#027EE5"/>
<stop offset="0.61" stop-color="#03A4ED"/>
<stop offset="0.85" stop-color="#04BBF2"/>
<stop offset="1" stop-color="#04C4F4"/>
</linearGradient>
<linearGradient id="paint5_linear_817_1831" x1="206.87" y1="226.51" x2="8.48979" y2="-18.6" gradientUnits="userSpaceOnUse">
<stop stop-color="#004DDB"/>
<stop offset="0.32" stop-color="#027EE5"/>
<stop offset="0.61" stop-color="#03A4ED"/>
<stop offset="0.85" stop-color="#04BBF2"/>
<stop offset="1" stop-color="#04C4F4"/>
</linearGradient>
<linearGradient id="paint6_linear_817_1831" x1="206.899" y1="226.49" x2="8.51916" y2="-18.6202" gradientUnits="userSpaceOnUse">
<stop stop-color="#004DDB"/>
<stop offset="0.32" stop-color="#027EE5"/>
<stop offset="0.61" stop-color="#03A4ED"/>
<stop offset="0.85" stop-color="#04BBF2"/>
<stop offset="1" stop-color="#04C4F4"/>
</linearGradient>
<linearGradient id="paint7_linear_817_1831" x1="211.37" y1="222.87" x2="12.9797" y2="-22.2401" gradientUnits="userSpaceOnUse">
<stop stop-color="#00FFF0"/>
<stop offset="0.36" stop-color="#02E4F2"/>
<stop offset="0.75" stop-color="#03CDF3"/>
<stop offset="1" stop-color="#04C4F4"/>
</linearGradient>
<linearGradient id="paint8_linear_817_1831" x1="170.09" y1="256.28" x2="-28.2899" y2="11.1702" gradientUnits="userSpaceOnUse">
<stop stop-color="#00FFF0"/>
<stop offset="0.36" stop-color="#02E4F2"/>
<stop offset="0.75" stop-color="#03CDF3"/>
<stop offset="1" stop-color="#04C4F4"/>
</linearGradient>
<linearGradient id="paint9_linear_817_1831" x1="258.13" y1="185.02" x2="59.75" y2="-60.0901" gradientUnits="userSpaceOnUse">
<stop stop-color="#00FFF0"/>
<stop offset="0.36" stop-color="#02E4F2"/>
<stop offset="0.75" stop-color="#03CDF3"/>
<stop offset="1" stop-color="#04C4F4"/>
</linearGradient>
<linearGradient id="paint10_linear_817_1831" x1="224.841" y1="211.97" x2="26.4506" y2="-33.14" gradientUnits="userSpaceOnUse">
<stop stop-color="#004DDB"/>
<stop offset="0.32" stop-color="#027EE5"/>
<stop offset="0.61" stop-color="#03A4ED"/>
<stop offset="0.85" stop-color="#04BBF2"/>
<stop offset="1" stop-color="#04C4F4"/>
</linearGradient>
<linearGradient id="paint11_linear_817_1831" x1="181.201" y1="247.28" x2="-17.1793" y2="2.18018" gradientUnits="userSpaceOnUse">
<stop stop-color="#004DDB"/>
<stop offset="0.32" stop-color="#027EE5"/>
<stop offset="0.61" stop-color="#03A4ED"/>
<stop offset="0.85" stop-color="#04BBF2"/>
<stop offset="1" stop-color="#04C4F4"/>
</linearGradient>
<linearGradient id="paint12_linear_817_1831" x1="206.86" y1="226.51" x2="8.48033" y2="-18.5899" gradientUnits="userSpaceOnUse">
<stop stop-color="#00FFF0"/>
<stop offset="0.36" stop-color="#02E4F2"/>
<stop offset="0.75" stop-color="#03CDF3"/>
<stop offset="1" stop-color="#04C4F4"/>
</linearGradient>
<linearGradient id="paint13_linear_817_1831" x1="271.561" y1="174.15" x2="73.1707" y2="-70.9498" gradientUnits="userSpaceOnUse">
<stop stop-color="#004DDB"/>
<stop offset="0.32" stop-color="#027EE5"/>
<stop offset="0.61" stop-color="#03A4ED"/>
<stop offset="0.85" stop-color="#04BBF2"/>
<stop offset="1" stop-color="#04C4F4"/>
</linearGradient>
<linearGradient id="paint14_linear_817_1831" x1="263.63" y1="180.57" x2="65.2499" y2="-64.5399" gradientUnits="userSpaceOnUse">
<stop stop-color="#004DDB"/>
<stop offset="0.32" stop-color="#027EE5"/>
<stop offset="0.61" stop-color="#03A4ED"/>
<stop offset="0.85" stop-color="#04BBF2"/>
<stop offset="1" stop-color="#04C4F4"/>
</linearGradient>
<linearGradient id="paint15_linear_817_1831" x1="223.95" y1="212.68" x2="25.57" y2="-32.43" gradientUnits="userSpaceOnUse">
<stop stop-color="#004DDB"/>
<stop offset="0.32" stop-color="#027EE5"/>
<stop offset="0.61" stop-color="#03A4ED"/>
<stop offset="0.85" stop-color="#04BBF2"/>
<stop offset="1" stop-color="#04C4F4"/>
</linearGradient>
<linearGradient id="paint16_linear_817_1831" x1="122.799" y1="294.56" x2="-75.5909" y2="49.4499" gradientUnits="userSpaceOnUse">
<stop stop-color="#004DDB"/>
<stop offset="0.32" stop-color="#027EE5"/>
<stop offset="0.61" stop-color="#03A4ED"/>
<stop offset="0.85" stop-color="#04BBF2"/>
<stop offset="1" stop-color="#04C4F4"/>
</linearGradient>
<linearGradient id="paint17_linear_817_1831" x1="142.26" y1="278.81" x2="-56.1305" y2="33.6999" gradientUnits="userSpaceOnUse">
<stop stop-color="#004DDB"/>
<stop offset="0.32" stop-color="#027EE5"/>
<stop offset="0.61" stop-color="#03A4ED"/>
<stop offset="0.85" stop-color="#04BBF2"/>
<stop offset="1" stop-color="#04C4F4"/>
</linearGradient>
<linearGradient id="paint18_linear_817_1831" x1="206.65" y1="226.69" x2="8.25984" y2="-18.42" gradientUnits="userSpaceOnUse">
<stop stop-color="#004DDB"/>
<stop offset="0.32" stop-color="#027EE5"/>
<stop offset="0.61" stop-color="#03A4ED"/>
<stop offset="0.85" stop-color="#04BBF2"/>
<stop offset="1" stop-color="#04C4F4"/>
</linearGradient>
<linearGradient id="paint19_linear_817_1831" x1="206.93" y1="226.46" x2="8.54002" y2="-18.6399" gradientUnits="userSpaceOnUse">
<stop stop-color="#004DDB"/>
<stop offset="0.32" stop-color="#027EE5"/>
<stop offset="0.61" stop-color="#03A4ED"/>
<stop offset="0.85" stop-color="#04BBF2"/>
<stop offset="1" stop-color="#04C4F4"/>
</linearGradient>
<linearGradient id="paint20_linear_817_1831" x1="206.87" y1="226.51" x2="8.49039" y2="-18.6001" gradientUnits="userSpaceOnUse">
<stop stop-color="#004DDB"/>
<stop offset="0.32" stop-color="#027EE5"/>
<stop offset="0.61" stop-color="#03A4ED"/>
<stop offset="0.85" stop-color="#04BBF2"/>
<stop offset="1" stop-color="#04C4F4"/>
</linearGradient>
<clipPath id="clip0_817_1831">
<rect width="232.58" height="237.51" fill="white"/>
</clipPath>
</defs>
</svg>
