<svg width="333" height="239" viewBox="0 0 333 239" fill="none" xmlns="http://www.w3.org/2000/svg">
<g clip-path="url(#clip0_817_1400)">
<path d="M216.69 139.98C225.576 139.98 232.78 132.776 232.78 123.89C232.78 115.004 225.576 107.8 216.69 107.8C207.803 107.8 200.6 115.004 200.6 123.89C200.6 132.776 207.803 139.98 216.69 139.98Z" fill="url(#paint0_linear_817_1400)"/>
<path d="M221.32 156.65L219.92 146.75L220.709 146.62L222.459 156.47L221.32 156.65ZM210.979 156.48C210.599 156.42 210.22 156.34 209.84 156.26L211.91 146.48L212.689 146.63L210.979 156.48ZM232.24 153.09L227.53 144.27L228.24 143.88L233.24 152.54L232.24 153.09ZM200.17 152.56L199.17 151.97L204.469 143.49L205.16 143.9L200.17 152.56ZM241.28 146.01L233.84 139.33C234.02 139.13 234.2 138.93 234.37 138.72L242.04 145.15C241.79 145.44 241.56 145.73 241.28 146.01ZM191.37 145.19C191.13 144.9 190.88 144.6 190.65 144.3L198.51 138.12L199.02 138.75L191.37 145.19ZM247.37 136.29L238.1 132.53L238.39 131.78L247.78 135.2C247.65 135.57 247.56 135.93 247.37 136.29ZM185.61 135.29C185.48 134.93 185.349 134.56 185.229 134.2L194.729 131.09C194.819 131.35 194.9 131.6 195 131.85L185.61 135.29ZM249.75 125.06L239.75 124.73C239.75 124.46 239.75 124.19 239.75 123.92V123.79H249.75V123.9C249.77 124.27 249.76 124.65 249.75 125.03V125.06ZM183.6 123.97C183.6 123.61 183.6 123.24 183.6 122.88L193.6 123.2C193.6 123.46 193.6 123.71 193.6 123.97H183.6ZM238.6 116.71C238.52 116.45 238.43 116.19 238.33 115.94L247.719 112.49C247.849 112.85 247.98 113.21 248.1 113.57L238.6 116.71ZM194.949 116.06L185.54 112.67C185.67 112.3 185.809 111.94 185.959 111.58L195.24 115.31C195.15 115.53 195.059 115.79 194.969 116.03L194.949 116.06ZM234.81 109.64L234.3 109.02L241.93 102.56C242.18 102.85 242.43 103.15 242.66 103.46L234.81 109.64ZM198.939 109.13L191.28 102.7C191.52 102.41 191.77 102.12 192.03 101.84L199.469 108.51C199.309 108.68 199.139 108.89 198.959 109.1L198.939 109.13ZM228.82 104.29L228.14 103.88L233.14 95.2101C233.48 95.4001 233.81 95.6002 234.14 95.8102L228.82 104.29ZM205.07 103.95L200.07 95.3002L201.07 94.7402L205.78 103.56C205.56 103.66 205.32 103.79 205.09 103.92L205.07 103.95ZM221.4 101.32C221.14 101.26 220.87 101.21 220.61 101.17L222.31 91.3102L223.439 91.5302L221.4 101.32ZM212.59 101.19L210.83 91.3502L211.969 91.1602L213.38 101.06L212.59 101.19Z" fill="url(#paint1_linear_817_1400)"/>
<path d="M155.69 230.66L155.26 230.41C129.687 215.645 110.273 192.178 100.561 164.29L100.391 163.81L156.121 144.43L156.281 144.91C161.349 159.428 171.468 171.641 184.791 179.32L185.22 179.57L155.69 230.66ZM101.69 164.43C111.321 191.735 130.348 214.725 155.371 229.29L183.881 179.93C170.706 172.203 160.668 160.09 155.521 145.71L101.69 164.43ZM277.291 103.27L277.121 102.8C272.036 88.2836 261.899 76.0805 248.561 68.4202L248.121 68.1702L277.581 17.0502L278.01 17.3002C303.611 32.0327 323.061 55.4789 332.811 83.3602L332.97 83.8302L277.291 103.27ZM249.47 67.7902C262.651 75.504 272.701 87.6063 277.861 101.98L331.681 83.2002C322.012 55.9057 302.959 32.9355 277.921 18.3902L249.47 67.7902ZM184.21 68.7902L154.561 17.7902L154.99 17.5302C173.728 6.6792 194.998 0.966763 216.651 0.97023C224.367 0.966362 232.067 1.68282 239.651 3.11024L240.141 3.21022L229.141 61.2102L228.651 61.1203C224.694 60.3748 220.677 59.9998 216.651 60.0003C205.414 59.9989 194.376 62.9619 184.651 68.5902L184.21 68.7902ZM155.96 18.1303L184.581 67.4202C194.365 61.8612 205.427 58.9423 216.681 58.9502C220.599 58.9363 224.511 59.2709 228.371 59.9502L238.95 3.95021C231.603 2.60748 224.149 1.93804 216.681 1.95021C195.375 1.93951 174.439 7.5149 155.96 18.1203V18.1303Z" fill="url(#paint2_linear_817_1400)"/>
<path d="M216.68 174.93C203.162 174.904 190.205 169.522 180.646 159.963C171.088 150.405 165.706 137.448 165.68 123.93C165.706 110.412 171.088 97.4555 180.646 87.8969C190.205 78.3383 203.162 72.9566 216.68 72.9302C230.206 72.9434 243.176 78.3192 252.745 87.8793C262.315 97.4393 267.703 110.404 267.729 123.93C267.703 137.457 262.315 150.421 252.745 159.981C243.176 169.541 230.206 174.917 216.68 174.93ZM216.68 74.8502C203.692 74.8766 191.244 80.0476 182.061 89.2311C172.877 98.4147 167.706 110.863 167.68 123.85C167.706 136.838 172.877 149.286 182.061 158.469C191.244 167.653 203.692 172.824 216.68 172.85C229.676 172.837 242.136 167.672 251.331 158.487C260.525 149.302 265.703 136.846 265.729 123.85C265.703 110.854 260.525 98.3985 251.331 89.2135C242.136 80.0285 229.676 74.8634 216.68 74.8502Z" fill="url(#paint3_linear_817_1400)"/>
<path d="M216.68 184.39C200.64 184.372 185.262 177.992 173.92 166.65C162.578 155.308 156.198 139.93 156.18 123.89C156.198 107.85 162.578 92.4726 173.92 81.1307C185.262 69.7887 200.64 63.4087 216.68 63.3901C232.72 63.4087 248.097 69.7887 259.439 81.1307C270.781 92.4726 277.161 107.85 277.18 123.89C277.161 139.93 270.781 155.308 259.439 166.65C248.097 177.992 232.72 184.372 216.68 184.39ZM216.68 64.3901C200.905 64.4087 185.782 70.6834 174.627 81.8378C163.473 92.9922 157.198 108.115 157.18 123.89C157.198 139.665 163.473 154.788 174.627 165.943C185.782 177.097 200.905 183.372 216.68 183.39C232.454 183.372 247.578 177.097 258.732 165.943C269.886 154.788 276.161 139.665 276.18 123.89C276.161 108.115 269.886 92.9922 258.732 81.8378C247.578 70.6834 232.454 64.4087 216.68 64.3901Z" fill="url(#paint4_linear_817_1400)"/>
<path d="M216.68 184.65C200.572 184.631 185.129 178.224 173.74 166.833C162.351 155.442 155.946 139.998 155.93 123.89C155.946 107.782 162.351 92.3381 173.74 80.9471C185.129 69.5562 200.572 63.1484 216.68 63.1299C232.789 63.1484 248.232 69.5558 259.623 80.9465C271.013 92.3372 277.421 107.781 277.439 123.89C277.421 139.999 271.013 155.442 259.623 166.833C248.232 178.224 232.789 184.631 216.68 184.65ZM216.68 64.1299C200.838 64.1511 185.651 70.4543 174.45 81.6572C163.249 92.86 156.948 108.048 156.93 123.89C156.948 139.731 163.249 154.918 174.45 166.119C185.652 177.32 200.839 183.621 216.68 183.64C232.522 183.624 247.712 177.324 258.915 166.123C270.119 154.921 276.421 139.733 276.439 123.89C276.421 108.046 270.119 92.8568 258.916 81.6536C247.713 70.4505 232.523 64.1484 216.68 64.1299Z" fill="url(#paint5_linear_817_1400)"/>
<path d="M210.72 227.87C210.589 227.862 210.46 227.829 210.342 227.771C210.224 227.714 210.118 227.634 210.031 227.535C209.943 227.437 209.876 227.322 209.833 227.198C209.79 227.073 209.772 226.941 209.781 226.81C209.788 226.679 209.822 226.55 209.879 226.432C209.937 226.313 210.017 226.207 210.115 226.12C210.214 226.033 210.329 225.966 210.453 225.923C210.578 225.88 210.709 225.862 210.841 225.87C210.972 225.878 211.101 225.911 211.219 225.969C211.337 226.026 211.443 226.106 211.531 226.205C211.618 226.303 211.685 226.418 211.728 226.543C211.771 226.667 211.789 226.799 211.781 226.93C211.765 227.185 211.653 227.424 211.467 227.599C211.281 227.773 211.036 227.871 210.781 227.87H210.73H210.72ZM223.72 226.8C223.701 226.536 223.787 226.276 223.96 226.075C224.132 225.875 224.377 225.75 224.641 225.73C224.904 225.711 225.165 225.797 225.365 225.969C225.566 226.142 225.69 226.386 225.71 226.65C225.73 226.914 225.644 227.174 225.471 227.375C225.299 227.576 225.054 227.7 224.791 227.72H224.71C224.466 227.708 224.234 227.607 224.059 227.436C223.883 227.264 223.777 227.035 223.76 226.79L223.72 226.8ZM196.661 226.12C196.401 226.069 196.172 225.918 196.024 225.698C195.876 225.479 195.821 225.21 195.871 224.95C195.921 224.69 196.073 224.461 196.292 224.313C196.512 224.165 196.781 224.11 197.041 224.16C197.17 224.184 197.293 224.233 197.404 224.305C197.514 224.377 197.609 224.47 197.684 224.579C197.758 224.688 197.81 224.81 197.837 224.939C197.864 225.068 197.865 225.201 197.841 225.33C197.796 225.561 197.671 225.769 197.488 225.917C197.305 226.065 197.076 226.144 196.841 226.14C196.793 226.138 196.746 226.132 196.7 226.12H196.661ZM237.581 224.92C237.524 224.661 237.572 224.391 237.715 224.168C237.857 223.945 238.082 223.787 238.341 223.73C238.469 223.702 238.602 223.7 238.732 223.724C238.861 223.747 238.985 223.796 239.095 223.868C239.206 223.939 239.302 224.032 239.376 224.141C239.451 224.249 239.503 224.371 239.531 224.5C239.584 224.759 239.533 225.028 239.389 225.249C239.244 225.47 239.019 225.625 238.76 225.68H238.551C238.334 225.671 238.126 225.592 237.959 225.455C237.791 225.318 237.672 225.13 237.621 224.92H237.581ZM183.01 222.49C182.76 222.404 182.554 222.221 182.438 221.983C182.321 221.745 182.305 221.471 182.391 221.22C182.432 221.095 182.498 220.98 182.585 220.88C182.671 220.781 182.777 220.7 182.895 220.641C183.013 220.583 183.141 220.548 183.272 220.539C183.404 220.53 183.536 220.548 183.661 220.59C183.786 220.632 183.901 220.698 184 220.784C184.1 220.871 184.181 220.976 184.24 221.094C184.298 221.212 184.333 221.341 184.342 221.472C184.35 221.603 184.333 221.735 184.291 221.86C184.221 222.067 184.086 222.246 183.905 222.368C183.724 222.491 183.509 222.551 183.291 222.54C183.209 222.532 183.128 222.515 183.051 222.49H183.01ZM251.01 221.17C250.964 221.047 250.943 220.915 250.947 220.784C250.952 220.652 250.982 220.522 251.037 220.402C251.092 220.282 251.17 220.175 251.267 220.085C251.364 219.995 251.477 219.926 251.601 219.88C251.725 219.834 251.857 219.813 251.989 219.818C252.121 219.823 252.251 219.855 252.371 219.911C252.491 219.966 252.599 220.046 252.688 220.143C252.777 220.241 252.846 220.355 252.891 220.48C252.981 220.729 252.968 221.004 252.855 221.244C252.743 221.484 252.54 221.67 252.291 221.76C252.182 221.8 252.066 221.82 251.95 221.82C251.76 221.805 251.578 221.736 251.426 221.621C251.273 221.506 251.157 221.349 251.091 221.17H251.01ZM169.931 217.02C169.693 216.902 169.513 216.694 169.428 216.443C169.344 216.192 169.363 215.917 169.48 215.68C169.6 215.445 169.809 215.266 170.06 215.184C170.311 215.101 170.584 215.121 170.821 215.24C171.058 215.358 171.239 215.566 171.323 215.817C171.407 216.068 171.388 216.343 171.271 216.58C171.187 216.746 171.058 216.886 170.899 216.983C170.74 217.081 170.557 217.131 170.371 217.13C170.244 217.118 170.122 217.081 170.01 217.02H169.931ZM263.841 215.61C263.717 215.375 263.692 215.101 263.771 214.848C263.85 214.595 264.026 214.383 264.26 214.26C264.495 214.137 264.769 214.112 265.022 214.191C265.276 214.269 265.487 214.445 265.611 214.68C265.735 214.914 265.761 215.187 265.684 215.44C265.607 215.693 265.433 215.905 265.2 216.03C265.056 216.108 264.895 216.149 264.73 216.15C264.561 216.136 264.397 216.08 264.255 215.985C264.114 215.891 263.998 215.762 263.921 215.61H263.841ZM157.771 209.84C157.552 209.69 157.402 209.46 157.353 209.199C157.304 208.938 157.361 208.669 157.51 208.45C157.66 208.231 157.891 208.081 158.152 208.032C158.412 207.983 158.682 208.04 158.901 208.19C159.119 208.34 159.27 208.571 159.318 208.831C159.367 209.092 159.31 209.361 159.161 209.58C159.069 209.716 158.945 209.827 158.801 209.904C158.656 209.98 158.494 210.02 158.331 210.02C158.158 210.003 157.992 209.941 157.851 209.84H157.771ZM275.771 208.37C275.619 208.154 275.559 207.886 275.604 207.625C275.649 207.365 275.795 207.133 276.01 206.98C276.226 206.827 276.493 206.766 276.753 206.809C277.013 206.852 277.246 206.996 277.401 207.21C277.553 207.425 277.615 207.692 277.572 207.952C277.529 208.213 277.385 208.446 277.171 208.6C277.002 208.722 276.799 208.789 276.591 208.79C276.449 208.775 276.313 208.729 276.19 208.657C276.068 208.584 275.962 208.487 275.881 208.37H275.771ZM146.661 201.08C146.465 200.902 146.347 200.654 146.334 200.39C146.321 200.125 146.413 199.867 146.591 199.67C146.769 199.474 147.017 199.357 147.281 199.344C147.545 199.331 147.804 199.423 148 199.6C148.099 199.688 148.179 199.795 148.236 199.915C148.293 200.034 148.325 200.163 148.332 200.295C148.338 200.427 148.319 200.56 148.274 200.684C148.229 200.808 148.16 200.923 148.071 201.02C147.976 201.122 147.862 201.203 147.734 201.258C147.607 201.313 147.469 201.341 147.331 201.34C147.121 201.315 146.925 201.224 146.771 201.08H146.661ZM286.661 199.58C286.474 199.393 286.37 199.139 286.37 198.875C286.37 198.611 286.474 198.357 286.661 198.17C286.754 198.076 286.864 198.002 286.986 197.951C287.108 197.9 287.239 197.874 287.371 197.874C287.503 197.874 287.633 197.9 287.755 197.951C287.877 198.002 287.988 198.076 288.081 198.17C288.174 198.263 288.249 198.374 288.299 198.495C288.35 198.617 288.376 198.748 288.376 198.88C288.376 199.012 288.35 199.143 288.299 199.265C288.249 199.386 288.174 199.497 288.081 199.59C287.895 199.769 287.648 199.869 287.391 199.87C287.153 199.852 286.929 199.749 286.76 199.58H286.661ZM136.871 190.92C136.786 190.82 136.721 190.703 136.682 190.578C136.642 190.453 136.627 190.321 136.638 190.19C136.649 190.059 136.686 189.932 136.747 189.815C136.807 189.698 136.89 189.595 136.99 189.51C137.091 189.425 137.207 189.361 137.332 189.321C137.458 189.281 137.59 189.267 137.72 189.278C137.851 189.289 137.979 189.326 138.095 189.386C138.212 189.447 138.316 189.53 138.401 189.63C138.485 189.73 138.549 189.847 138.589 189.972C138.629 190.097 138.644 190.229 138.633 190.36C138.622 190.491 138.585 190.618 138.524 190.735C138.464 190.852 138.381 190.955 138.281 191.04C138.099 191.195 137.869 191.28 137.631 191.28C137.372 191.25 137.135 191.121 136.97 190.92H136.871ZM296.26 189.41C296.158 189.328 296.072 189.225 296.009 189.11C295.946 188.994 295.906 188.867 295.892 188.736C295.878 188.605 295.891 188.473 295.928 188.346C295.965 188.22 296.028 188.102 296.111 188C296.193 187.897 296.295 187.812 296.411 187.749C296.526 187.686 296.653 187.646 296.784 187.632C296.915 187.618 297.048 187.63 297.174 187.667C297.301 187.705 297.418 187.767 297.521 187.85C297.623 187.933 297.709 188.035 297.772 188.15C297.835 188.266 297.875 188.393 297.889 188.524C297.903 188.655 297.89 188.787 297.853 188.914C297.816 189.04 297.754 189.158 297.671 189.26C297.577 189.376 297.457 189.47 297.323 189.534C297.188 189.598 297.04 189.631 296.891 189.63C296.696 189.61 296.512 189.534 296.361 189.41H296.26ZM128.531 179.53C128.46 179.419 128.413 179.295 128.39 179.166C128.368 179.037 128.371 178.904 128.4 178.776C128.428 178.648 128.482 178.526 128.558 178.419C128.634 178.312 128.73 178.22 128.841 178.15C128.952 178.08 129.075 178.032 129.205 178.01C129.334 177.987 129.467 177.99 129.595 178.019C129.723 178.048 129.844 178.102 129.951 178.177C130.059 178.253 130.15 178.349 130.22 178.46C130.291 178.571 130.339 178.695 130.361 178.824C130.384 178.954 130.38 179.086 130.351 179.214C130.323 179.342 130.269 179.464 130.193 179.571C130.117 179.678 130.022 179.77 129.911 179.84C129.75 179.944 129.562 180 129.371 180C129.22 179.983 129.075 179.932 128.946 179.85C128.818 179.769 128.71 179.659 128.631 179.53H128.531ZM304.401 178.03C304.174 177.893 304.011 177.672 303.948 177.415C303.884 177.159 303.924 176.887 304.061 176.66C304.128 176.547 304.218 176.448 304.324 176.369C304.43 176.291 304.551 176.234 304.68 176.202C304.808 176.171 304.941 176.165 305.072 176.185C305.202 176.205 305.328 176.251 305.44 176.32C305.665 176.459 305.826 176.68 305.888 176.937C305.95 177.194 305.907 177.464 305.771 177.69C305.683 177.838 305.559 177.961 305.41 178.046C305.261 178.132 305.092 178.178 304.921 178.18C304.771 178.162 304.627 178.111 304.5 178.03H304.401ZM121.801 167.12C121.692 166.879 121.684 166.604 121.778 166.357C121.872 166.109 122.06 165.909 122.301 165.8C122.541 165.691 122.814 165.682 123.062 165.773C123.309 165.865 123.51 166.051 123.621 166.29C123.676 166.41 123.707 166.539 123.713 166.67C123.718 166.802 123.697 166.933 123.652 167.057C123.606 167.18 123.537 167.294 123.448 167.39C123.358 167.487 123.25 167.565 123.131 167.62C122.998 167.678 122.855 167.709 122.71 167.71C122.535 167.692 122.369 167.627 122.226 167.524C122.084 167.42 121.972 167.281 121.901 167.12H121.801ZM310.931 165.66C310.81 165.608 310.7 165.532 310.608 165.438C310.516 165.343 310.444 165.231 310.396 165.108C310.348 164.986 310.324 164.854 310.326 164.723C310.329 164.591 310.358 164.461 310.411 164.34C310.516 164.098 310.713 163.907 310.958 163.81C311.204 163.713 311.478 163.716 311.72 163.82C311.842 163.872 311.951 163.948 312.043 164.043C312.135 164.137 312.207 164.249 312.255 164.372C312.303 164.495 312.327 164.626 312.324 164.757C312.322 164.889 312.293 165.019 312.24 165.14C312.163 165.317 312.036 165.468 311.875 165.575C311.713 165.681 311.524 165.739 311.331 165.74C311.227 165.728 311.126 165.701 311.031 165.66H310.931ZM116.831 153.91C116.792 153.784 116.779 153.652 116.792 153.52C116.805 153.389 116.843 153.262 116.906 153.146C116.968 153.03 117.052 152.927 117.155 152.844C117.257 152.76 117.374 152.698 117.5 152.66C117.627 152.622 117.759 152.608 117.89 152.621C118.021 152.634 118.149 152.673 118.265 152.735C118.381 152.797 118.484 152.882 118.567 152.984C118.65 153.086 118.713 153.204 118.75 153.33C118.789 153.456 118.802 153.589 118.789 153.72C118.776 153.851 118.738 153.978 118.676 154.094C118.613 154.211 118.529 154.313 118.427 154.397C118.324 154.48 118.207 154.542 118.081 154.58C117.984 154.594 117.887 154.594 117.791 154.58C117.598 154.564 117.414 154.491 117.261 154.373C117.109 154.254 116.994 154.093 116.931 153.91H116.831ZM315.72 152.5C315.594 152.465 315.475 152.406 315.371 152.325C315.268 152.245 315.18 152.144 315.115 152.03C315.05 151.916 315.009 151.79 314.992 151.66C314.976 151.529 314.986 151.397 315.021 151.27C315.093 151.016 315.263 150.801 315.493 150.671C315.724 150.542 315.996 150.509 316.25 150.58C316.377 150.615 316.496 150.674 316.6 150.755C316.704 150.835 316.79 150.936 316.855 151.05C316.92 151.164 316.962 151.29 316.979 151.421C316.995 151.551 316.985 151.683 316.95 151.81C316.89 152.026 316.759 152.216 316.577 152.348C316.396 152.481 316.175 152.548 315.95 152.54C315.906 152.531 315.863 152.517 315.821 152.5H315.72ZM113.72 140.14C113.701 140.01 113.707 139.877 113.738 139.75C113.77 139.622 113.826 139.502 113.904 139.396C113.982 139.29 114.08 139.2 114.193 139.133C114.306 139.065 114.43 139.02 114.561 139C114.822 138.96 115.088 139.024 115.302 139.18C115.515 139.335 115.659 139.569 115.7 139.83C115.741 140.091 115.676 140.358 115.521 140.571C115.365 140.785 115.131 140.928 114.871 140.97H114.71C114.486 140.955 114.273 140.865 114.106 140.715C113.94 140.564 113.828 140.362 113.791 140.14H113.72ZM318.72 138.83C318.458 138.795 318.22 138.658 318.059 138.448C317.898 138.238 317.827 137.973 317.861 137.71C317.878 137.579 317.921 137.453 317.987 137.339C318.053 137.225 318.141 137.125 318.246 137.045C318.351 136.965 318.471 136.906 318.599 136.873C318.727 136.84 318.86 136.832 318.99 136.85C319.253 136.887 319.49 137.027 319.649 137.239C319.809 137.451 319.878 137.717 319.841 137.98C319.807 138.22 319.686 138.44 319.502 138.598C319.318 138.756 319.083 138.842 318.841 138.84H318.7L318.72 138.83ZM112.561 126.07C112.561 125.805 112.666 125.55 112.854 125.363C113.041 125.175 113.295 125.07 113.561 125.07C113.826 125.07 114.08 125.175 114.268 125.363C114.455 125.55 114.561 125.805 114.561 126.07C114.561 126.335 114.455 126.59 114.268 126.777C114.08 126.965 113.826 127.07 113.561 127.07C113.295 127.07 113.041 126.965 112.854 126.777C112.666 126.59 112.561 126.335 112.561 126.07ZM318.841 123.89C318.841 123.625 318.946 123.37 319.134 123.183C319.321 122.995 319.575 122.89 319.841 122.89C320.106 122.89 320.36 122.995 320.548 123.183C320.735 123.37 320.841 123.625 320.841 123.89C320.841 124.155 320.735 124.41 320.548 124.597C320.36 124.785 320.106 124.89 319.841 124.89C319.708 124.891 319.577 124.866 319.455 124.817C319.332 124.767 319.221 124.694 319.127 124.601C319.033 124.508 318.959 124.397 318.908 124.275C318.857 124.153 318.831 124.022 318.831 123.89H318.841ZM318.75 119.59C318.75 119.325 318.856 119.07 319.043 118.883C319.231 118.695 319.485 118.59 319.75 118.59C320.016 118.59 320.27 118.695 320.458 118.883C320.645 119.07 320.75 119.325 320.75 119.59C320.75 119.855 320.645 120.11 320.458 120.297C320.27 120.485 320.016 120.59 319.75 120.59C319.618 120.591 319.487 120.566 319.365 120.517C319.242 120.467 319.131 120.394 319.037 120.301C318.943 120.208 318.868 120.097 318.818 119.975C318.767 119.853 318.74 119.722 318.74 119.59H318.75ZM114.101 113.08C113.97 113.065 113.843 113.025 113.728 112.961C113.613 112.897 113.512 112.811 113.43 112.708C113.348 112.605 113.288 112.486 113.252 112.36C113.216 112.233 113.205 112.101 113.22 111.97C113.251 111.708 113.383 111.468 113.589 111.303C113.795 111.139 114.058 111.062 114.321 111.09C114.451 111.105 114.578 111.146 114.693 111.209C114.808 111.273 114.909 111.359 114.991 111.462C115.073 111.565 115.133 111.684 115.169 111.81C115.205 111.937 115.216 112.069 115.2 112.2C115.171 112.444 115.053 112.668 114.868 112.831C114.684 112.993 114.446 113.082 114.2 113.08H114.091H114.101ZM317.25 105.82C317.227 105.691 317.23 105.558 317.259 105.43C317.287 105.301 317.34 105.18 317.415 105.072C317.49 104.964 317.586 104.873 317.697 104.802C317.808 104.731 317.931 104.683 318.061 104.66C318.19 104.637 318.323 104.64 318.451 104.668C318.579 104.696 318.701 104.749 318.808 104.825C318.916 104.9 319.008 104.996 319.079 105.106C319.149 105.217 319.198 105.341 319.22 105.47C319.243 105.599 319.241 105.732 319.213 105.86C319.184 105.989 319.131 106.11 319.056 106.218C318.981 106.326 318.885 106.418 318.774 106.488C318.663 106.559 318.54 106.607 318.411 106.63H318.23C317.992 106.631 317.762 106.547 317.581 106.393C317.399 106.239 317.279 106.025 317.24 105.79L317.25 105.82ZM116.49 99.3C116.363 99.2674 116.243 99.2099 116.138 99.1309C116.033 99.0519 115.944 98.9529 115.877 98.8395C115.81 98.7262 115.767 98.6007 115.748 98.4704C115.73 98.3401 115.737 98.2074 115.771 98.08C115.837 97.8247 116.001 97.6059 116.227 97.471C116.454 97.3362 116.725 97.2963 116.98 97.36C117.108 97.3927 117.228 97.4501 117.333 97.5292C117.438 97.6082 117.527 97.7072 117.594 97.8206C117.661 97.9339 117.705 98.0593 117.723 98.1896C117.741 98.32 117.734 98.4526 117.7 98.58C117.644 98.8 117.514 98.9942 117.332 99.1306C117.151 99.2669 116.928 99.3372 116.7 99.33C116.626 99.3282 116.552 99.3182 116.48 99.3H116.49ZM313.891 92.39C313.809 92.1381 313.83 91.8639 313.95 91.6276C314.07 91.3914 314.279 91.2124 314.531 91.1301C314.782 91.048 315.057 91.0693 315.293 91.1893C315.529 91.3093 315.708 91.5182 315.791 91.77C315.873 92.022 315.851 92.2962 315.731 92.5325C315.611 92.7687 315.402 92.9477 315.151 93.03C315.048 93.0444 314.943 93.0444 314.841 93.03C314.634 93.0356 314.431 92.977 314.259 92.8624C314.087 92.7478 313.955 92.5828 313.881 92.39H313.891ZM120.73 85.96C120.485 85.8602 120.29 85.6673 120.187 85.4236C120.084 85.18 120.082 84.9054 120.181 84.66C120.23 84.5375 120.303 84.426 120.396 84.3319C120.489 84.2378 120.599 84.1631 120.721 84.1119C120.843 84.0608 120.973 84.0343 121.105 84.034C121.238 84.0337 121.368 84.0595 121.49 84.11C121.735 84.2099 121.931 84.4028 122.034 84.6464C122.137 84.8901 122.139 85.1647 122.041 85.41C121.965 85.5942 121.836 85.7517 121.67 85.8621C121.504 85.9726 121.31 86.031 121.111 86.03C120.977 86.0329 120.844 86.0091 120.72 85.96H120.73ZM308.73 79.53C308.617 79.2912 308.603 79.0173 308.691 78.7681C308.779 78.5188 308.962 78.3146 309.2 78.2C309.438 78.086 309.711 78.0704 309.96 78.1565C310.209 78.2426 310.414 78.4236 310.531 78.66C310.589 78.7782 310.623 78.9066 310.631 79.038C310.639 79.1693 310.622 79.301 310.579 79.4255C310.536 79.55 310.469 79.6649 310.382 79.7635C310.295 79.8621 310.189 79.9425 310.071 80.0001C309.933 80.0665 309.783 80.1007 309.631 80.1C309.44 80.1014 309.254 80.0485 309.093 79.9475C308.931 79.8465 308.802 79.7017 308.72 79.53H308.73ZM126.73 73.33C126.502 73.1981 126.334 72.9811 126.265 72.7263C126.196 72.4715 126.23 72.1996 126.361 71.97C126.493 71.7413 126.71 71.574 126.964 71.5047C127.219 71.4354 127.491 71.4697 127.72 71.6C127.949 71.732 128.116 71.949 128.186 72.2038C128.255 72.4586 128.221 72.7304 128.091 72.96C128.003 73.1112 127.878 73.2369 127.727 73.3246C127.576 73.4123 127.405 73.459 127.23 73.46C127.062 73.4578 126.897 73.4131 126.75 73.33H126.73ZM301.851 67.5001C301.706 67.2796 301.654 67.0108 301.707 66.7524C301.759 66.4939 301.911 66.2667 302.131 66.1201C302.24 66.0468 302.363 65.996 302.492 65.9704C302.621 65.9448 302.755 65.945 302.884 65.9711C303.013 65.9971 303.136 66.0484 303.245 66.122C303.354 66.1956 303.448 66.2901 303.521 66.4C303.665 66.6205 303.717 66.8892 303.665 67.1477C303.612 67.4062 303.46 67.6334 303.24 67.78C303.079 67.8928 302.887 67.9523 302.69 67.95C302.527 67.9475 302.368 67.9053 302.225 67.8268C302.082 67.7484 301.96 67.6362 301.871 67.5001H301.851ZM134.401 61.6301C134.192 61.468 134.055 61.2296 134.021 60.9672C133.988 60.7048 134.059 60.4397 134.22 60.23C134.301 60.1251 134.401 60.0371 134.516 59.9711C134.63 59.9052 134.757 59.8626 134.888 59.8459C135.019 59.8291 135.152 59.8386 135.28 59.8736C135.407 59.9086 135.526 59.9686 135.631 60.05C135.736 60.1304 135.823 60.2307 135.889 60.3453C135.955 60.4598 135.998 60.5863 136.015 60.7175C136.031 60.8486 136.022 60.9817 135.987 61.1092C135.952 61.2366 135.892 61.3559 135.811 61.46C135.715 61.5805 135.594 61.6775 135.455 61.7434C135.316 61.8093 135.164 61.8424 135.01 61.84C134.796 61.835 134.59 61.7614 134.421 61.6301H134.401ZM293.401 56.51C293.226 56.311 293.137 56.0508 293.154 55.7864C293.171 55.5221 293.292 55.2752 293.49 55.1C293.689 54.9252 293.95 54.8365 294.214 54.8534C294.478 54.8703 294.725 54.9914 294.901 55.1901C295.075 55.3891 295.164 55.6493 295.147 55.9136C295.13 56.178 295.009 56.4249 294.811 56.6C294.628 56.7608 294.394 56.8497 294.151 56.85C294.019 56.8417 293.89 56.8074 293.771 56.749C293.653 56.6907 293.547 56.6094 293.46 56.51H293.401ZM143.551 51.08C143.364 50.8927 143.26 50.6392 143.26 50.3751C143.26 50.1109 143.364 49.8574 143.551 49.67C143.738 49.4838 143.991 49.3793 144.256 49.3793C144.52 49.3793 144.773 49.4838 144.96 49.67C145.147 49.8574 145.251 50.1109 145.251 50.3751C145.251 50.6392 145.147 50.8927 144.96 51.08C144.774 51.2648 144.523 51.369 144.26 51.3701C144.016 51.3564 143.784 51.2531 143.611 51.08H143.551ZM283.551 46.7401C283.35 46.5663 283.227 46.3201 283.209 46.0557C283.19 45.7913 283.277 45.5303 283.45 45.33C283.624 45.1299 283.87 45.007 284.135 44.9882C284.399 44.9695 284.66 45.0564 284.861 45.23C285.061 45.4038 285.184 45.65 285.202 45.9144C285.221 46.1788 285.134 46.4397 284.96 46.64C284.867 46.7498 284.75 46.838 284.619 46.8984C284.488 46.9588 284.345 46.9901 284.2 46.9901C283.998 46.9817 283.803 46.9119 283.641 46.79L283.551 46.7401ZM154.031 41.86C153.875 41.6486 153.808 41.3841 153.845 41.124C153.883 40.8639 154.021 40.629 154.23 40.47C154.336 40.3912 154.455 40.3339 154.582 40.3013C154.709 40.2687 154.842 40.2615 154.972 40.2801C155.102 40.2987 155.227 40.3426 155.34 40.4095C155.453 40.4765 155.552 40.565 155.631 40.67C155.787 40.8815 155.853 41.1459 155.816 41.4061C155.778 41.6662 155.64 41.9011 155.431 42.0601C155.258 42.1899 155.047 42.26 154.831 42.26C154.691 42.2469 154.555 42.2045 154.433 42.1356C154.311 42.0667 154.204 41.9728 154.121 41.86H154.031ZM272.5 38.3801C272.28 38.235 272.125 38.0085 272.071 37.7499C272.016 37.4913 272.067 37.2217 272.21 37.0001C272.355 36.7792 272.582 36.6247 272.841 36.5704C273.099 36.516 273.369 36.5662 273.591 36.71C273.811 36.8551 273.966 37.0816 274.02 37.3402C274.075 37.5988 274.024 37.8684 273.881 38.09C273.79 38.2309 273.666 38.3468 273.519 38.4271C273.373 38.5075 273.208 38.5498 273.041 38.55C272.869 38.5358 272.703 38.4772 272.561 38.3801H272.5ZM165.69 34.15C165.627 34.0351 165.586 33.9088 165.572 33.7783C165.557 33.6477 165.568 33.5155 165.604 33.3892C165.64 33.2629 165.701 33.145 165.782 33.0422C165.864 32.9394 165.966 32.8537 166.081 32.79C166.195 32.7263 166.322 32.6858 166.452 32.6709C166.583 32.656 166.715 32.667 166.841 32.7032C166.968 32.7394 167.086 32.8002 167.188 32.882C167.291 32.9638 167.377 33.0651 167.44 33.1801C167.504 33.2949 167.545 33.4213 167.56 33.5518C167.574 33.6824 167.564 33.8146 167.527 33.9409C167.491 34.0672 167.43 34.1851 167.349 34.2879C167.267 34.3907 167.165 34.4764 167.051 34.54C166.903 34.6196 166.738 34.6609 166.571 34.66C166.407 34.6463 166.25 34.5926 166.112 34.5037C165.974 34.4147 165.86 34.2933 165.781 34.15H165.69ZM260.421 31.59C260.182 31.4755 259.999 31.2713 259.911 31.022C259.823 30.7728 259.837 30.4988 259.95 30.26C260.065 30.0218 260.269 29.8387 260.519 29.7506C260.768 29.6625 261.042 29.6767 261.281 29.79C261.519 29.9046 261.702 30.1088 261.79 30.358C261.878 30.6073 261.864 30.8813 261.75 31.1201C261.669 31.2902 261.542 31.434 261.383 31.5349C261.224 31.6357 261.039 31.6895 260.851 31.6901C260.749 31.6728 260.651 31.639 260.561 31.59H260.421ZM178.281 28.08C178.186 27.8333 178.193 27.5592 178.299 27.3174C178.406 27.0757 178.604 26.8861 178.851 26.79C178.973 26.7416 179.104 26.7179 179.236 26.7204C179.368 26.7229 179.498 26.7514 179.619 26.8044C179.74 26.8574 179.849 26.9337 179.94 27.0291C180.032 27.1245 180.103 27.237 180.151 27.36C180.245 27.6068 180.238 27.8809 180.132 28.1226C180.025 28.3643 179.827 28.5539 179.581 28.65C179.463 28.6966 179.337 28.7203 179.21 28.72C179.025 28.7024 178.848 28.6331 178.699 28.52C178.551 28.4069 178.437 28.2545 178.371 28.08H178.281ZM247.531 26.51C247.405 26.4702 247.288 26.4061 247.188 26.3212C247.087 26.2362 247.004 26.1322 246.944 26.0151C246.883 25.8981 246.847 25.7702 246.836 25.6389C246.825 25.5076 246.84 25.3755 246.881 25.2501C246.961 24.9987 247.137 24.7893 247.372 24.6675C247.606 24.5458 247.879 24.5215 248.131 24.6C248.256 24.6398 248.373 24.704 248.473 24.7889C248.574 24.8739 248.657 24.9778 248.718 25.0949C248.778 25.212 248.815 25.3399 248.825 25.4712C248.836 25.6025 248.821 25.7346 248.781 25.86C248.717 26.0624 248.591 26.2393 248.42 26.3651C248.249 26.4909 248.043 26.5592 247.831 26.5601C247.759 26.551 247.689 26.5342 247.621 26.51H247.531ZM191.591 23.79C191.559 23.662 191.554 23.529 191.574 23.3988C191.594 23.2686 191.64 23.1436 191.709 23.0311C191.778 22.9187 191.868 22.8209 191.975 22.7435C192.081 22.6661 192.202 22.6105 192.331 22.58C192.459 22.5488 192.592 22.5432 192.722 22.5635C192.852 22.5838 192.977 22.6297 193.089 22.6984C193.202 22.7672 193.3 22.8575 193.377 22.9642C193.454 23.0709 193.51 23.1918 193.541 23.3201C193.572 23.4481 193.577 23.5811 193.557 23.7113C193.537 23.8415 193.491 23.9665 193.422 24.0789C193.353 24.1914 193.263 24.2892 193.156 24.3666C193.05 24.444 192.929 24.4995 192.801 24.53H192.571C192.364 24.5142 192.167 24.4345 192.008 24.3019C191.848 24.1693 191.734 23.9904 191.681 23.79H191.591ZM234.071 23.23C233.811 23.1836 233.581 23.0368 233.429 22.8215C233.278 22.6062 233.217 22.3397 233.26 22.08C233.305 21.8189 233.45 21.586 233.666 21.4323C233.882 21.2786 234.149 21.2166 234.411 21.26C234.541 21.2818 234.665 21.3291 234.777 21.3994C234.889 21.4696 234.986 21.5613 235.062 21.6691C235.138 21.777 235.193 21.8989 235.221 22.0278C235.25 22.1567 235.253 22.29 235.23 22.42C235.19 22.6548 235.067 22.8675 234.884 23.0197C234.7 23.1718 234.469 23.2535 234.23 23.2501L234.071 23.23ZM205.361 21.34C205.336 21.0762 205.416 20.8131 205.585 20.6088C205.754 20.4044 205.997 20.2754 206.26 20.2501C206.524 20.225 206.787 20.3057 206.992 20.4744C207.196 20.6432 207.325 20.8862 207.351 21.15C207.376 21.4139 207.295 21.6769 207.126 21.8813C206.957 22.0857 206.714 22.2147 206.45 22.2401H206.361C206.128 22.2201 205.909 22.1191 205.743 21.9547C205.576 21.7903 205.473 21.5728 205.45 21.34H205.361ZM220.301 21.8101C220.035 21.8101 219.781 21.7047 219.594 21.5172C219.406 21.3296 219.301 21.0753 219.301 20.8101C219.301 20.5448 219.406 20.2904 219.594 20.1029C219.781 19.9154 220.035 19.8101 220.301 19.8101C220.566 19.8101 220.82 19.9154 221.008 20.1029C221.195 20.2904 221.301 20.5448 221.301 20.8101C221.301 21.0753 221.195 21.3296 221.008 21.5172C220.82 21.7047 220.566 21.8101 220.301 21.8101Z" fill="url(#paint6_linear_817_1400)"/>
<path d="M246.26 205.05L242.83 195.66C255.418 191.056 266.576 183.229 275.19 172.96L282.85 179.39C273.11 190.999 260.493 199.847 246.26 205.05Z" fill="url(#paint7_linear_817_1400)"/>
<path d="M291.49 167.07L282.84 162.07C289.534 150.464 293.056 137.299 293.05 123.9V123.72H303.05V123.9C303.053 139.055 299.066 153.944 291.49 167.07Z" fill="url(#paint8_linear_817_1400)"/>
<path d="M135.56 153.5C132.103 144.011 130.34 133.989 130.35 123.89C130.349 118.896 130.777 113.911 131.63 108.99L141.49 110.7C140.729 115.056 140.347 119.469 140.35 123.89C140.336 132.82 141.897 141.682 144.96 150.07L135.56 153.5Z" fill="url(#paint9_linear_817_1400)"/>
<path d="M145.18 98.4901L134.84 94.7401L135.01 94.2701C140.216 79.943 149.096 67.2354 160.76 57.4201L161.14 57.1001L168.23 65.5101L167.85 65.8401C157.663 74.4129 149.904 85.5092 145.35 98.0201L145.18 98.4901ZM136.12 94.1401L144.58 97.2101C149.159 84.8807 156.815 73.9271 166.82 65.3901L161.02 58.5101C149.81 68.0625 141.237 80.3299 136.12 94.1401Z" fill="url(#paint10_linear_817_1400)"/>
<path d="M178.41 57.7898L173.41 49.1398C186.524 41.5464 201.407 37.542 216.56 37.5298V47.5298C203.163 47.5389 190.005 51.0777 178.41 57.7898Z" fill="url(#paint11_linear_817_1400)"/>
<path d="M216.681 219.09C206.621 219.1 196.623 217.514 187.061 214.39L188 211.54C197.26 214.564 206.94 216.1 216.681 216.09C241.126 216.064 264.563 206.342 281.85 189.057C299.137 171.772 308.862 148.336 308.891 123.89V123.68H311.891V123.87C311.864 149.114 301.825 173.317 283.976 191.168C266.126 209.019 241.925 219.061 216.681 219.09ZM169.131 206.38C154.667 197.999 142.655 185.971 134.293 171.496C125.932 157.021 121.514 140.606 121.48 123.89C121.491 110.527 124.309 97.3161 129.753 85.1124C135.197 72.9088 143.144 61.9854 153.081 53.0503L155.081 55.2802C145.456 63.9333 137.757 74.5127 132.484 86.3322C127.211 98.1518 124.481 110.948 124.47 123.89C124.502 140.083 128.781 155.983 136.881 170.004C144.981 184.025 156.619 195.675 170.631 203.79L169.131 206.38ZM306.901 104.79C302.458 84.1422 291.087 65.6345 274.676 52.3394C258.265 39.0444 237.801 31.7616 216.681 31.7002C200.454 31.6887 184.512 35.9665 170.47 44.1002L168.96 41.5003C183.462 33.1053 199.924 28.6897 216.681 28.7002C238.683 28.7125 260.005 36.3332 277.031 50.2702C293.759 63.9999 305.328 83.0047 309.841 104.17L306.901 104.79Z" fill="url(#paint12_linear_817_1400)"/>
<path d="M216.73 238.45H216.68C203.587 238.467 190.588 236.234 178.25 231.85L180.08 226.69C191.83 230.865 204.21 232.992 216.68 232.98L216.73 238.45Z" fill="url(#paint13_linear_817_1400)"/>
<path d="M102.119 123.99V123.89C102.1 110.81 104.329 97.8245 108.709 85.5L113.859 87.33C109.684 99.0666 107.553 111.433 107.559 123.89L102.119 123.99Z" fill="url(#paint14_linear_817_1400)"/>
<path d="M122.141 69.4299L117.391 66.6899C123.949 55.3352 132.405 45.1884 142.391 36.6899L145.94 40.8599C136.431 48.9512 128.381 58.6148 122.141 69.4299Z" fill="url(#paint15_linear_817_1400)"/>
<path d="M299.689 53.0898C291.588 43.5908 281.918 35.5511 271.1 29.3198L273.84 24.5698C285.195 31.1269 295.342 39.5828 303.84 49.5698L299.689 53.0898Z" fill="url(#paint16_linear_817_1400)"/>
<path d="M253.189 21.0499C241.466 16.8962 229.117 14.7823 216.679 14.7999H216.529V9.31994H216.659C229.728 9.30113 242.702 11.5233 255.019 15.8899L253.189 21.0499Z" fill="url(#paint17_linear_817_1400)"/>
<path d="M216.68 223.79C203.556 223.826 190.556 221.26 178.43 216.239C166.305 211.219 155.296 203.843 146.04 194.54L145.689 194.19L163.25 176.62L163.6 176.98C170.554 183.973 178.826 189.518 187.937 193.295C197.048 197.071 206.817 199.003 216.68 198.98C224.303 198.989 231.884 197.836 239.16 195.56L239.64 195.41L247.06 219.11L246.59 219.26C236.907 222.278 226.822 223.806 216.68 223.79ZM147.11 194.18C156.258 203.286 167.11 210.499 179.047 215.408C190.985 220.317 203.772 222.826 216.68 222.79C226.553 222.802 236.372 221.332 245.81 218.43L238.979 196.64C231.752 198.847 224.237 199.966 216.68 199.96C196.67 200.015 177.455 192.132 163.25 178.04L147.11 194.18ZM291.229 114.91L291.16 114.41C289.467 100.793 284.058 87.9041 275.526 77.1567C266.994 66.4094 255.668 58.2179 242.79 53.48L242.32 53.3L250.959 30.02L251.43 30.1901C268.571 36.5026 283.645 47.4101 295 61.7182C306.355 76.0263 313.555 93.1832 315.81 111.31L315.87 111.81L291.229 114.91ZM243.61 52.71C256.467 57.5425 267.769 65.7782 276.308 76.5366C284.847 87.2949 290.302 100.172 292.09 113.79L314.75 110.94C312.449 93.1756 305.35 76.3743 294.214 62.3436C283.078 48.3128 268.328 37.5836 251.55 31.3101L243.61 52.71Z" fill="url(#paint18_linear_817_1400)"/>
<path d="M213.159 194.07C212.763 194.049 212.391 193.873 212.125 193.578C211.859 193.284 211.72 192.896 211.739 192.5C211.748 192.303 211.796 192.11 211.88 191.931C211.964 191.753 212.082 191.592 212.228 191.459C212.374 191.327 212.544 191.224 212.73 191.157C212.915 191.09 213.112 191.061 213.309 191.07C213.506 191.078 213.7 191.125 213.879 191.208C214.057 191.292 214.217 191.41 214.35 191.556C214.482 191.702 214.584 191.874 214.649 192.06C214.714 192.246 214.741 192.443 214.729 192.64C214.714 193.025 214.55 193.389 214.272 193.655C213.994 193.922 213.624 194.07 213.239 194.07H213.159ZM225.649 192.07C225.62 191.875 225.628 191.676 225.676 191.484C225.723 191.293 225.807 191.113 225.924 190.954C226.042 190.795 226.189 190.661 226.358 190.559C226.527 190.457 226.714 190.389 226.909 190.36C227.104 190.33 227.303 190.339 227.495 190.386C227.686 190.434 227.867 190.518 228.026 190.635C228.185 190.752 228.319 190.9 228.421 191.069C228.522 191.238 228.59 191.425 228.619 191.62C228.651 191.815 228.643 192.013 228.597 192.205C228.551 192.396 228.467 192.577 228.351 192.736C228.235 192.895 228.088 193.029 227.92 193.131C227.751 193.233 227.564 193.301 227.369 193.33H227.139C226.784 193.333 226.44 193.21 226.167 192.983C225.894 192.756 225.711 192.44 225.649 192.09V192.07ZM199.109 191.92C198.724 191.819 198.395 191.57 198.193 191.227C197.991 190.885 197.932 190.476 198.029 190.09C198.13 189.706 198.38 189.377 198.723 189.176C199.066 188.976 199.475 188.92 199.859 189.02C200.243 189.119 200.572 189.366 200.775 189.707C200.977 190.048 201.036 190.456 200.939 190.84C200.855 191.162 200.668 191.447 200.406 191.651C200.144 191.855 199.822 191.968 199.489 191.97C199.362 191.975 199.234 191.965 199.109 191.94V191.92ZM239.189 188.92C239.12 188.736 239.089 188.541 239.096 188.345C239.103 188.148 239.149 187.956 239.23 187.777C239.312 187.599 239.428 187.438 239.572 187.305C239.716 187.172 239.885 187.068 240.069 187C240.442 186.861 240.855 186.875 241.216 187.04C241.578 187.205 241.86 187.508 241.999 187.88C242.138 188.253 242.124 188.665 241.959 189.027C241.794 189.389 241.492 189.671 241.119 189.81C240.952 189.869 240.776 189.899 240.599 189.9C240.289 189.901 239.987 189.805 239.734 189.625C239.482 189.446 239.291 189.193 239.189 188.9V188.92ZM185.779 187.03C185.423 186.856 185.151 186.547 185.022 186.172C184.892 185.798 184.917 185.387 185.089 185.03C185.266 184.676 185.575 184.406 185.949 184.278C186.324 184.151 186.734 184.177 187.089 184.35C187.266 184.436 187.423 184.557 187.553 184.704C187.682 184.851 187.782 185.023 187.845 185.209C187.908 185.395 187.934 185.591 187.921 185.787C187.908 185.983 187.856 186.174 187.769 186.35C187.648 186.603 187.458 186.815 187.221 186.964C186.984 187.113 186.709 187.191 186.429 187.19C186.202 187.18 185.98 187.118 185.779 187.01V187.03ZM251.779 183.03C251.674 182.863 251.604 182.676 251.571 182.482C251.539 182.287 251.545 182.088 251.59 181.895C251.634 181.703 251.716 181.522 251.831 181.361C251.946 181.201 252.091 181.064 252.259 180.96C252.426 180.856 252.611 180.785 252.805 180.753C252.999 180.72 253.198 180.727 253.389 180.771C253.581 180.816 253.761 180.898 253.921 181.013C254.081 181.128 254.216 181.273 254.319 181.44C254.424 181.606 254.495 181.791 254.528 181.985C254.562 182.178 254.556 182.376 254.513 182.568C254.469 182.759 254.388 182.94 254.274 183.1C254.16 183.26 254.016 183.396 253.849 183.5C253.61 183.652 253.332 183.732 253.049 183.73C252.801 183.727 252.558 183.663 252.342 183.542C252.125 183.422 251.942 183.249 251.809 183.04L251.779 183.03ZM173.679 179.48C173.368 179.235 173.165 178.878 173.114 178.485C173.064 178.093 173.17 177.696 173.409 177.38C173.53 177.223 173.68 177.092 173.851 176.994C174.023 176.895 174.212 176.831 174.408 176.806C174.604 176.781 174.803 176.795 174.994 176.847C175.185 176.899 175.363 176.989 175.519 177.11C175.833 177.353 176.037 177.711 176.088 178.104C176.139 178.498 176.031 178.896 175.789 179.21C175.648 179.391 175.467 179.537 175.261 179.637C175.055 179.738 174.829 179.79 174.599 179.79C174.278 179.787 173.967 179.682 173.709 179.49L173.679 179.48ZM262.959 174.74C262.822 174.598 262.715 174.431 262.643 174.247C262.571 174.063 262.537 173.867 262.541 173.67C262.546 173.472 262.59 173.278 262.67 173.098C262.75 172.918 262.866 172.755 263.009 172.62C263.29 172.339 263.672 172.181 264.069 172.181C264.467 172.181 264.848 172.339 265.129 172.62C265.411 172.903 265.569 173.286 265.569 173.685C265.569 174.084 265.411 174.467 265.129 174.75C264.856 175.003 264.501 175.149 264.129 175.16C263.924 175.181 263.717 175.158 263.52 175.095C263.324 175.031 263.143 174.927 262.989 174.79L262.959 174.74ZM163.369 169.69C163.112 169.389 162.984 168.997 163.014 168.602C163.044 168.207 163.229 167.839 163.529 167.58C163.679 167.451 163.852 167.353 164.04 167.291C164.228 167.229 164.425 167.205 164.622 167.22C164.819 167.235 165.011 167.288 165.188 167.377C165.364 167.467 165.521 167.59 165.649 167.74C165.778 167.889 165.876 168.061 165.938 168.248C166 168.435 166.024 168.632 166.009 168.828C165.994 169.025 165.94 169.216 165.851 169.391C165.762 169.567 165.639 169.723 165.489 169.85C165.214 170.095 164.857 170.227 164.489 170.22C164.281 170.214 164.077 170.164 163.89 170.075C163.702 169.985 163.535 169.858 163.399 169.7L163.369 169.69ZM272.249 164.38C272.087 164.269 271.948 164.127 271.841 163.961C271.735 163.796 271.662 163.611 271.628 163.418C271.593 163.224 271.598 163.026 271.641 162.834C271.684 162.642 271.765 162.46 271.879 162.3C271.99 162.138 272.133 162 272.298 161.893C272.462 161.786 272.647 161.713 272.84 161.677C273.034 161.642 273.232 161.645 273.424 161.687C273.616 161.729 273.798 161.808 273.959 161.92C274.285 162.148 274.508 162.496 274.579 162.887C274.65 163.278 274.564 163.682 274.339 164.01C274.201 164.208 274.017 164.369 273.803 164.481C273.589 164.592 273.351 164.65 273.109 164.65C272.812 164.651 272.522 164.56 272.279 164.39L272.249 164.38ZM155.249 158.04C155.066 157.697 155.023 157.296 155.132 156.922C155.24 156.548 155.491 156.232 155.829 156.04C156.173 155.862 156.573 155.822 156.945 155.93C157.318 156.038 157.634 156.285 157.829 156.62C158.01 156.964 158.051 157.364 157.943 157.737C157.835 158.11 157.586 158.427 157.249 158.62C157.026 158.743 156.775 158.809 156.519 158.81C156.263 158.802 156.014 158.727 155.795 158.594C155.576 158.461 155.395 158.274 155.269 158.05L155.249 158.04ZM279.249 152.37C279.063 152.294 278.895 152.181 278.754 152.038C278.612 151.895 278.502 151.725 278.428 151.539C278.354 151.352 278.319 151.152 278.324 150.951C278.33 150.75 278.375 150.553 278.459 150.37C278.536 150.185 278.65 150.017 278.793 149.877C278.936 149.737 279.107 149.628 279.293 149.555C279.48 149.482 279.679 149.448 279.88 149.454C280.08 149.46 280.277 149.506 280.459 149.59C280.644 149.667 280.812 149.781 280.952 149.924C281.092 150.067 281.202 150.237 281.275 150.424C281.347 150.611 281.382 150.81 281.376 151.011C281.37 151.211 281.323 151.408 281.239 151.59C281.124 151.858 280.933 152.085 280.689 152.245C280.446 152.405 280.161 152.49 279.869 152.49C279.677 152.489 279.487 152.452 279.309 152.38L279.249 152.37ZM149.579 144.99C149.519 144.801 149.498 144.602 149.516 144.404C149.534 144.207 149.591 144.015 149.684 143.84C149.777 143.665 149.904 143.51 150.058 143.385C150.212 143.259 150.389 143.166 150.579 143.11C150.768 143.05 150.967 143.029 151.165 143.047C151.362 143.064 151.554 143.122 151.729 143.215C151.904 143.308 152.059 143.435 152.185 143.589C152.31 143.743 152.403 143.92 152.459 144.11C152.518 144.299 152.538 144.498 152.52 144.695C152.501 144.892 152.444 145.084 152.351 145.258C152.258 145.433 152.131 145.588 151.978 145.713C151.825 145.839 151.649 145.933 151.459 145.99C151.313 146.033 151.162 146.056 151.009 146.06C150.699 146.047 150.401 145.938 150.156 145.748C149.91 145.558 149.73 145.297 149.639 145L149.579 144.99ZM283.689 139.19C283.301 139.108 282.96 138.877 282.741 138.545C282.522 138.214 282.442 137.81 282.519 137.42C282.559 137.227 282.635 137.044 282.746 136.88C282.856 136.717 282.997 136.577 283.162 136.468C283.326 136.36 283.51 136.285 283.704 136.247C283.897 136.21 284.096 136.211 284.289 136.25C284.482 136.289 284.666 136.366 284.829 136.477C284.992 136.587 285.132 136.728 285.241 136.893C285.35 137.057 285.425 137.241 285.462 137.435C285.5 137.628 285.499 137.827 285.459 138.02C285.392 138.358 285.21 138.662 284.944 138.881C284.678 139.1 284.344 139.22 283.999 139.22L283.689 139.19ZM146.689 131.06C146.65 130.665 146.769 130.271 147.02 129.963C147.272 129.656 147.634 129.461 148.029 129.42C148.225 129.399 148.423 129.418 148.612 129.474C148.8 129.53 148.976 129.623 149.129 129.748C149.281 129.873 149.408 130.026 149.5 130.2C149.593 130.374 149.651 130.564 149.669 130.76C149.69 130.956 149.672 131.154 149.615 131.343C149.559 131.531 149.466 131.707 149.341 131.86C149.217 132.012 149.063 132.138 148.889 132.231C148.716 132.324 148.525 132.381 148.329 132.4H148.179C147.827 132.379 147.493 132.234 147.237 131.99C146.981 131.747 146.819 131.421 146.779 131.07L146.689 131.06ZM283.859 123.88V123.79C283.859 123.393 284.015 123.012 284.294 122.729C284.573 122.447 284.952 122.285 285.349 122.28C285.748 122.28 286.131 122.438 286.413 122.719C286.696 123 286.857 123.381 286.859 123.78V123.86V123.94C286.859 124.338 286.701 124.719 286.42 125.001C286.139 125.282 285.757 125.44 285.359 125.44C284.968 125.417 284.602 125.242 284.339 124.952C284.075 124.662 283.935 124.281 283.949 123.89L283.859 123.88ZM148.019 118.49C147.823 118.471 147.632 118.414 147.458 118.321C147.284 118.229 147.129 118.103 147.004 117.95C146.878 117.798 146.784 117.622 146.727 117.434C146.67 117.245 146.65 117.046 146.669 116.85C146.71 116.455 146.905 116.092 147.212 115.841C147.52 115.59 147.914 115.471 148.309 115.51C148.506 115.529 148.697 115.586 148.871 115.679C149.045 115.772 149.199 115.898 149.325 116.05C149.45 116.202 149.544 116.378 149.601 116.567C149.659 116.755 149.679 116.954 149.659 117.15C149.622 117.52 149.449 117.862 149.174 118.112C148.899 118.361 148.541 118.5 148.169 118.5H148.019V118.49ZM282.469 110.19C282.428 109.998 282.426 109.799 282.462 109.606C282.498 109.412 282.572 109.228 282.68 109.063C282.788 108.899 282.928 108.757 283.09 108.647C283.253 108.536 283.436 108.459 283.629 108.42C283.822 108.379 284.02 108.377 284.214 108.413C284.407 108.449 284.591 108.523 284.756 108.631C284.921 108.739 285.062 108.879 285.173 109.041C285.283 109.204 285.36 109.387 285.399 109.58C285.44 109.773 285.443 109.972 285.407 110.166C285.37 110.36 285.296 110.546 285.189 110.711C285.081 110.876 284.942 111.019 284.779 111.13C284.616 111.242 284.432 111.32 284.239 111.36H283.929C283.606 111.342 283.297 111.219 283.05 111.01C282.803 110.8 282.63 110.516 282.559 110.2L282.469 110.19ZM150.559 104.79C150.178 104.672 149.859 104.409 149.672 104.056C149.484 103.704 149.444 103.292 149.559 102.91C149.616 102.721 149.71 102.544 149.836 102.391C149.962 102.238 150.116 102.112 150.291 102.019C150.466 101.926 150.657 101.868 150.854 101.85C151.051 101.831 151.25 101.852 151.439 101.91C151.82 102.028 152.14 102.292 152.327 102.644C152.514 102.996 152.555 103.408 152.439 103.79C152.343 104.094 152.153 104.36 151.896 104.549C151.639 104.738 151.328 104.84 151.009 104.84C150.857 104.848 150.706 104.831 150.559 104.79ZM278.439 97.2101C278.355 97.0281 278.309 96.8311 278.303 96.6307C278.297 96.4304 278.331 96.2309 278.404 96.0442C278.477 95.8575 278.586 95.6874 278.726 95.5441C278.867 95.4007 279.034 95.2871 279.219 95.2101C279.401 95.1275 279.598 95.0822 279.798 95.0768C279.998 95.0715 280.197 95.1062 280.383 95.1788C280.57 95.2515 280.74 95.3607 280.883 95.5001C281.027 95.6394 281.141 95.806 281.219 95.9901C281.302 96.1723 281.347 96.3691 281.352 96.5691C281.358 96.769 281.323 96.9681 281.251 97.1544C281.178 97.3408 281.069 97.5107 280.929 97.6542C280.79 97.7978 280.623 97.9119 280.439 97.9901C280.249 98.0691 280.045 98.1098 279.839 98.1101C279.548 98.1167 279.261 98.0366 279.016 97.8799C278.77 97.7233 278.576 97.4971 278.459 97.2301L278.439 97.2101ZM155.749 91.8801C155.412 91.6867 155.164 91.3701 155.056 90.9971C154.947 90.6241 154.988 90.2237 155.169 89.8801C155.365 89.5452 155.681 89.2982 156.053 89.1902C156.426 89.0822 156.825 89.1216 157.169 89.3001C157.506 89.4937 157.755 89.8094 157.865 90.1819C157.975 90.5543 157.937 90.9548 157.759 91.3001C157.627 91.5336 157.435 91.7278 157.203 91.863C156.971 91.9983 156.708 92.0698 156.439 92.0701C156.205 92.0675 155.976 92.0092 155.769 91.9001L155.749 91.8801ZM271.799 85.3301C271.574 85.0031 271.486 84.6003 271.555 84.2091C271.624 83.8179 271.845 83.4697 272.169 83.2401C272.496 83.0144 272.899 82.9267 273.29 82.996C273.681 83.0652 274.03 83.2859 274.259 83.6101C274.485 83.9371 274.573 84.3398 274.503 84.7311C274.434 85.1223 274.214 85.4704 273.889 85.7001C273.637 85.8755 273.337 85.9697 273.029 85.9701C272.793 85.9701 272.56 85.914 272.35 85.8061C272.139 85.6983 271.957 85.542 271.819 85.3501L271.799 85.3301ZM163.449 80.3301C163.299 80.2016 163.176 80.0449 163.087 79.8687C162.997 79.6924 162.944 79.5003 162.929 79.3033C162.914 79.1064 162.938 78.9084 163 78.7208C163.062 78.5332 163.16 78.3596 163.289 78.2101C163.417 78.0603 163.573 77.9373 163.748 77.8481C163.924 77.759 164.115 77.7054 164.311 77.6905C164.507 77.6756 164.704 77.6998 164.891 77.7615C165.078 77.8232 165.251 77.9213 165.399 78.0501C165.549 78.1777 165.672 78.3336 165.761 78.509C165.85 78.6843 165.904 78.8756 165.919 79.0718C165.934 79.2679 165.91 79.4651 165.848 79.6519C165.786 79.8387 165.688 80.0114 165.559 80.1601C165.42 80.3272 165.246 80.4615 165.049 80.5531C164.852 80.6447 164.637 80.6916 164.419 80.6901C164.068 80.6787 163.731 80.5442 163.469 80.3101L163.449 80.3301ZM262.909 75.0701C262.62 74.7969 262.452 74.4201 262.44 74.0225C262.429 73.625 262.576 73.2392 262.849 72.9501C262.985 72.8055 263.147 72.6892 263.328 72.6078C263.509 72.5265 263.704 72.4817 263.902 72.4761C264.1 72.4706 264.297 72.5043 264.482 72.5753C264.667 72.6464 264.836 72.7533 264.979 72.8901C265.26 73.1713 265.418 73.5526 265.418 73.9501C265.418 74.3476 265.26 74.7288 264.979 75.0101C264.839 75.1589 264.671 75.2775 264.483 75.3583C264.296 75.4392 264.093 75.4806 263.889 75.4801C263.528 75.4565 263.187 75.3039 262.929 75.0501L262.909 75.0701ZM173.309 70.5101C173.066 70.1951 172.956 69.7968 173.005 69.4016C173.054 69.0064 173.256 68.6465 173.569 68.4001C173.885 68.1576 174.285 68.0499 174.68 68.1005C175.075 68.151 175.434 68.3558 175.679 68.6701C175.921 68.9847 176.029 69.3823 175.978 69.7759C175.927 70.1695 175.723 70.527 175.409 70.7701C175.146 70.9754 174.823 71.088 174.489 71.0901C174.263 71.0847 174.041 71.0279 173.84 70.9239C173.639 70.82 173.464 70.6716 173.329 70.4901L173.309 70.5101ZM252.139 66.7501C251.972 66.646 251.826 66.5097 251.711 66.3492C251.596 66.1887 251.514 66.0071 251.469 65.8148C251.425 65.6224 251.419 65.4232 251.451 65.2285C251.484 65.0338 251.555 64.8475 251.659 64.6801C251.763 64.5128 251.898 64.3675 252.057 64.2527C252.217 64.1379 252.398 64.0558 252.589 64.0112C252.781 63.9665 252.979 63.9602 253.173 63.9927C253.367 64.0251 253.553 64.0956 253.719 64.2001C253.887 64.3042 254.032 64.4405 254.147 64.601C254.262 64.7615 254.344 64.9431 254.389 65.1354C254.434 65.3277 254.44 65.527 254.407 65.7217C254.375 65.9164 254.304 66.1027 254.199 66.2701C254.065 66.4865 253.878 66.6652 253.656 66.7894C253.434 66.9136 253.184 66.9792 252.929 66.9801C252.655 66.9669 252.389 66.8806 252.159 66.7301L252.139 66.7501ZM184.929 62.8601C184.843 62.6836 184.791 62.4917 184.779 62.2954C184.767 62.0991 184.793 61.9023 184.858 61.7164C184.922 61.5304 185.022 61.3591 185.153 61.2121C185.283 61.0651 185.442 60.9455 185.619 60.8601C185.795 60.7729 185.986 60.7214 186.182 60.7084C186.378 60.6954 186.575 60.7212 186.761 60.7844C186.946 60.8476 187.118 60.9469 187.265 61.0766C187.413 61.2063 187.533 61.3638 187.619 61.5401C187.793 61.8958 187.818 62.3055 187.691 62.6801C187.564 63.0547 187.293 63.3638 186.939 63.5401C186.733 63.6381 186.508 63.6894 186.279 63.6901C186 63.6872 185.727 63.606 185.492 63.4557C185.257 63.3054 185.069 63.0921 184.949 62.8401L184.929 62.8601ZM239.929 60.7701C239.559 60.6307 239.259 60.3508 239.094 59.9912C238.929 59.6316 238.913 59.2215 239.049 58.8501C239.116 58.6651 239.219 58.4951 239.352 58.3501C239.485 58.2051 239.645 58.0877 239.824 58.005C240.002 57.9223 240.195 57.8757 240.392 57.868C240.589 57.8603 240.785 57.8916 240.969 57.9601C241.154 58.027 241.324 58.1299 241.469 58.2629C241.614 58.3958 241.732 58.5562 241.814 58.7347C241.897 58.9132 241.944 59.1063 241.951 59.3029C241.959 59.4995 241.928 59.6957 241.859 59.8801C241.757 60.1727 241.567 60.4262 241.314 60.6055C241.061 60.7847 240.759 60.8807 240.449 60.8801C240.272 60.8786 240.097 60.8481 239.929 60.7901V60.7701ZM197.929 57.7701C197.832 57.3843 197.891 56.9757 198.093 56.633C198.295 56.2903 198.624 56.0413 199.009 55.9401C199.394 55.8396 199.803 55.8958 200.146 56.0964C200.489 56.2971 200.738 56.6257 200.839 57.0101C200.937 57.3959 200.878 57.8045 200.676 58.1472C200.473 58.4899 200.144 58.7389 199.759 58.8401C199.633 58.8554 199.505 58.8554 199.379 58.8401C199.038 58.8488 198.705 58.7419 198.432 58.5367C198.16 58.3315 197.965 58.0401 197.879 57.7101L197.929 57.7701ZM226.809 57.4301C226.417 57.3707 226.063 57.159 225.825 56.8408C225.588 56.5226 225.485 56.1235 225.539 55.7301C225.569 55.535 225.636 55.3476 225.738 55.1786C225.84 55.0096 225.974 54.8623 226.133 54.7453C226.292 54.6283 226.472 54.5437 226.663 54.4965C226.855 54.4492 227.054 54.4403 227.249 54.4701C227.444 54.4982 227.631 54.5646 227.8 54.6654C227.969 54.7662 228.116 54.8996 228.233 55.0576C228.35 55.2157 228.435 55.3953 228.483 55.5862C228.53 55.7772 228.539 55.9756 228.509 56.1701C228.458 56.5261 228.281 56.8518 228.009 57.0871C227.737 57.3223 227.389 57.4512 227.029 57.4501L226.809 57.4301ZM211.559 55.2901C211.547 55.0933 211.574 54.896 211.64 54.7098C211.705 54.5237 211.807 54.3525 211.939 54.2062C212.071 54.06 212.231 53.9416 212.41 53.8582C212.588 53.7747 212.782 53.7277 212.979 53.7201C213.176 53.708 213.373 53.7353 213.559 53.8005C213.746 53.8657 213.917 53.9674 214.063 54.0997C214.209 54.232 214.328 54.3921 214.411 54.5708C214.495 54.7495 214.542 54.943 214.549 55.1401C214.56 55.3366 214.532 55.5334 214.466 55.7189C214.4 55.9045 214.298 56.0751 214.166 56.2211C214.034 56.3671 213.875 56.4855 213.697 56.5694C213.519 56.6533 213.326 56.7011 213.129 56.7101H213.049C212.667 56.7081 212.299 56.5599 212.022 56.296C211.745 56.032 211.58 55.6722 211.559 55.2901Z" fill="url(#paint19_linear_817_1400)"/>
<path d="M216.681 166.01C205.514 165.997 194.808 161.555 186.912 153.659C179.016 145.763 174.574 135.057 174.561 123.89C174.579 112.727 179.023 102.026 186.919 94.1342C194.815 86.2424 205.517 81.8033 216.681 81.79C227.849 81.8006 238.557 86.2414 246.456 94.1378C254.354 102.034 258.797 112.741 258.811 123.91C258.789 135.074 254.343 145.775 246.446 153.666C238.549 161.558 227.845 165.997 216.681 166.01ZM216.681 82.27C205.646 82.2833 195.068 86.6725 187.265 94.4749C179.463 102.277 175.074 112.856 175.061 123.89C175.074 134.924 179.463 145.503 187.265 153.305C195.068 161.108 205.646 165.497 216.681 165.51C227.717 165.499 238.298 161.111 246.102 153.309C253.907 145.506 258.297 134.926 258.311 123.89C258.297 112.854 253.907 102.274 246.102 94.4713C238.298 86.6686 227.717 82.2806 216.681 82.27Z" fill="url(#paint20_linear_817_1400)"/>
<path opacity="0.15" d="M113.67 16.3599H0V24.9099H121.35C118.951 21.9195 116.387 19.0651 113.67 16.3599Z" fill="url(#paint21_linear_817_1400)"/>
<path d="M120.919 25.0401L105.209 9.33012H0.359375V8.12012H105.709L121.779 24.1801L120.919 25.0401Z" fill="url(#paint22_linear_817_1400)"/>
<path d="M154.029 32.9801L138.319 17.2701H0.359375V16.0601H138.819L154.879 32.1301L154.029 32.9801Z" fill="url(#paint23_linear_817_1400)"/>
<path d="M116.929 40.9298L101.219 25.2198H0.359375V24.0098H101.719L117.789 40.0698L116.929 40.9298Z" fill="url(#paint24_linear_817_1400)"/>
<path d="M121.331 36.52H113.381V44.47H121.331V36.52Z" fill="url(#paint25_linear_817_1400)"/>
<path d="M156.19 28.5801H148.24V36.5301H156.19V28.5801Z" fill="url(#paint26_linear_817_1400)"/>
<path d="M122.501 20.6401H114.551V28.5901H122.501V20.6401Z" fill="url(#paint27_linear_817_1400)"/>
<path d="M88.5005 37.6799H85.1406V36.4699H88.5005C90.0432 36.4673 91.5221 35.8532 92.613 34.7623C93.7039 33.6714 94.3179 32.1926 94.3206 30.6499V11.7899C94.3258 8.90333 95.475 6.13646 97.5161 4.09534C99.5572 2.05421 102.324 0.905189 105.21 0.899902H124.631V2.10992H105.21C102.649 2.1205 100.196 3.1447 98.3879 4.95862C96.5796 6.77254 95.5632 9.22862 95.5605 11.7899V30.6199C95.5685 31.5493 95.3915 32.4709 95.0396 33.3311C94.6876 34.1913 94.1677 34.9728 93.5105 35.6299C92.8533 36.2871 92.0718 36.8069 91.2117 37.1588C90.3515 37.5108 89.4298 37.6879 88.5005 37.6799Z" fill="url(#paint28_linear_817_1400)"/>
<path d="M126.17 1.52997C126.17 1.9384 126.007 2.33009 125.719 2.6189C125.43 2.9077 125.038 3.07001 124.63 3.07001C124.223 3.06737 123.834 2.90394 123.547 2.61542C123.26 2.3269 123.1 1.93667 123.1 1.52997C123.102 1.125 123.264 0.737353 123.551 0.450989C123.837 0.164624 124.225 0.00262126 124.63 3.42766e-10C125.036 -8.57427e-06 125.427 0.160863 125.715 0.44751C126.004 0.734156 126.167 1.12327 126.17 1.52997Z" fill="url(#paint29_linear_817_1400)"/>
<path d="M86.6697 37.0701C86.6697 37.4768 86.5088 37.8669 86.2222 38.1555C85.9355 38.444 85.5463 38.6074 85.1396 38.61C84.7312 38.61 84.3393 38.4478 84.0505 38.159C83.7617 37.8702 83.5996 37.4785 83.5996 37.0701C83.6023 36.6634 83.7657 36.2742 84.0542 35.9875C84.3427 35.7009 84.7329 35.54 85.1396 35.54C85.5446 35.5427 85.9321 35.7047 86.2185 35.9911C86.5049 36.2775 86.6671 36.6651 86.6697 37.0701Z" fill="url(#paint30_linear_817_1400)"/>
</g>
<defs>
<linearGradient id="paint0_linear_817_1400" x1="126.08" y1="11.9398" x2="324.47" y2="257.05" gradientUnits="userSpaceOnUse">
<stop stop-color="#00FFF0"/>
<stop offset="0.36" stop-color="#02E4F2"/>
<stop offset="0.75" stop-color="#03CDF3"/>
<stop offset="1" stop-color="#04C4F4"/>
</linearGradient>
<linearGradient id="paint1_linear_817_1400" x1="126.08" y1="11.9402" x2="324.46" y2="257.05" gradientUnits="userSpaceOnUse">
<stop stop-color="#004DDB"/>
<stop offset="0.32" stop-color="#027EE5"/>
<stop offset="0.61" stop-color="#03A4ED"/>
<stop offset="0.85" stop-color="#04BBF2"/>
<stop offset="1" stop-color="#04C4F4"/>
</linearGradient>
<linearGradient id="paint2_linear_817_1400" x1="126.081" y1="11.9402" x2="324.461" y2="257.05" gradientUnits="userSpaceOnUse">
<stop stop-color="#00FFF0"/>
<stop offset="0.36" stop-color="#02E4F2"/>
<stop offset="0.75" stop-color="#03CDF3"/>
<stop offset="1" stop-color="#04C4F4"/>
</linearGradient>
<linearGradient id="paint3_linear_817_1400" x1="126.08" y1="11.9402" x2="324.46" y2="257.05" gradientUnits="userSpaceOnUse">
<stop stop-color="#004DDB"/>
<stop offset="0.32" stop-color="#027EE5"/>
<stop offset="0.61" stop-color="#03A4ED"/>
<stop offset="0.85" stop-color="#04BBF2"/>
<stop offset="1" stop-color="#04C4F4"/>
</linearGradient>
<linearGradient id="paint4_linear_817_1400" x1="126.08" y1="11.9401" x2="324.46" y2="257.05" gradientUnits="userSpaceOnUse">
<stop stop-color="#004DDB"/>
<stop offset="0.32" stop-color="#027EE5"/>
<stop offset="0.61" stop-color="#03A4ED"/>
<stop offset="0.85" stop-color="#04BBF2"/>
<stop offset="1" stop-color="#04C4F4"/>
</linearGradient>
<linearGradient id="paint5_linear_817_1400" x1="126.08" y1="11.9399" x2="324.46" y2="257.05" gradientUnits="userSpaceOnUse">
<stop stop-color="#004DDB"/>
<stop offset="0.32" stop-color="#027EE5"/>
<stop offset="0.61" stop-color="#03A4ED"/>
<stop offset="0.85" stop-color="#04BBF2"/>
<stop offset="1" stop-color="#04C4F4"/>
</linearGradient>
<linearGradient id="paint6_linear_817_1400" x1="126.051" y1="11.9701" x2="324.441" y2="257.07" gradientUnits="userSpaceOnUse">
<stop stop-color="#004DDB"/>
<stop offset="0.32" stop-color="#027EE5"/>
<stop offset="0.61" stop-color="#03A4ED"/>
<stop offset="0.85" stop-color="#04BBF2"/>
<stop offset="1" stop-color="#04C4F4"/>
</linearGradient>
<linearGradient id="paint7_linear_817_1400" x1="121.59" y1="15.5798" x2="319.97" y2="260.69" gradientUnits="userSpaceOnUse">
<stop stop-color="#00FFF0"/>
<stop offset="0.36" stop-color="#02E4F2"/>
<stop offset="0.75" stop-color="#03CDF3"/>
<stop offset="1" stop-color="#04C4F4"/>
</linearGradient>
<linearGradient id="paint8_linear_817_1400" x1="162.86" y1="-17.8299" x2="361.25" y2="227.28" gradientUnits="userSpaceOnUse">
<stop stop-color="#00FFF0"/>
<stop offset="0.36" stop-color="#02E4F2"/>
<stop offset="0.75" stop-color="#03CDF3"/>
<stop offset="1" stop-color="#04C4F4"/>
</linearGradient>
<linearGradient id="paint9_linear_817_1400" x1="74.8202" y1="53.4302" x2="273.201" y2="298.538" gradientUnits="userSpaceOnUse">
<stop stop-color="#00FFF0"/>
<stop offset="0.36" stop-color="#02E4F2"/>
<stop offset="0.75" stop-color="#03CDF3"/>
<stop offset="1" stop-color="#04C4F4"/>
</linearGradient>
<linearGradient id="paint10_linear_817_1400" x1="108.12" y1="26.4801" x2="306.5" y2="271.589" gradientUnits="userSpaceOnUse">
<stop stop-color="#004DDB"/>
<stop offset="0.32" stop-color="#027EE5"/>
<stop offset="0.61" stop-color="#03A4ED"/>
<stop offset="0.85" stop-color="#04BBF2"/>
<stop offset="1" stop-color="#04C4F4"/>
</linearGradient>
<linearGradient id="paint11_linear_817_1400" x1="151.75" y1="-8.83024" x2="350.13" y2="236.269" gradientUnits="userSpaceOnUse">
<stop stop-color="#004DDB"/>
<stop offset="0.32" stop-color="#027EE5"/>
<stop offset="0.61" stop-color="#03A4ED"/>
<stop offset="0.85" stop-color="#04BBF2"/>
<stop offset="1" stop-color="#04C4F4"/>
</linearGradient>
<linearGradient id="paint12_linear_817_1400" x1="126.09" y1="11.9402" x2="324.47" y2="257.04" gradientUnits="userSpaceOnUse">
<stop stop-color="#00FFF0"/>
<stop offset="0.36" stop-color="#02E4F2"/>
<stop offset="0.75" stop-color="#03CDF3"/>
<stop offset="1" stop-color="#04C4F4"/>
</linearGradient>
<linearGradient id="paint13_linear_817_1400" x1="61.4001" y1="64.3007" x2="259.779" y2="309.4" gradientUnits="userSpaceOnUse">
<stop stop-color="#004DDB"/>
<stop offset="0.32" stop-color="#027EE5"/>
<stop offset="0.61" stop-color="#03A4ED"/>
<stop offset="0.85" stop-color="#04BBF2"/>
<stop offset="1" stop-color="#04C4F4"/>
</linearGradient>
<linearGradient id="paint14_linear_817_1400" x1="69.3193" y1="57.88" x2="267.709" y2="302.99" gradientUnits="userSpaceOnUse">
<stop stop-color="#004DDB"/>
<stop offset="0.32" stop-color="#027EE5"/>
<stop offset="0.61" stop-color="#03A4ED"/>
<stop offset="0.85" stop-color="#04BBF2"/>
<stop offset="1" stop-color="#04C4F4"/>
</linearGradient>
<linearGradient id="paint15_linear_817_1400" x1="109.001" y1="25.7699" x2="307.381" y2="270.879" gradientUnits="userSpaceOnUse">
<stop stop-color="#004DDB"/>
<stop offset="0.32" stop-color="#027EE5"/>
<stop offset="0.61" stop-color="#03A4ED"/>
<stop offset="0.85" stop-color="#04BBF2"/>
<stop offset="1" stop-color="#04C4F4"/>
</linearGradient>
<linearGradient id="paint16_linear_817_1400" x1="210.16" y1="-56.1001" x2="408.539" y2="189" gradientUnits="userSpaceOnUse">
<stop stop-color="#004DDB"/>
<stop offset="0.32" stop-color="#027EE5"/>
<stop offset="0.61" stop-color="#03A4ED"/>
<stop offset="0.85" stop-color="#04BBF2"/>
<stop offset="1" stop-color="#04C4F4"/>
</linearGradient>
<linearGradient id="paint17_linear_817_1400" x1="190.699" y1="-40.35" x2="389.079" y2="204.75" gradientUnits="userSpaceOnUse">
<stop stop-color="#004DDB"/>
<stop offset="0.32" stop-color="#027EE5"/>
<stop offset="0.61" stop-color="#03A4ED"/>
<stop offset="0.85" stop-color="#04BBF2"/>
<stop offset="1" stop-color="#04C4F4"/>
</linearGradient>
<linearGradient id="paint18_linear_817_1400" x1="126.309" y1="11.76" x2="324.689" y2="256.87" gradientUnits="userSpaceOnUse">
<stop stop-color="#004DDB"/>
<stop offset="0.32" stop-color="#027EE5"/>
<stop offset="0.61" stop-color="#03A4ED"/>
<stop offset="0.85" stop-color="#04BBF2"/>
<stop offset="1" stop-color="#04C4F4"/>
</linearGradient>
<linearGradient id="paint19_linear_817_1400" x1="126.029" y1="11.9901" x2="324.409" y2="257.09" gradientUnits="userSpaceOnUse">
<stop stop-color="#004DDB"/>
<stop offset="0.32" stop-color="#027EE5"/>
<stop offset="0.61" stop-color="#03A4ED"/>
<stop offset="0.85" stop-color="#04BBF2"/>
<stop offset="1" stop-color="#04C4F4"/>
</linearGradient>
<linearGradient id="paint20_linear_817_1400" x1="126.081" y1="11.9401" x2="324.46" y2="257.05" gradientUnits="userSpaceOnUse">
<stop stop-color="#004DDB"/>
<stop offset="0.32" stop-color="#027EE5"/>
<stop offset="0.61" stop-color="#03A4ED"/>
<stop offset="0.85" stop-color="#04BBF2"/>
<stop offset="1" stop-color="#04C4F4"/>
</linearGradient>
<linearGradient id="paint21_linear_817_1400" x1="-33.2" y1="20.6399" x2="110.39" y2="20.6399" gradientUnits="userSpaceOnUse">
<stop stop-color="#00FFF0"/>
<stop offset="0.36" stop-color="#02E4F2"/>
<stop offset="0.75" stop-color="#03CDF3"/>
<stop offset="1" stop-color="#04C4F4"/>
</linearGradient>
<linearGradient id="paint22_linear_817_1400" x1="1.00938" y1="-5.44989" x2="157.279" y2="37.1301" gradientUnits="userSpaceOnUse">
<stop stop-color="#00FFF0"/>
<stop offset="0.36" stop-color="#02E4F2"/>
<stop offset="0.75" stop-color="#03CDF3"/>
<stop offset="1" stop-color="#04C4F4"/>
</linearGradient>
<linearGradient id="paint23_linear_817_1400" x1="0.149374" y1="-2.24994" x2="156.979" y2="40.4801" gradientUnits="userSpaceOnUse">
<stop stop-color="#00FFF0"/>
<stop offset="0.36" stop-color="#02E4F2"/>
<stop offset="0.75" stop-color="#03CDF3"/>
<stop offset="1" stop-color="#04C4F4"/>
</linearGradient>
<linearGradient id="paint24_linear_817_1400" x1="-3.09062" y1="9.85976" x2="153.099" y2="52.4198" gradientUnits="userSpaceOnUse">
<stop stop-color="#00FFF0"/>
<stop offset="0.36" stop-color="#02E4F2"/>
<stop offset="0.75" stop-color="#03CDF3"/>
<stop offset="1" stop-color="#04C4F4"/>
</linearGradient>
<linearGradient id="paint25_linear_817_1400" x1="-4.65921" y1="7.25002" x2="154.291" y2="50.5601" gradientUnits="userSpaceOnUse">
<stop stop-color="#00FFF0"/>
<stop offset="0.36" stop-color="#02E4F2"/>
<stop offset="0.75" stop-color="#03CDF3"/>
<stop offset="1" stop-color="#04C4F4"/>
</linearGradient>
<linearGradient id="paint26_linear_817_1400" x1="-0.239711" y1="-8.98992" x2="158.72" y2="34.3301" gradientUnits="userSpaceOnUse">
<stop stop-color="#00FFF0"/>
<stop offset="0.36" stop-color="#02E4F2"/>
<stop offset="0.75" stop-color="#03CDF3"/>
<stop offset="1" stop-color="#04C4F4"/>
</linearGradient>
<linearGradient id="paint27_linear_817_1400" x1="-0.549177" y1="-7.82987" x2="158.401" y2="35.4801" gradientUnits="userSpaceOnUse">
<stop stop-color="#00FFF0"/>
<stop offset="0.36" stop-color="#02E4F2"/>
<stop offset="0.75" stop-color="#03CDF3"/>
<stop offset="1" stop-color="#04C4F4"/>
</linearGradient>
<linearGradient id="paint28_linear_817_1400" x1="-0.149356" y1="-9.32011" x2="158.811" y2="33.9998" gradientUnits="userSpaceOnUse">
<stop stop-color="#00FFF0"/>
<stop offset="0.36" stop-color="#02E4F2"/>
<stop offset="0.75" stop-color="#03CDF3"/>
<stop offset="1" stop-color="#04C4F4"/>
</linearGradient>
<linearGradient id="paint29_linear_817_1400" x1="123.1" y1="1.54" x2="126.17" y2="1.54" gradientUnits="userSpaceOnUse">
<stop stop-color="#00FFF0"/>
<stop offset="0.36" stop-color="#02E4F2"/>
<stop offset="0.75" stop-color="#03CDF3"/>
<stop offset="1" stop-color="#04C4F4"/>
</linearGradient>
<linearGradient id="paint30_linear_817_1400" x1="83.5996" y1="37.07" x2="86.6697" y2="37.07" gradientUnits="userSpaceOnUse">
<stop stop-color="#00FFF0"/>
<stop offset="0.36" stop-color="#02E4F2"/>
<stop offset="0.75" stop-color="#03CDF3"/>
<stop offset="1" stop-color="#04C4F4"/>
</linearGradient>
<clipPath id="clip0_817_1400">
<rect width="332.95" height="238.45" fill="white"/>
</clipPath>
</defs>
</svg>
