<svg width="207" height="82" viewBox="0 0 207 82" fill="none" xmlns="http://www.w3.org/2000/svg">
<g clip-path="url(#clip0_817_1432)">
<path d="M204.239 1.66016H34.3491L18.2891 18.9602L18.8491 19.1302L34.7891 2.25016H204.239V1.66016Z" fill="url(#paint0_linear_817_1432)"/>
<path d="M206.099 0H202.199V3.9H206.099V0Z" fill="url(#paint1_linear_817_1432)"/>
<g style="mix-blend-mode:screen" opacity="0.1">
<path d="M195.851 71.4098L198.801 68.4598V23.2098L195.851 20.2598H52.1814L36.0914 36.3398H7.44141L3.19141 40.5898V68.4598L6.15141 71.4098H195.851Z" fill="#008AE8"/>
<path d="M6.05103 71.6398H195.941L199.031 68.5498V23.1198L195.941 20.0298H52.0908L36.001 36.1098H7.35083L2.96094 40.4998V68.5498L6.05103 71.6398ZM195.751 71.1798H6.24097L3.4209 68.3598V40.6898L7.54102 36.5698H36.1909L52.281 20.4798H195.751L198.581 23.3098V68.3598L195.751 71.1798Z" fill="#00DAF2"/>
</g>
<path d="M167.301 17.52H166.391V20.74H167.301V17.52Z" fill="#00DAF2"/>
<path d="M167.301 70.9302H166.391V74.1502H167.301V70.9302Z" fill="#00DAF2"/>
<path d="M85.2407 20.2202H37.9707V22.9602H85.2407V20.2202Z" fill="#008AE8"/>
<path d="M20.8108 76.5298H21.7507L19.0107 69.5298H18.0806L20.8108 76.5298ZM14.9006 69.5298H15.8406L18.5706 76.5298H17.6406L14.9006 69.5298ZM11.7307 69.5298H12.6606L15.3906 76.5298H14.4607L11.7307 69.5298ZM8.55078 69.5298H9.48071L12.2207 76.5298H11.2908L8.55078 69.5298Z" fill="#008AE8"/>
<path d="M93.5105 21.5801L143.57 21.5801V13.4501L93.5105 13.4501V21.5801Z" fill="#008AE8"/>
<path d="M4.82983 74.5999H197.17L202 69.7798V21.9099L197.17 17.0898H50.8599L34.77 33.1699H6.11987L0 39.2899V69.7999L4.82983 74.5999ZM196.83 73.6898H5.23999L0.949951 69.3998V39.6498L6.54004 34.0598H35.1899L51.28 17.9799H196.83L201.12 22.2698V69.3998L196.83 73.6898Z" fill="#00DAF2"/>
<path d="M204.27 44.9101H206.099V44.2701H204.27V44.9101ZM204.27 42.4501H206.099V41.8101H204.27V42.4501ZM204.27 39.9901H206.099V39.3501H204.27V39.9901ZM204.27 37.5301H206.099V36.8901H204.27V37.5301ZM204.27 35.0701H206.099V34.4301H204.27V35.0701ZM204.27 32.6001H206.099V31.9101H204.27V32.6001ZM204.27 30.1401H206.099V29.5001H204.27V30.1401ZM204.27 27.6801H206.099V27.0401H204.27V27.6801ZM204.27 25.2201H206.099V24.5801H204.27V25.2201ZM204.27 22.7601H206.099V22.1201H204.27V22.7601Z" fill="#00DAF2"/>
<path d="M190.81 81.9099H191.939V76.6099H190.81V81.9099ZM188.629 76.6099H189.75V81.9099H188.629V76.6099ZM186.439 76.6099H187.569V81.9099H186.439V76.6099ZM184.26 76.6099H185.379V81.9099H184.26V76.6099ZM182.069 76.6099H183.199V81.9099H182.069V76.6099ZM179.889 76.6099H181.01V81.9099H179.889V76.6099ZM177.709 76.6099H178.829V81.9099H177.709V76.6099ZM175.52 76.6099H176.649V81.9099H175.52V76.6099ZM173.339 76.6099H174.459V81.9099H173.339V76.6099ZM171.149 76.6099H172.28V81.9099H171.149V76.6099ZM168.969 76.6099H170.089V81.9099H168.969V76.6099ZM166.78 76.6099H167.909V81.9099H166.78V76.6099ZM164.599 76.6099H165.719V81.9099H164.599V76.6099ZM162.409 76.6099H163.54V81.9099H162.439L162.409 76.6099ZM160.229 76.6099H161.349V81.9099H160.229V76.6099ZM158.05 76.6099H159.169V81.9099H158.05V76.6099ZM155.859 76.6099H156.99V81.9099H155.859V76.6099ZM153.679 76.6099H154.8V81.9099H153.679V76.6099ZM151.49 76.6099H152.619V81.9099H151.49V76.6099ZM149.31 76.6099H150.429V81.9099H149.31V76.6099ZM147.119 76.6099H148.25V81.9099H147.119V76.6099ZM144.939 76.6099H146.06V81.9099H144.939V76.6099ZM142.76 76.6099H143.879V81.9099H142.76V76.6099ZM140.569 76.6099H141.699V81.9099H140.569V76.6099ZM138.389 76.6099H139.51V81.9099H138.439L138.389 76.6099ZM136.199 76.6099H137.329V81.9099H136.199V76.6099ZM134.02 76.6099H135.139V81.9099H134.02V76.6099ZM131.829 76.6099H132.959V81.9099H131.829V76.6099ZM129.649 76.6099H130.77V81.9099H129.649V76.6099ZM127.469 76.6099H128.589V81.9099H127.439L127.469 76.6099ZM125.28 76.6099H126.409V81.9099H125.28V76.6099ZM123.099 76.6099H124.219V81.9099H123.099V76.6099ZM120.909 76.6099H122.04V81.9099H120.909V76.6099ZM118.729 76.6099H119.849V81.9099H118.729V76.6099ZM116.54 76.6099H117.669V81.9099H116.54V76.6099ZM114.359 76.6099H115.479V81.9099H114.359V76.6099ZM112.169 76.6099H113.3V81.9099H112.169V76.6099ZM109.99 76.6099H111.109V81.9099H109.99V76.6099ZM107.81 76.6099H108.929V81.9099H107.81V76.6099ZM105.619 76.6099H106.75V81.9099H105.619V76.6099ZM103.439 76.6099H104.56V81.9099H103.439V76.6099Z" fill="#008AE8"/>
<path d="M100.991 76.5698H44.0605V77.4798H100.991V76.5698Z" fill="#008AE8"/>
</g>
<defs>
<linearGradient id="paint0_linear_817_1432" x1="205.709" y1="10.4002" x2="18.2891" y2="10.4002" gradientUnits="userSpaceOnUse">
<stop stop-color="#00FFF0"/>
<stop offset="0.36" stop-color="#02E4F2"/>
<stop offset="0.75" stop-color="#03CDF3"/>
<stop offset="1" stop-color="#04C4F4"/>
</linearGradient>
<linearGradient id="paint1_linear_817_1432" x1="206.099" y1="1.95" x2="-31.3813" y2="1.95" gradientUnits="userSpaceOnUse">
<stop stop-color="#00FFF0"/>
<stop offset="0.36" stop-color="#02E4F2"/>
<stop offset="0.75" stop-color="#03CDF3"/>
<stop offset="1" stop-color="#04C4F4"/>
</linearGradient>
<clipPath id="clip0_817_1432">
<rect width="206.1" height="81.87" fill="white"/>
</clipPath>
</defs>
</svg>
