<svg width="52" height="54" viewBox="0 0 52 54" fill="none" xmlns="http://www.w3.org/2000/svg">
<path d="M24.4644 34.6836H4.83008V54.0003H24.4644V34.6836Z" fill="white"/>
<path d="M47.1842 34.6836H27.543V54.0003H47.1842V34.6836Z" fill="white"/>
<path d="M48.7827 7.61556L50.0297 4.5192L48.5209 5.3458L47.7631 5.76587L46.9778 6.13852L45.4001 6.89059L43.7811 7.56813C43.5056 7.67654 43.2369 7.7985 42.9682 7.90013L42.1346 8.19824C41.5835 8.39473 41.0323 8.61155 40.4674 8.79448C39.3376 9.1468 38.2146 9.51268 37.0228 9.80402C34.9147 10.3664 32.7652 10.8271 30.5882 11.1591L43.5814 7.14806L37.7875 0L28.2252 9.73626C27.6983 9.3862 27.0768 9.19974 26.4409 9.20101C25.7307 9.20924 25.0431 9.44736 24.4844 9.87855L15.2803 0.318445L8.39109 7.01933L22.5071 11.3624L21.9974 11.2946C19.6154 10.9217 17.2558 10.4219 14.929 9.79724C13.7785 9.5059 12.6486 9.11971 11.5188 8.78771C10.9539 8.60477 10.4028 8.38796 9.85161 8.19147L9.02489 7.89335C8.74932 7.79172 8.48064 7.66977 8.20507 7.56136L6.58612 6.88382L5.00845 6.13175L4.22996 5.7591L3.46527 5.33902L1.95652 4.51243L3.21727 7.61556L0 8.44216L1.78429 9.1197L2.67303 9.43814L3.57552 9.71594L5.3805 10.258L7.19927 10.7052C7.50239 10.7797 7.80548 10.861 8.10861 10.9287L9.02489 11.1049C9.63803 11.2269 10.2443 11.3556 10.8575 11.4572C12.0769 11.6469 13.2962 11.8434 14.5294 11.9654C16.3619 12.1754 18.2014 12.3109 20.0408 12.3651H4.82937V31.6751H24.4637V12.3855H27.5432V31.6547H47.1844V12.3448H31.9661C33.8032 12.2906 35.6403 12.1573 37.4775 11.945C38.7037 11.8231 39.9232 11.6266 41.1494 11.4369C41.7557 11.3353 42.362 11.2065 42.9751 11.0846L43.8913 10.9084C44.1945 10.8407 44.4976 10.7593 44.8007 10.6848L46.6195 10.2376L48.4245 9.69561L49.327 9.41782L50.2157 9.09937L52 8.42183L48.7827 7.61556Z" fill="white"/>
</svg>
