<svg width="48" height="48" viewBox="0 0 48 48" fill="none" xmlns="http://www.w3.org/2000/svg">
<circle cx="24" cy="24" r="24" fill="white"/>
<path fill-rule="evenodd" clip-rule="evenodd" d="M34.6587 16.318C34.5137 13.1881 31.931 10.6958 28.7652 10.6958H22.2532L21.9747 10.7022C18.8374 10.8475 16.3398 13.4352 16.3398 16.6078V17.8518L16.349 17.9875C16.4152 18.4756 16.8336 18.8518 17.3398 18.8518C17.8921 18.8518 18.3398 18.4041 18.3398 17.8518V16.6078L18.3465 16.3779C18.4654 14.3238 20.1682 12.6958 22.2532 12.6958H28.7652L28.9944 12.7024C31.042 12.821 32.6652 14.5184 32.6652 16.5958V31.4491L32.6585 31.679C32.5395 33.7331 30.8357 35.3625 28.7518 35.3625H22.2385L22.0095 35.3558C19.9633 35.2372 18.3398 33.5389 18.3398 31.4625V30.2065L18.3307 30.0708C18.2645 29.5827 17.8461 29.2065 17.3398 29.2065C16.7875 29.2065 16.3398 29.6542 16.3398 30.2065V31.4625L16.3466 31.7483C16.4957 34.8734 19.0769 37.3625 22.2385 37.3625H28.7518L29.0302 37.356C32.1666 37.2107 34.6652 34.6214 34.6652 31.4491V16.5958L34.6587 16.318ZM22.4718 19.4352C22.8261 19.0795 23.3816 19.046 23.7737 19.3357L23.886 19.4323L27.79 23.3203C28.1468 23.6756 28.1792 24.2331 27.8873 24.6251L27.8837 24.6293C27.8558 24.6664 27.8253 24.7016 27.7926 24.7344L27.79 24.7374L23.886 28.6254C23.4947 29.0151 22.8615 29.0138 22.4718 28.6225C22.1175 28.2668 22.0864 27.7112 22.3777 27.3203L22.4747 27.2083L24.6624 25.0289H11.0293C10.477 25.0289 10.0293 24.5812 10.0293 24.0289C10.0293 23.5226 10.4055 23.1042 10.8936 23.038L11.0293 23.0289H24.6621L22.4747 20.8494C22.119 20.4951 22.0855 19.9396 22.3752 19.5476L22.4718 19.4352Z" fill="#E2425C"/>
</svg>
