<svg width="56" height="56" viewBox="0 0 56 56" fill="none" xmlns="http://www.w3.org/2000/svg">
<path fill-rule="evenodd" clip-rule="evenodd" d="M27.5379 0.0250883C42.6679 0.635088 53.4679 10.5051 55.4279 23.4551C53.525 23.1789 51.5828 23.4494 49.8278 24.2351C51.0378 24.2351 55.5578 24.4451 55.5778 24.6551C55.7134 25.9203 55.7635 27.1932 55.7278 28.4651C55.3478 43.8051 44.0379 55.1451 27.5379 55.1451C11.5379 55.1451 1.08781 44.0651 0.0778092 29.2751C0.0778092 29.0751 3.37786 28.3951 4.00786 28.1951C3.11786 28.2451 0.577863 28.0651 0.00786287 27.4951C-0.112205 22.3644 1.14473 17.2953 3.64788 12.8151C5.10078 12.1602 6.60606 11.6283 8.14788 11.2251C5.03788 11.5651 4.34785 11.6451 4.49785 11.4251C9.17785 4.26508 17.2579 -0.384912 27.4979 0.0250883H27.5379Z" fill="url(#paint0_linear_26_162)"/>
<path fill-rule="evenodd" clip-rule="evenodd" d="M27.5478 0.36502C42.4078 0.95502 52.9578 10.615 54.6478 23.215C52.6149 23.1551 50.5976 23.5873 48.7678 24.475C50.7721 24.4465 52.7763 24.5468 54.7678 24.775C54.8378 25.675 54.8577 26.585 54.8377 27.515C54.4677 42.155 42.2378 52.975 27.5078 52.975C20.9379 53.0642 14.5728 50.69 9.6661 46.3201C4.75945 41.9502 1.66696 35.9013 0.997768 29.365C2.72777 28.845 4.46772 28.315 6.19772 27.775C4.95772 28.005 1.85773 27.925 0.837733 27.365C0.837733 27.265 0.837733 27.155 0.837733 27.045C0.652764 22.1708 1.77855 17.3361 4.09774 13.045C5.52774 12.495 7.8378 11.665 10.1578 10.855C8.4578 11.025 6.7178 11.255 5.0278 11.485C9.5378 4.53502 17.4278 -0.014991 27.5178 0.385009L27.5478 0.36502Z" fill="url(#paint1_radial_26_162)"/>
<path style="mix-blend-mode:multiply" opacity="0.6" fill-rule="evenodd" clip-rule="evenodd" d="M1.09766 22.3651C3.21766 21.8251 5.43763 21.1451 7.81763 20.2851C11.3527 18.93 15.0047 17.9024 18.7277 17.2151C28.9877 15.4051 36.6477 12.1551 47.7277 11.8351C48.5477 11.8351 49.3676 11.8351 50.2076 11.8351C49.8076 11.2851 49.3876 10.7451 48.9476 10.2251C46.4375 10.0444 43.9178 10.0444 41.4077 10.2251C31.2177 11.1251 19.3377 13.7851 8.46765 15.5251C6.54765 15.8251 4.57774 16.1851 2.55774 16.5251C1.87833 18.4055 1.40223 20.3533 1.1377 22.3351L1.09766 22.3651Z" fill="url(#paint2_radial_26_162)"/>
<path style="mix-blend-mode:multiply" opacity="0.6" fill-rule="evenodd" clip-rule="evenodd" d="M17.5878 31.365C14.2126 32.5565 10.9132 33.9524 7.70776 35.545C6.22742 36.2527 4.87552 37.2024 3.70776 38.355C4.639 40.2424 5.79768 42.0089 7.15784 43.615C7.91784 43.995 8.77776 44.375 9.70776 44.785C12.3078 45.905 15.0278 47.015 17.4778 48.225C19.9977 49.5486 22.4085 51.07 24.6877 52.775C25.6277 52.865 26.5978 52.915 27.5778 52.915C29.1012 52.9155 30.6224 52.7985 32.1278 52.565C30.4778 51.345 28.7479 50.015 26.7979 48.615C23.5779 46.305 19.2579 43.215 17.7979 41.675C17.4507 41.2929 17.1792 40.8483 16.9978 40.365C16.8181 39.8824 16.7332 39.3697 16.7478 38.855C16.7726 38.3645 16.8985 37.8844 17.1178 37.445C17.3561 36.9646 17.6701 36.5257 18.0479 36.145C19.6579 34.525 22.8278 32.785 26.3878 31.145C31.0813 29.0703 35.9008 27.2934 40.8177 25.825C43.4116 25.0071 46.1008 24.5298 48.8177 24.405C50.6476 23.5173 52.6649 23.0851 54.6978 23.145C54.5625 22.1346 54.3688 21.133 54.1178 20.145C51.711 19.8513 49.2756 19.8849 46.8778 20.245C38.8078 21.645 26.1078 28.085 17.6378 31.325L17.5878 31.365Z" fill="url(#paint3_radial_26_162)"/>
<g style="mix-blend-mode:multiply" opacity="0.5">
<path d="M53.1478 36.1751H52.4878C51.8161 36.1986 51.1473 36.2755 50.4878 36.4052C50.0595 36.4995 49.6459 36.6509 49.2578 36.8551C48.8812 37.058 48.5202 37.2886 48.1779 37.5451C47.8175 37.821 47.4828 38.129 47.1779 38.4651C46.8859 38.7698 46.6278 39.1051 46.4078 39.4651C46.1848 39.8247 46.0004 40.2068 45.8578 40.6051C45.7048 41.0281 45.6303 41.4754 45.6378 41.9251C45.6485 42.3615 45.7401 42.7921 45.9078 43.1951C46.0618 43.5775 46.3012 43.9196 46.6078 44.1951C46.8891 44.4277 47.1903 44.6352 47.5078 44.8152L48.2878 43.9951C47.8197 43.8043 47.3843 43.5411 46.9978 43.2151C46.8129 43.0342 46.6663 42.8179 46.5667 42.5791C46.467 42.3403 46.4164 42.0839 46.4178 41.8251C46.4449 41.207 46.6421 40.6083 46.9878 40.0952C47.5004 39.2835 48.215 38.6189 49.0618 38.1667C49.9085 37.7144 50.8581 37.4899 51.8177 37.5151C52.0477 37.5151 52.2977 37.5151 52.5677 37.5151C52.7677 37.0751 52.9578 36.6251 53.1378 36.1651L53.1478 36.1751ZM54.7578 29.4451H54.3079C47.6528 29.4514 41.1552 31.4698 35.6678 35.2351C33.5278 36.6951 32.4778 38.0151 32.2878 39.3051C32.1782 40.0271 32.2385 40.7646 32.4642 41.459C32.6899 42.1535 33.0747 42.7856 33.5878 43.3051C35.6238 45.7475 37.8873 47.991 40.3478 50.0052C39.7178 50.3152 39.0578 50.6151 38.3978 50.8851C35.9448 48.8019 33.6702 46.5173 31.5978 44.0551C30.0578 42.2751 29.2578 40.6052 29.5078 38.9052C29.9578 35.8352 36.3778 32.5252 39.8378 31.1552C45.8378 28.7652 50.3478 27.8651 54.8378 27.9951C54.8378 28.4851 54.7778 28.9951 54.7378 29.4551L54.7578 29.4451ZM54.8578 25.6552C46.0778 25.0752 39.5478 26.6052 27.2778 32.1252C24.5791 33.295 22.1026 34.9223 19.9578 36.9352C19.6583 37.1957 19.415 37.5143 19.2424 37.8717C19.0699 38.2292 18.9717 38.6179 18.954 39.0144C18.9362 39.4109 18.9991 39.8069 19.139 40.1783C19.2789 40.5497 19.4929 40.8889 19.7678 41.1751C22.2779 43.5246 24.9513 45.6934 27.7678 47.6651C30.1178 49.3451 31.9378 50.9051 33.7078 52.3051C33.1778 52.4251 32.6478 52.5251 32.0978 52.6051C30.4478 51.3851 28.7178 50.0552 26.7678 48.6552C23.5478 46.3452 19.2278 43.2551 17.7678 41.7151C17.427 41.3186 17.1656 40.8603 16.9978 40.3651C16.8181 39.8826 16.7332 39.3699 16.7478 38.8551C16.7726 38.3646 16.8985 37.8846 17.1178 37.4451C17.3561 36.9647 17.6701 36.5258 18.0479 36.1451C19.6579 34.5251 22.8278 32.7851 26.3878 31.1451C31.0813 29.0704 35.9008 27.2936 40.8177 25.8251C46.5977 24.1451 49.6877 24.1951 54.8177 24.7051C54.8177 25.0051 54.8177 25.3051 54.8177 25.6051L54.8578 25.6552ZM54.0778 20.2251C51.6676 19.9314 49.2289 19.965 46.8278 20.3251C38.7578 21.7251 26.0578 28.1652 17.5878 31.4052C14.2126 32.5966 10.9132 33.9925 7.70776 35.5851C6.22742 36.2928 4.87552 37.2425 3.70776 38.3951C3.38776 37.7451 3.08775 37.0851 2.81775 36.3951C6.73775 33.7251 13.5478 31.2151 16.5378 30.0751C20.2278 28.6651 23.8778 27.1751 27.5378 25.7051C33.3578 23.3751 40.5378 20.0351 46.7578 19.4551C49.1383 19.2659 51.5309 19.2859 53.9078 19.5151L54.0978 20.2151L54.0778 20.2251ZM7.07776 43.6552C7.84776 44.0352 8.70782 44.4151 9.63782 44.8251C12.2378 45.9451 14.9578 47.0551 17.4078 48.2651C19.9236 49.5867 22.331 51.1047 24.6078 52.8051C23.0529 52.6488 21.5141 52.3611 20.0078 51.9451C18.6478 51.1851 17.2579 50.4551 15.7979 49.7251C14.3379 48.9951 12.9078 48.3751 11.4078 47.7251C9.81636 46.5352 8.36381 45.17 7.07776 43.6552V43.6552ZM52.6378 16.1852C49.5648 16.0826 46.4897 16.3173 43.4678 16.8851C37.3178 18.0451 32.6678 20.1051 25.9178 22.5251C17.7578 25.4551 9.50786 28.2252 1.17786 30.6852C1.10786 30.2452 1.0478 29.7952 0.997803 29.3452C9.4678 26.8252 17.8777 24.0051 26.1877 21.0251C33.2477 18.4851 38.1878 16.7951 43.3278 16.0251C46.3041 15.5639 49.3193 15.4031 52.3278 15.5451C52.4378 15.7651 52.5378 15.9951 52.6478 16.2151L52.6378 16.1852ZM1.09778 22.3651C3.21778 21.8251 5.43775 21.1452 7.81775 20.2852C11.3528 18.9301 15.0048 17.9024 18.7278 17.2151C28.9878 15.4051 36.6478 12.1551 47.7278 11.8351C48.5478 11.8351 49.3678 11.8351 50.1978 11.8351C50.4378 12.1751 50.6678 12.5085 50.8878 12.8351C49.8278 12.7851 48.7878 12.7751 47.7578 12.8351C41.4778 13.0151 35.4878 14.6651 29.4578 16.3251C25.9178 17.3251 22.5378 18.2251 18.9178 18.8651C15.2465 19.5318 11.6445 20.5361 8.15784 21.8651C5.80813 22.725 3.40667 23.4364 0.967773 23.9951C0.967773 23.4551 1.06782 22.9152 1.13782 22.3752L1.09778 22.3651ZM3.26782 14.7351C4.87782 14.3951 6.54782 14.0751 8.26782 13.7951C19.1478 12.0551 31.0478 10.1651 41.2678 9.26514C43.4693 9.07945 45.6795 9.01936 47.8878 9.08514C48.2378 9.45514 48.5678 9.82514 48.8878 10.2051C46.3777 10.0245 43.8579 10.0245 41.3478 10.2051C31.1578 11.1051 19.2778 13.7652 8.40784 15.5052C6.48784 15.8052 4.5178 16.1652 2.4978 16.5052C2.7278 15.8852 2.9778 15.2852 3.2478 14.6852L3.26782 14.7351ZM6.05786 10.0551C8.90786 9.66515 11.7278 9.36514 14.4678 9.26514C17.9578 9.13514 21.4678 8.90515 24.9478 8.46515C27.4078 8.15515 29.5077 7.85513 31.4377 7.57513C35.8492 6.8372 40.3067 6.40619 44.7778 6.28516C45.1078 6.52516 45.4178 6.77516 45.7778 7.03516C35.4278 7.03516 26.5478 10.3952 14.5778 10.5652C11.4063 10.6868 8.24442 10.9906 5.10779 11.4751C5.42779 10.9851 5.75779 10.4751 6.10779 10.0551H6.05786ZM9.05786 6.76514C15.8909 6.75413 22.7146 6.25958 29.4778 5.28516C33.3778 4.77516 37.3178 4.28516 41.2678 4.00516C41.8778 4.33516 42.4779 4.68516 43.0579 5.06516C38.5579 5.22516 34.0578 5.66516 29.5878 6.25516C21.7678 7.25516 15.3378 8.39515 7.51782 8.30515C8.00782 7.76515 8.51786 7.25514 9.05786 6.76514ZM13.9778 3.29514C17.8878 3.07514 21.9077 2.67516 26.0677 2.03516C28.4177 1.67516 30.7677 1.33516 33.0677 1.03516C33.9977 1.22516 34.9078 1.45513 35.7878 1.72513C28.5778 2.48513 21.3979 3.82513 14.1779 4.44513L11.6779 4.63513C12.4015 4.13958 13.1527 3.68553 13.9279 3.27515L13.9778 3.29514ZM43.9778 47.8452C42.7116 47.0861 41.5685 46.1386 40.5878 45.0352C39.2678 43.5052 38.5878 41.9152 38.9178 40.5952C38.9526 40.4275 39.0027 40.2635 39.0677 40.1051C39.956 38.4231 41.2653 37.0001 42.8678 35.9751C46.1483 33.5695 50.1673 32.3879 54.2278 32.6351C54.2278 32.8651 54.1177 33.0951 54.0677 33.3251H53.9978C52.3461 33.2287 50.6895 33.3907 49.0878 33.8051C47.1112 34.4824 45.2673 35.4974 43.6378 36.8051C40.7378 39.0051 38.9778 41.0651 41.6378 44.4151C42.5594 45.5202 43.6535 46.4691 44.8778 47.2251C44.5878 47.4551 44.2978 47.6652 43.9978 47.8752L43.9778 47.8452Z" fill="#B7805C"/>
</g>
<path style="mix-blend-mode:screen" opacity="0.35" fill-rule="evenodd" clip-rule="evenodd" d="M18.2379 2.72513C18.1734 2.67204 18.1272 2.60011 18.1057 2.51941C18.0841 2.43871 18.0884 2.35329 18.1179 2.27515C18.3479 1.77515 19.7678 1.22515 21.2078 0.775146C18.681 1.22849 16.239 2.06833 13.9679 3.26514C15.5879 3.17514 17.2279 3.05514 18.8879 2.89514C18.6622 2.8815 18.4413 2.82373 18.2379 2.72513ZM16.9079 4.17514C16.0079 4.27514 15.1179 4.35515 14.2179 4.43515L11.7179 4.62515C10.7768 5.26138 9.88444 5.96664 9.04793 6.73514C11.5479 6.73514 13.9279 6.67515 16.2879 6.55515C15.7379 6.50515 15.1879 6.45513 14.6479 6.38513C12.0379 6.05513 14.8579 4.75513 15.7879 4.47513C16.1579 4.35513 16.5279 4.26514 16.9079 4.17514V4.17514ZM15.0479 8.00516C12.6179 8.19516 10.1379 8.30515 7.50789 8.27515C6.99789 8.83515 6.50794 9.41515 6.05794 10.0251C8.90794 9.63515 11.7279 9.33514 14.4679 9.23514H15.2379C14.8679 9.23514 14.5079 9.15514 14.1479 9.08514C13.3879 8.94514 13.8879 8.35513 14.4279 8.19513L15.0479 8.03516V8.00516ZM10.1878 10.8152C7.86782 11.6252 5.55789 12.4552 4.12789 13.0052C3.82789 13.5552 3.5379 14.1251 3.2679 14.7051C4.8779 14.3651 6.5479 14.0451 8.2679 13.7651L8.85787 13.6751C7.93787 13.4151 6.92787 12.9552 7.85787 12.2552C9.55787 10.9952 12.1079 10.7352 14.2879 10.5352C12.9779 10.5352 11.5779 10.6652 10.1479 10.8152H10.1878ZM8.02791 15.5551C6.23791 15.8451 4.3979 16.1851 2.5179 16.5551C1.83849 18.4356 1.3624 20.3833 1.09786 22.3651C3.21786 21.8251 5.43783 21.1452 7.81783 20.2852L8.75789 19.9451C6.91789 20.3051 4.68782 20.6251 4.18782 20.1051C3.18782 19.1051 4.36785 16.8452 5.58785 16.3752C6.38702 16.0699 7.2015 15.8062 8.02791 15.5851V15.5551ZM6.71785 22.3152C4.8169 22.9596 2.88449 23.507 0.927935 23.9551C0.852783 24.9767 0.832695 26.0015 0.867877 27.0251C0.867877 27.1351 0.867877 27.2452 0.867877 27.3452C1.86788 27.9052 4.98786 27.9852 6.22786 27.7552C6.86786 27.5652 7.5079 27.3552 8.1379 27.1552C5.9379 27.3852 2.44785 27.6152 2.08785 26.3452C1.72785 25.0752 4.23784 23.5352 6.70784 22.3452L6.71785 22.3152ZM6.89791 28.9551C5.00457 29.5485 3.11119 30.1252 1.21785 30.6852C1.52953 32.6437 2.05611 34.5619 2.78792 36.4052C4.51295 35.2816 6.32536 34.2984 8.20784 33.4651C7.34125 33.753 6.43057 33.885 5.5179 33.8551C5.17964 33.7887 4.86423 33.6361 4.60237 33.4119C4.34052 33.1877 4.14112 32.8996 4.02339 32.5756C3.90567 32.2516 3.87364 31.9027 3.9305 31.5627C3.98736 31.2227 4.13113 30.9032 4.34786 30.6351C5.06386 29.8943 5.93463 29.3207 6.89791 28.9551V28.9551ZM7.70784 35.5851C6.2275 36.2928 4.8756 37.2425 3.70784 38.3951C4.63908 40.2826 5.79776 42.049 7.15792 43.6552C7.91792 44.0352 8.77784 44.4151 9.70784 44.8251C11.2178 45.4751 12.7779 46.1251 14.2979 46.8251C12.5441 45.9127 10.8713 44.8522 9.29793 43.6552C7.85793 42.2752 5.89785 39.0151 6.96785 36.9851C7.37994 36.3139 7.90823 35.7213 8.52791 35.2351L7.78792 35.6151L7.70784 35.5851Z" fill="url(#paint4_radial_26_162)"/>
<path style="mix-blend-mode:screen" fill-rule="evenodd" clip-rule="evenodd" d="M3.19775 38.7952C8.74775 49.1352 15.8178 52.4952 27.9678 53.6752C17.1878 55.8952 6.81775 49.3952 3.19775 38.7952Z" fill="url(#paint5_radial_26_162)"/>
<path style="mix-blend-mode:screen" fill-rule="evenodd" clip-rule="evenodd" d="M5.75781 11.365C10.3678 4.99499 17.9679 0.905003 27.5479 1.285C29.4925 1.35481 31.4268 1.59911 33.3278 2.01498C34.2178 2.46498 35.3278 3.01498 35.5978 3.13498C36.9535 3.37116 38.2904 3.70537 39.5978 4.13498C44.3701 6.26917 48.3883 9.79247 51.1278 14.245C51.1796 14.3162 51.2153 14.3977 51.2325 14.484C51.2498 14.5703 51.2482 14.6594 51.2278 14.745C51.1678 14.895 50.9677 14.905 50.8177 14.935C50.5885 14.9615 50.357 14.9615 50.1278 14.935C49.0778 14.875 48.0278 14.685 46.9678 14.725C45.3197 14.746 43.678 14.9337 42.0677 15.285C36.9754 16.7456 31.9903 18.5565 27.1478 20.705C33.7278 18.355 38.4878 16.775 43.3578 16.015C46.1716 15.5733 49.0216 15.4058 51.8678 15.515C53.1489 17.9208 54.0336 20.5175 54.4878 23.205H54.6378C52.9478 10.605 42.3978 0.94498 27.5378 0.35498C17.4478 -0.0450203 9.53785 4.50499 5.04785 11.455L5.7478 11.365H5.75781Z" fill="url(#paint6_radial_26_162)"/>
<g style="mix-blend-mode:screen" opacity="0.5">
<path fill-rule="evenodd" clip-rule="evenodd" d="M31.5878 23.525C25.8378 25.965 20.0179 28.355 14.3079 30.925L16.5078 30.085C20.1978 28.675 23.8478 27.185 27.5078 25.715C30.8878 24.365 34.7478 22.665 38.5978 21.365C36.1767 21.7616 33.8214 22.4883 31.5978 23.525H31.5878Z" fill="#CA9E67"/>
</g>
<g style="mix-blend-mode:screen" opacity="0.5">
<path fill-rule="evenodd" clip-rule="evenodd" d="M26.3378 31.1952C31.0312 29.1204 35.8508 27.3436 40.7678 25.8752C41.9378 25.5352 42.9878 25.2652 43.9778 25.0552C39.0216 25.796 34.188 27.202 29.6078 29.2352C26.9311 30.3261 24.3201 31.5716 21.7878 32.9652C19.2278 34.4152 17.6279 35.7752 17.0479 37.5152C17.2861 37.0348 17.6001 36.5958 17.9778 36.2152C19.5878 34.5952 22.7577 32.8552 26.3177 31.2152L26.3378 31.1952Z" fill="#CA9E67"/>
</g>
<g style="mix-blend-mode:screen" opacity="0.5">
<path fill-rule="evenodd" clip-rule="evenodd" d="M20.5078 16.3651C18.0157 16.8463 15.5699 17.5423 13.1978 18.4451C14.9578 17.9451 16.7378 17.5251 18.7278 17.1651C26.9678 15.7151 33.5278 13.3251 41.5178 12.2751C37.7648 12.39 34.0416 12.9814 30.4377 14.0352C29.0677 14.4152 27.7278 14.9651 26.3378 15.2951C24.4178 15.7451 22.4478 15.9651 20.5078 16.3651V16.3651Z" fill="#CA9E67"/>
</g>
<g style="mix-blend-mode:screen" opacity="0.65">
<path fill-rule="evenodd" clip-rule="evenodd" d="M47.3177 38.825C45.2139 42.104 42.3165 44.799 38.894 46.6603C35.4716 48.5216 31.6347 49.4892 27.7389 49.4732C23.843 49.4573 20.0142 48.4584 16.6071 46.5691C13.1999 44.6798 10.3248 41.9611 8.2478 38.665C12.0778 45.745 18.4678 49.955 27.9478 50.165C36.1678 50.345 43.0377 46.235 47.3177 38.825Z" fill="#CA9E67"/>
</g>
<path opacity="0.75" fill-rule="evenodd" clip-rule="evenodd" d="M50.8079 23.7151C49.5479 12.4451 39.6078 3.95513 27.8678 3.56513C15.1278 3.14513 4.79785 13.8951 4.79785 26.6351C4.79785 27.0551 4.79785 27.4651 4.79785 27.8751C5.27037 27.8743 5.7419 27.8342 6.20776 27.7551L4.81775 28.1951C5.27706 34.1249 8.00779 39.6485 12.4404 43.614C16.8731 47.5794 22.6655 49.6807 28.6096 49.4795C34.5538 49.2783 40.1907 46.7902 44.3451 42.5341C48.4995 38.278 50.8505 32.5824 50.9078 26.6351C50.9281 25.9112 50.908 25.1868 50.8478 24.4651C50.1278 24.4651 49.4278 24.4651 48.7378 24.4651C49.3912 24.1841 50.0588 23.9371 50.7378 23.7251L50.8079 23.7151Z" fill="url(#paint7_linear_26_162)"/>
<g style="mix-blend-mode:multiply" opacity="0.5">
<path fill-rule="evenodd" clip-rule="evenodd" d="M4.80786 27.2652C5.13786 14.8052 15.3378 4.40517 27.8678 4.82517C39.1878 5.19517 48.8678 13.0952 50.6378 23.7652H50.8079C49.5479 12.4952 39.6078 4.00518 27.8678 3.61518C15.1278 3.19518 4.79785 13.9452 4.79785 26.6852C4.79785 26.8952 4.79785 27.1052 4.79785 27.3152L4.80786 27.2652Z" fill="#683C11"/>
</g>
<path fill-rule="evenodd" clip-rule="evenodd" d="M27.7779 4.19507C21.9622 4.23735 16.3999 6.58074 12.3072 10.7128C8.21451 14.8448 5.92443 20.4293 5.9378 26.2451C5.9378 38.3051 15.1079 48.2951 27.7779 48.0851C40.4479 47.8751 49.6279 38.3051 49.6279 26.2451C49.6412 20.4276 47.3498 14.8416 43.2549 10.7093C39.1601 6.57694 33.5953 4.23472 27.7779 4.19507Z" fill="url(#paint8_radial_26_162)"/>
<path style="mix-blend-mode:screen" fill-rule="evenodd" clip-rule="evenodd" d="M27.7778 5.15503C16.6478 5.15503 7.61778 14.065 7.61778 24.825C7.60213 27.4454 8.11805 30.0418 9.13438 32.4571C10.1507 34.8725 11.6463 37.0566 13.5307 38.8775C15.4152 40.6984 17.6493 42.1182 20.0981 43.0511C22.5469 43.984 25.1595 44.4105 27.7778 44.305C39.4778 44.115 47.9477 35.575 47.9477 24.825C47.9477 14.075 38.9478 5.15503 27.7778 5.15503Z" fill="url(#paint9_radial_26_162)"/>
<path style="mix-blend-mode:screen" fill-rule="evenodd" clip-rule="evenodd" d="M27.7778 6.91508C22.9529 6.88832 18.3133 8.77128 14.8717 12.153C11.43 15.5346 9.46584 20.1405 9.40781 24.9651C9.38462 27.3617 9.84753 29.7381 10.7687 31.9508C11.6898 34.1634 13.0499 36.1664 14.7669 37.8385C16.484 39.5107 18.5223 40.8174 20.7585 41.6796C22.9948 42.5418 25.3826 42.9417 27.7778 42.8551C38.4378 42.6851 46.1578 34.8551 46.1578 24.9651C46.0972 20.1395 44.1307 15.5338 40.6875 12.1524C37.2443 8.77095 32.6037 6.8883 27.7778 6.91508Z" fill="url(#paint10_radial_26_162)"/>
<path style="mix-blend-mode:screen" fill-rule="evenodd" clip-rule="evenodd" d="M9.5278 19.3651C6.8278 26.0751 9.32781 28.9551 16.6678 28.0251C25.2778 26.9351 35.6177 22.4651 40.5677 17.0251C41.0277 16.4684 41.3565 15.8153 41.5296 15.1141C41.7027 14.413 41.7158 13.6819 41.5677 12.9751C41.1731 11.3944 40.2439 9.99886 38.9377 9.02509C34.9377 5.94509 29.3878 5.44509 24.5578 6.09509C17.3078 7.09509 12.1778 12.9151 9.55783 19.4051L9.5278 19.3651Z" fill="url(#paint11_radial_26_162)"/>
<path style="mix-blend-mode:screen" fill-rule="evenodd" clip-rule="evenodd" d="M9.91797 36.9052C19.528 53.4152 44.8179 49.7952 48.0979 30.7852C44.8779 40.9452 36.4079 45.3351 28.1479 45.6051C24.6362 45.7107 21.1499 44.9764 17.9791 43.4632C14.8084 41.95 12.0448 39.7016 9.91797 36.9052V36.9052Z" fill="url(#paint12_radial_26_162)"/>
<path style="mix-blend-mode:screen" fill-rule="evenodd" clip-rule="evenodd" d="M16.418 11.1352C12.718 15.2352 13.7879 18.5952 19.7579 16.8052C24.5779 15.3652 28.178 14.1452 32.298 11.3852C34.948 9.60517 33.6579 6.48519 28.4979 6.27519C24.7279 6.11519 19.028 8.27517 16.418 11.1352Z" fill="url(#paint13_linear_26_162)"/>
<path style="mix-blend-mode:screen" fill-rule="evenodd" clip-rule="evenodd" d="M18.5979 37.7151C15.5379 38.4951 17.5979 41.2151 19.5179 42.1751C25.0679 45.0051 32.5979 44.3051 38.3479 41.0151C41.8833 38.9284 44.6399 35.7433 46.1978 31.9451C47.8278 28.0751 45.9279 23.2051 42.5579 26.4751C39.6378 29.5179 36.1257 31.9308 32.2379 33.5651C27.8018 35.2889 23.2422 36.6761 18.5979 37.7151V37.7151Z" fill="url(#paint14_radial_26_162)"/>
<path style="mix-blend-mode:screen" fill-rule="evenodd" clip-rule="evenodd" d="M32.1278 43.0651C36.0678 42.2851 40.8178 40.1451 43.5978 35.9751C44.4878 34.6151 44.8478 31.8851 42.7878 33.7951C39.5089 37.1239 35.4277 39.552 30.9377 40.8451C27.5077 42.0251 25.9377 42.1851 25.9377 42.7051C25.9377 43.3751 28.5078 43.7751 32.1178 43.0651H32.1278Z" fill="url(#paint15_linear_26_162)"/>
<g style="mix-blend-mode:multiply">
<path fill-rule="evenodd" clip-rule="evenodd" d="M34.5377 15.365C36.4492 16.7163 38.1164 18.3835 39.4677 20.295C37.8177 22.235 35.6577 24.585 33.2977 27.015C35.5477 29.335 37.6876 31.655 39.4476 33.745C38.0963 35.6565 36.4292 37.3237 34.5177 38.675C32.5777 37.025 30.2277 34.855 27.7977 32.505C25.4077 34.815 23.0776 36.975 21.0876 38.675C19.1785 37.3209 17.5118 35.6541 16.1577 33.745C17.6977 31.935 19.8677 29.555 22.3077 27.015C19.9977 24.625 17.8377 22.285 16.1377 20.295C17.4918 18.3858 19.1585 16.7191 21.0676 15.365C22.8776 16.905 25.2577 19.075 27.7977 21.515C30.1177 19.275 32.4477 17.135 34.5377 15.365Z" fill="#7D4E24"/>
<path fill-rule="evenodd" clip-rule="evenodd" d="M34.5377 15.365C36.4492 16.7163 38.1164 18.3835 39.4677 20.295C37.8177 22.235 35.6577 24.585 33.2977 27.015C35.5477 29.335 37.6876 31.655 39.4476 33.745C38.0963 35.6565 36.4292 37.3237 34.5177 38.675C32.5777 37.025 30.2277 34.855 27.7977 32.505C25.4077 34.815 23.0776 36.975 21.0876 38.675C19.1785 37.3209 17.5118 35.6541 16.1577 33.745C17.6977 31.935 19.8677 29.555 22.3077 27.015C19.9977 24.625 17.8377 22.285 16.1377 20.295C17.4918 18.3858 19.1585 16.7191 21.0676 15.365C22.8776 16.905 25.2577 19.075 27.7977 21.515C30.1177 19.275 32.4477 17.135 34.5377 15.365Z" stroke="#7D4E24" stroke-width="2.64" stroke-miterlimit="10"/>
</g>
<g style="mix-blend-mode:multiply">
<path fill-rule="evenodd" clip-rule="evenodd" d="M34.5377 15.145C36.4492 16.4963 38.1164 18.1635 39.4677 20.075C37.8177 22.015 35.6577 24.365 33.2977 26.785C35.5477 29.105 37.6876 31.435 39.4476 33.525C38.0963 35.4365 36.4292 37.1037 34.5177 38.455C32.5777 36.805 30.2277 34.635 27.7977 32.285C25.4077 34.595 23.0776 36.755 21.0876 38.455C19.1785 37.1009 17.5118 35.4342 16.1577 33.525C17.6977 31.705 19.8677 29.325 22.3077 26.795C19.9977 24.405 17.8377 22.065 16.1377 20.075C17.4918 18.1659 19.1585 16.4991 21.0676 15.145C22.8776 16.685 25.2577 18.855 27.7977 21.295C30.1177 19.055 32.4477 16.905 34.5377 15.145V15.145Z" fill="#683C11"/>
</g>
<path fill-rule="evenodd" clip-rule="evenodd" d="M34.5377 14.365C36.4492 15.7163 38.1164 17.3835 39.4677 19.295C37.8177 21.235 35.6577 23.585 33.2977 26.005C35.5477 28.325 37.6876 30.655 39.4476 32.745C38.0963 34.6565 36.4292 36.3237 34.5177 37.675C32.5777 36.025 30.2277 33.855 27.7977 31.505C25.4077 33.815 23.0776 35.975 21.0876 37.675C19.1785 36.3209 17.5118 34.6541 16.1577 32.745C17.6977 30.925 19.8677 28.545 22.3077 26.015C19.9977 23.625 17.8377 21.285 16.1377 19.295C17.4918 17.3858 19.1585 15.7191 21.0676 14.365C22.8776 15.905 25.2577 18.075 27.7977 20.515C30.1177 18.275 32.4477 16.125 34.5377 14.365V14.365Z" fill="url(#paint16_linear_26_162)"/>
<defs>
<linearGradient id="paint0_linear_26_162" x1="27.8678" y1="55.1451" x2="27.8678" y2="0.00508766" gradientUnits="userSpaceOnUse">
<stop stop-color="#692705"/>
<stop offset="1" stop-color="#823B00"/>
</linearGradient>
<radialGradient id="paint1_radial_26_162" cx="0" cy="0" r="1" gradientUnits="userSpaceOnUse" gradientTransform="translate(11.5977 3.13501) scale(57.42 57.42)">
<stop stop-color="#F59547"/>
<stop offset="1" stop-color="#A14C1F"/>
</radialGradient>
<radialGradient id="paint2_radial_26_162" cx="0" cy="0" r="1" gradientUnits="userSpaceOnUse" gradientTransform="translate(15.0077 24.5551) scale(58.52 58.5201)">
<stop stop-color="#CFA04D"/>
<stop offset="1" stop-color="white"/>
</radialGradient>
<radialGradient id="paint3_radial_26_162" cx="0" cy="0" r="1" gradientUnits="userSpaceOnUse" gradientTransform="translate(24.1878 54.345) scale(72.09 72.09)">
<stop stop-color="#CFA04D"/>
<stop offset="1" stop-color="white"/>
</radialGradient>
<radialGradient id="paint4_radial_26_162" cx="0" cy="0" r="1" gradientUnits="userSpaceOnUse" gradientTransform="translate(41.7078 34.6351) scale(49.9599 49.96)">
<stop offset="0.35"/>
<stop offset="1" stop-color="#00B875"/>
</radialGradient>
<radialGradient id="paint5_radial_26_162" cx="0" cy="0" r="1" gradientUnits="userSpaceOnUse" gradientTransform="translate(10.9578 51.7652) scale(21.68 21.68)">
<stop stop-color="#B0670B"/>
<stop offset="1"/>
</radialGradient>
<radialGradient id="paint6_radial_26_162" cx="0" cy="0" r="1" gradientUnits="userSpaceOnUse" gradientTransform="translate(11.9478 4.51498) scale(42.53 42.53)">
<stop stop-color="#A48A7B"/>
<stop offset="1" stop-color="#945534"/>
</radialGradient>
<linearGradient id="paint7_linear_26_162" x1="27.8678" y1="49.4751" x2="27.8678" y2="3.55513" gradientUnits="userSpaceOnUse">
<stop stop-color="#823B00"/>
<stop offset="1" stop-color="#692705"/>
</linearGradient>
<radialGradient id="paint8_radial_26_162" cx="0" cy="0" r="1" gradientUnits="userSpaceOnUse" gradientTransform="translate(17.4178 5.68507) scale(45.4101 45.41)">
<stop stop-color="#F9B233"/>
<stop offset="1" stop-color="#F39200"/>
</radialGradient>
<radialGradient id="paint9_radial_26_162" cx="0" cy="0" r="1" gradientUnits="userSpaceOnUse" gradientTransform="translate(16.7378 2.28503) scale(53.1699 53.17)">
<stop stop-color="#F39200"/>
<stop offset="1"/>
</radialGradient>
<radialGradient id="paint10_radial_26_162" cx="0" cy="0" r="1" gradientUnits="userSpaceOnUse" gradientTransform="translate(24.0978 10.8951) scale(33.22 33.22)">
<stop stop-color="#F9B233"/>
<stop offset="1"/>
</radialGradient>
<radialGradient id="paint11_radial_26_162" cx="0" cy="0" r="1" gradientUnits="userSpaceOnUse" gradientTransform="translate(19.8978 -0.274903) scale(45.1799 45.18)">
<stop stop-color="#F9B233"/>
<stop offset="1"/>
</radialGradient>
<radialGradient id="paint12_radial_26_162" cx="0" cy="0" r="1" gradientUnits="userSpaceOnUse" gradientTransform="translate(39.8079 45.7252) scale(35.7599 35.76)">
<stop stop-color="#73D439"/>
<stop offset="1"/>
</radialGradient>
<linearGradient id="paint13_linear_26_162" x1="14.0879" y1="11.7852" x2="84.878" y2="11.7852" gradientUnits="userSpaceOnUse">
<stop stop-color="#F9EE8A"/>
<stop offset="1"/>
</linearGradient>
<radialGradient id="paint14_radial_26_162" cx="0" cy="0" r="1" gradientUnits="userSpaceOnUse" gradientTransform="translate(40.1378 48.0451) scale(30.66 30.66)">
<stop stop-color="#73D439"/>
<stop offset="1"/>
</radialGradient>
<linearGradient id="paint15_linear_26_162" x1="31.7178" y1="38.2851" x2="150.558" y2="38.2851" gradientUnits="userSpaceOnUse">
<stop stop-color="#B4FF87"/>
<stop offset="1"/>
</linearGradient>
<linearGradient id="paint16_linear_26_162" x1="27.8077" y1="37.645" x2="27.8077" y2="14.335" gradientUnits="userSpaceOnUse">
<stop stop-color="#FFEBEB"/>
<stop offset="1" stop-color="white"/>
</linearGradient>
</defs>
</svg>
