<svg width="44" height="44" viewBox="0 0 44 44" fill="none" xmlns="http://www.w3.org/2000/svg">
<path d="M22 0.0625C17.6612 0.0625 13.4198 1.34911 9.81219 3.75964C6.20458 6.17016 3.3928 9.59633 1.7324 13.6049C0.0720052 17.6134 -0.36243 22.0243 0.484033 26.2798C1.3305 30.5353 3.41984 34.4441 6.48785 37.5122C9.55587 40.5802 13.4648 42.6695 17.7202 43.516C21.9757 44.3624 26.3866 43.928 30.3951 42.2676C34.4037 40.6072 37.8298 37.7954 40.2404 34.1878C42.6509 30.5802 43.9375 26.3388 43.9375 22C43.9308 16.1839 41.6174 10.6079 37.5047 6.49527C33.3921 2.38265 27.8161 0.0692222 22 0.0625ZM30.3518 24.4719L23.1952 31.6286C22.8779 31.945 22.4481 32.1227 22 32.1227C21.5519 32.1227 21.1221 31.945 20.8048 31.6286L13.6482 24.4719C13.3323 24.1554 13.155 23.7264 13.1553 23.2792C13.1555 22.832 13.3333 22.4032 13.6495 22.087C13.9657 21.7708 14.3945 21.593 14.8417 21.5928C15.2889 21.5925 15.7179 21.7698 16.0344 22.0857L20.3125 26.3638V13.5625C20.3125 13.1149 20.4903 12.6857 20.8068 12.3693C21.1232 12.0528 21.5525 11.875 22 11.875C22.4476 11.875 22.8768 12.0528 23.1933 12.3693C23.5097 12.6857 23.6875 13.1149 23.6875 13.5625V26.3638L27.9656 22.0857C28.2821 21.7698 28.7111 21.5925 29.1583 21.5928C29.6055 21.593 30.0343 21.7708 30.3505 22.087C30.6668 22.4032 30.8445 22.832 30.8447 23.2792C30.845 23.7264 30.6677 24.1554 30.3518 24.4719Z" fill="white"/>
</svg>
