<svg width="40" height="40" viewBox="0 0 40 40" fill="none" xmlns="http://www.w3.org/2000/svg">
<path d="M20 0.5C16.1433 0.5 12.3731 1.64366 9.16639 3.78634C5.95963 5.92903 3.46027 8.97451 1.98436 12.5377C0.508449 16.1008 0.122284 20.0216 0.874696 23.8043C1.62711 27.5869 3.4843 31.0615 6.21143 33.7886C8.93855 36.5157 12.4131 38.3729 16.1957 39.1253C19.9784 39.8777 23.8992 39.4916 27.4623 38.0156C31.0255 36.5397 34.071 34.0404 36.2137 30.8336C38.3564 27.6269 39.5 23.8567 39.5 20C39.4942 14.8301 37.4378 9.87357 33.7821 6.21788C30.1264 2.56219 25.1699 0.505851 20 0.5V0.5ZM32.832 21.248L23.832 27.248C23.6061 27.3986 23.3436 27.4851 23.0724 27.4982C22.8013 27.5113 22.5316 27.4505 22.2922 27.3224C22.0529 27.1943 21.8528 27.0037 21.7132 26.7708C21.5737 26.5379 21.5 26.2715 21.5 26V20C21.5 20.2469 21.439 20.4901 21.3225 20.7078C21.206 20.9255 21.0375 21.1111 20.832 21.248L11.832 27.248C11.6061 27.3986 11.3436 27.4851 11.0724 27.4982C10.8013 27.5113 10.5316 27.4505 10.2922 27.3224C10.0529 27.1943 9.85277 27.0037 9.71325 26.7708C9.57373 26.5379 9.50003 26.2715 9.50001 26V14C9.50003 13.7285 9.57373 13.4621 9.71325 13.2292C9.85277 12.9963 10.0529 12.8057 10.2922 12.6776C10.5316 12.5495 10.8013 12.4887 11.0724 12.5018C11.3436 12.5149 11.6061 12.6014 11.832 12.752L20.832 18.752C21.0375 18.8889 21.206 19.0745 21.3225 19.2922C21.439 19.5099 21.5 19.7531 21.5 20V14C21.5 13.7285 21.5737 13.4621 21.7132 13.2292C21.8528 12.9963 22.0529 12.8057 22.2922 12.6776C22.5316 12.5495 22.8013 12.4887 23.0724 12.5018C23.3436 12.5149 23.6061 12.6014 23.832 12.752L32.832 18.752C33.0375 18.8889 33.206 19.0745 33.3225 19.2922C33.439 19.5099 33.5 19.7531 33.5 20C33.5 20.2469 33.439 20.4901 33.3225 20.7078C33.206 20.9255 33.0375 21.1111 32.832 21.248V21.248Z" fill="white"/>
</svg>
