<svg width="59" height="59" viewBox="0 0 59 59" fill="none" xmlns="http://www.w3.org/2000/svg">
<path fill-rule="evenodd" clip-rule="evenodd" d="M29.0882 0.0110065C45.0882 0.661006 56.4681 11.081 58.5281 24.751C56.5235 24.4587 54.477 24.7431 52.6281 25.571C53.8981 25.571 58.6282 25.801 58.6982 26.021C58.8367 27.3496 58.89 28.6856 58.8581 30.021C58.4481 46.211 46.5082 58.191 29.0882 58.191C12.1482 58.191 1.16817 46.491 0.0881744 30.881C0.0881744 30.671 3.57808 29.951 4.23808 29.741C3.29808 29.791 0.618096 29.601 0.00809632 28.991C-0.116971 23.5744 1.20892 18.2228 3.84818 13.491C5.386 12.8038 6.978 12.2452 8.60807 11.821C5.32807 12.181 4.60809 12.261 4.74809 12.031C9.68809 4.47103 18.2182 -0.438974 29.0882 0.031026V0.0110065Z" fill="url(#paint0_linear_26_133)"/>
<path fill-rule="evenodd" clip-rule="evenodd" d="M29.098 0.350962C44.788 0.970962 55.928 11.171 57.708 24.481C55.561 24.4159 53.43 24.8723 51.4979 25.811C53.6324 25.7746 55.767 25.8781 57.888 26.121C57.9581 27.0826 57.9782 28.0472 57.948 29.011C57.558 44.471 44.648 55.901 29.098 55.901C22.1601 55.9948 15.4384 53.4879 10.2562 48.8739C5.07409 44.26 1.807 37.8732 1.09804 30.971C2.93804 30.421 4.76804 29.871 6.59804 29.291C5.28804 29.531 2.01801 29.451 0.938007 28.861C0.938007 28.751 0.938007 28.631 0.938007 28.521C0.736363 23.3652 1.92443 18.25 4.37795 13.711C5.89795 13.141 8.37797 12.261 10.778 11.401C8.98797 11.581 7.14793 11.831 5.35793 12.071C10.1279 4.73096 18.4579 -0.0690385 29.1079 0.350962H29.098Z" fill="url(#paint1_radial_26_133)"/>
<path style="mix-blend-mode:multiply" opacity="0.6" fill-rule="evenodd" clip-rule="evenodd" d="M1.16821 23.571C3.40821 23.001 5.75819 22.281 8.26819 21.371C12.0006 19.9396 15.8569 18.8549 19.7882 18.131C30.6182 16.221 38.6982 12.781 50.3682 12.451C51.2282 12.451 52.0981 12.451 52.9781 12.451C52.5581 11.871 52.1182 11.301 51.6582 10.751C48.995 10.5589 46.3214 10.5589 43.6582 10.751C32.9082 11.701 20.3582 14.511 8.87817 16.341C6.87817 16.671 4.76819 17.041 2.64819 17.441C1.91813 19.4217 1.41164 21.4778 1.13818 23.571H1.16821Z" fill="url(#paint2_radial_26_133)"/>
<path style="mix-blend-mode:multiply" opacity="0.6" fill-rule="evenodd" clip-rule="evenodd" d="M18.5782 33.151C15.0185 34.4079 11.5387 35.8807 8.1582 37.561C6.57337 38.3088 5.12896 39.3236 3.88818 40.561C4.87439 42.5558 6.10012 44.4229 7.53821 46.121C8.33821 46.521 9.24815 46.921 10.2281 47.351C12.9781 48.541 15.8482 49.701 18.4382 50.991C21.0974 52.3825 23.639 53.9878 26.0382 55.791C27.0382 55.891 28.0583 55.941 29.0983 55.941C30.7086 55.9394 32.3165 55.8157 33.9082 55.571C32.1682 54.281 30.3382 52.881 28.2782 51.401C24.8682 48.961 20.2782 45.701 18.7882 44.071C18.4047 43.6637 18.1056 43.1844 17.9082 42.661C17.7112 42.1548 17.6193 41.6138 17.6382 41.071C17.6671 40.552 17.8033 40.0447 18.0382 39.581C18.2921 39.0713 18.6302 38.6082 19.0382 38.211C20.7282 36.501 24.0383 34.661 27.8383 32.961C32.7934 30.7736 37.8799 28.8966 43.0682 27.341C45.8081 26.4787 48.6487 25.9778 51.5182 25.851C53.4503 24.9123 55.5811 24.456 57.7281 24.521C57.5899 23.4635 57.3896 22.415 57.1282 21.381C54.5816 21.0772 52.0061 21.1108 49.4683 21.481C40.9583 22.961 27.5483 29.771 18.5983 33.191L18.5782 33.151Z" fill="url(#paint3_radial_26_133)"/>
<g style="mix-blend-mode:multiply" opacity="0.5">
<path d="M56.1281 38.1811H55.4281C54.7391 38.2089 54.0535 38.2925 53.3781 38.4311C52.9216 38.5259 52.4807 38.6841 52.0681 38.9011C51.6693 39.1137 51.2881 39.3578 50.9281 39.6311C50.5358 39.9313 50.171 40.266 49.8381 40.6311C49.5261 40.9527 49.251 41.3082 49.0181 41.6911C48.785 42.0741 48.5908 42.4795 48.4381 42.9011C48.2818 43.3477 48.204 43.8179 48.2081 44.2911C48.2195 44.752 48.3178 45.2067 48.498 45.6311C48.6695 46.014 48.9219 46.3552 49.238 46.6311C49.53 46.8801 49.8447 47.1011 50.1781 47.2911C50.4581 47.0011 50.7381 46.7111 51.0081 46.4111C50.5104 46.2129 50.0479 45.936 49.6381 45.5911C49.253 45.202 49.0343 44.6784 49.0281 44.1311C49.0626 43.4772 49.2734 42.8449 49.6381 42.3011C50.1783 41.4435 50.9329 40.7415 51.8273 40.2646C52.7216 39.7876 53.7248 39.552 54.738 39.5811C54.978 39.5811 55.2481 39.5811 55.5181 39.5811C55.7381 39.1111 55.9381 38.6411 56.1281 38.1511V38.1811ZM57.8281 31.0811H57.358C50.3311 31.091 43.4713 33.2242 37.6781 37.2011C35.4081 38.7411 34.298 40.1311 34.108 41.5011C33.9895 42.2603 34.0508 43.0367 34.287 43.7679C34.5232 44.4992 34.9278 45.1647 35.4681 45.7111C37.6241 48.2872 40.0179 50.6543 42.618 52.7811C41.9514 53.1144 41.2614 53.4244 40.5481 53.7111C37.961 51.5088 35.5596 49.0973 33.368 46.5011C31.748 44.6211 30.9081 42.8611 31.1681 41.0611C31.6481 37.8311 38.4181 34.3311 42.0681 32.8811C48.4581 30.3511 53.1681 29.4011 57.9281 29.5511C57.9281 30.0611 57.8781 30.5511 57.8281 31.0911V31.0811ZM57.9381 27.0811C48.6581 26.4711 41.7681 28.0811 28.8081 33.9211C25.9619 35.1537 23.3502 36.869 21.0881 38.9911C20.7711 39.2659 20.5133 39.6025 20.3306 39.9802C20.1478 40.3579 20.0439 40.7689 20.0251 41.1881C20.0064 41.6073 20.0733 42.0259 20.2217 42.4184C20.37 42.8109 20.5968 43.1691 20.8881 43.4711C23.5363 45.9507 26.3567 48.2397 29.3281 50.3211C31.8081 52.1011 33.728 53.7411 35.608 55.2211C35.048 55.3411 34.4781 55.4511 33.9081 55.5411C32.1581 54.2511 30.3381 52.8511 28.2781 51.3711C24.8681 48.9311 20.2781 45.6711 18.7881 44.0411C18.4046 43.6337 18.1055 43.1545 17.9081 42.6311C17.7111 42.1249 17.6192 41.5839 17.6381 41.0411C17.667 40.5221 17.8032 40.0148 18.0381 39.5511C18.292 39.0414 18.63 38.5782 19.0381 38.1811C20.7281 36.4711 24.0381 34.6311 27.8381 32.9311C32.7933 30.7436 37.8798 28.8667 43.0681 27.3111C49.1781 25.5411 52.4381 25.6011 57.9081 26.1311C57.9081 26.4511 57.9081 26.7611 57.9581 27.0811H57.9381ZM57.108 21.3511C54.5614 21.0473 51.9859 21.0809 49.4481 21.4511C40.9381 22.9311 27.5281 29.7411 18.5781 33.1611C15.0184 34.418 11.5386 35.8907 8.15808 37.5711C6.57315 38.3187 5.12871 39.3335 3.88806 40.5711C3.54806 39.8811 3.23813 39.1811 2.95813 38.4611C7.09813 35.6411 14.2881 32.9911 17.4381 31.7911C21.3381 30.3011 25.1881 28.7311 29.0581 27.1811C35.2081 24.7211 42.818 21.1811 49.358 20.5811C51.8715 20.3768 54.3982 20.3969 56.9081 20.6411L57.108 21.3811V21.3511ZM7.52808 46.0911C8.33808 46.4911 9.24803 46.8911 10.228 47.3211C12.978 48.5111 15.8481 49.6711 18.4381 50.9611C21.095 52.3528 23.6364 53.9545 26.0381 55.7511C24.3957 55.5829 22.7701 55.2785 21.1781 54.8411C19.7481 54.0411 18.278 53.2711 16.738 52.5011C15.198 51.7311 13.7381 51.0711 12.0981 50.3911C10.4196 49.1322 8.8867 47.69 7.52808 46.0911V46.0911ZM55.6281 17.0911C52.3844 16.9792 49.1383 17.224 45.9481 17.8211C39.4481 19.0511 34.5481 21.2311 27.4281 23.8211C18.8081 26.9111 10.0881 29.8211 1.2981 32.4311C1.2181 31.9711 1.15814 31.4911 1.09814 31.0211C10.0981 28.3611 18.9281 25.3811 27.6981 22.2311C35.1581 19.5611 40.4181 17.7611 45.7981 16.9211C48.9399 16.435 52.1223 16.2641 55.2981 16.4111L55.6281 17.1311V17.0911ZM1.16809 23.5811C3.56999 22.9667 5.9396 22.2325 8.26807 21.3811C12.0004 19.9496 15.8567 18.865 19.7881 18.1411C30.6181 16.2311 38.698 12.7911 50.368 12.4611C51.228 12.4611 52.098 12.4611 52.978 12.4611C53.228 12.8211 53.4681 13.1711 53.6981 13.5411C52.5881 13.4811 51.4781 13.4711 50.3981 13.5411C43.7581 13.7311 37.3981 15.4711 31.0781 17.2311C27.3381 18.2311 23.7581 19.2311 19.9481 19.9111C16.0704 20.6183 12.2672 21.6863 8.58813 23.1011C6.10711 24.0073 3.57215 24.7588 0.998047 25.3511C0.998047 24.7811 1.09809 24.2011 1.16809 23.6411V23.5811ZM3.46814 15.5211C5.16814 15.1611 6.91806 14.8211 8.75806 14.5211C20.2581 12.6911 32.818 10.6811 43.608 9.73108C45.9361 9.53994 48.2732 9.47985 50.608 9.55109C50.978 9.93109 51.3281 10.3311 51.6681 10.7311C49.0049 10.539 46.3313 10.539 43.6681 10.7311C32.9181 11.6811 20.3681 14.4911 8.88806 16.3211C6.88806 16.6511 4.77808 17.0211 2.65808 17.4211C2.89808 16.7611 3.15812 16.1211 3.44812 15.4911L3.46814 15.5211ZM6.40808 10.5711C9.40808 10.1711 12.4081 9.85109 15.2781 9.74109C18.9681 9.61109 22.668 9.36109 26.358 8.90109C28.948 8.57109 31.1581 8.25109 33.2081 7.96109C37.8674 7.18047 42.5755 6.72602 47.2981 6.60107C47.6381 6.85107 47.9681 7.12108 48.2981 7.39108C37.3681 7.39108 27.9881 10.9411 15.2981 11.1111C11.9488 11.2589 8.61032 11.5927 5.2981 12.1111C5.6381 11.6011 5.98803 11.1111 6.35803 10.6011L6.40808 10.5711ZM9.55811 7.10107C16.7724 7.09671 23.9773 6.57875 31.118 5.55109C35.238 5.00109 39.4081 4.46107 43.5681 4.19107C44.2181 4.54107 44.8481 4.9111 45.4581 5.3111C40.7081 5.4811 35.948 5.9411 31.248 6.5611C22.988 7.6511 16.2481 8.83108 7.93811 8.73108C8.45811 8.16108 8.99811 7.62107 9.55811 7.10107ZM14.7581 3.44107C18.8881 3.21107 23.1281 2.79108 27.5281 2.11108C30.0081 1.73108 32.4881 1.39775 34.9681 1.11108C35.9681 1.32108 36.9081 1.56107 37.8381 1.85107C30.2281 2.65107 22.6481 4.06107 15.0281 4.72107C14.1481 4.79107 13.2681 4.86107 12.3781 4.91107C13.1381 4.40107 13.9381 3.91108 14.7581 3.48108V3.44107ZM46.4581 50.4411C45.1174 49.6273 43.907 48.616 42.868 47.4411C41.478 45.8311 40.808 44.1511 41.108 42.7511C41.1508 42.5779 41.2043 42.4076 41.2681 42.2411C42.2017 40.4662 43.58 38.9639 45.2681 37.8811C48.7339 35.3407 52.9788 34.092 57.2681 34.3511C57.2681 34.6011 57.1581 34.8411 57.0981 35.0811H56.9581C55.2153 34.9748 53.4667 35.1469 51.7781 35.5911C49.6916 36.2912 47.745 37.3542 46.0281 38.7311C42.9581 41.0611 41.0981 43.2311 43.9581 46.7311C44.9254 47.9124 46.0808 48.926 47.3781 49.7311L46.4481 50.4211L46.4581 50.4411Z" fill="#B7805C"/>
</g>
<path style="mix-blend-mode:screen" fill-rule="evenodd" clip-rule="evenodd" d="M19.2679 2.89105C19.1992 2.83667 19.1502 2.76124 19.1285 2.67633C19.1068 2.59142 19.1137 2.50172 19.1479 2.42105C19.3779 1.89105 20.8779 1.31105 22.3979 0.831055C19.7324 1.31432 17.1561 2.20118 14.7579 3.46106C16.4712 3.36773 18.2013 3.23771 19.948 3.07104C19.7113 3.05882 19.4796 2.99753 19.2679 2.89105V2.89105ZM17.8579 4.42105C16.9179 4.52105 15.9679 4.62105 15.0279 4.70105L12.3779 4.90106C11.3846 5.57077 10.4421 6.31279 9.55794 7.12106C12.2079 7.12106 14.718 7.07106 17.208 6.93106C16.628 6.88106 16.0479 6.83104 15.4779 6.75104C12.7179 6.41104 15.6979 5.03104 16.6779 4.75104C17.0679 4.63104 17.4679 4.53106 17.8579 4.43106V4.42105ZM15.8579 8.47104C13.2979 8.67104 10.6779 8.78104 7.85787 8.75104C7.31787 9.34104 6.80796 9.96106 6.32796 10.5911C9.32796 10.1911 12.328 9.87105 15.198 9.76105C15.478 9.76105 15.7479 9.76105 16.0179 9.76105C15.632 9.728 15.2481 9.67458 14.8679 9.60104C14.0679 9.46104 14.5979 8.83105 15.1579 8.67105L15.818 8.50104L15.8579 8.47104ZM10.7279 11.471C8.27786 12.331 5.84796 13.2111 4.32796 13.7811C4.00796 14.3744 3.70794 14.9744 3.42794 15.5811C5.11794 15.2211 6.87798 14.8811 8.71798 14.5811L9.34798 14.481C8.34798 14.211 7.34798 13.731 8.34798 12.981C10.138 11.651 12.8379 11.3711 15.1379 11.1711C13.7579 11.1711 12.2779 11.3111 10.7679 11.4611L10.7279 11.471ZM8.44796 16.471C6.55796 16.781 4.6179 17.131 2.6379 17.471C1.90783 19.4518 1.40134 21.5078 1.12789 23.601C3.36789 23.031 5.71786 22.3111 8.22786 21.4011L9.22786 21.041C7.22786 21.421 4.92791 21.7611 4.39791 21.2111C3.39791 20.1511 4.58789 17.7711 5.87789 17.2711C6.72225 16.9479 7.58359 16.6709 8.45797 16.441L8.44796 16.471ZM7.06795 23.6111C5.05935 24.2935 3.01659 24.871 0.947955 25.3411C0.8728 26.4193 0.852716 27.5007 0.887897 28.5811C0.887897 28.6911 0.887897 28.8111 0.887897 28.9211C1.9679 29.5111 5.23793 29.591 6.54793 29.351L8.54793 28.721C6.22793 28.961 2.54792 29.2111 2.15792 27.8611C1.76792 26.5111 4.42792 24.8611 7.03792 23.6111H7.06795ZM7.25789 30.6111C5.25789 31.2311 3.25789 31.8377 1.25789 32.4311C1.59157 34.4854 2.14822 36.4973 2.91793 38.4311C4.73947 37.2478 6.65212 36.2112 8.6379 35.3311C7.72298 35.6348 6.76141 35.7736 5.79793 35.7411C5.43155 35.6862 5.08669 35.5336 4.79976 35.2993C4.51283 35.065 4.29449 34.7576 4.16756 34.4095C4.04063 34.0615 4.00986 33.6857 4.07857 33.3217C4.14728 32.9577 4.31288 32.6189 4.55794 32.3411C5.31543 31.558 6.23768 30.9534 7.25789 30.571V30.6111ZM8.11788 37.6111C6.53305 38.3588 5.08876 39.3736 3.84798 40.6111C4.83419 42.6058 6.0598 44.4729 7.49788 46.1711C8.29788 46.5711 9.20795 46.9711 10.1879 47.4011C11.7879 48.0911 13.4279 48.781 15.0279 49.481C13.1621 48.5224 11.3822 47.4049 9.70796 46.1411C8.17796 44.6811 6.11788 41.2411 7.24788 39.1411C7.67792 38.4272 8.23354 37.7971 8.8879 37.2811L8.11788 37.691V37.6111Z" fill="url(#paint4_radial_26_133)"/>
<path style="mix-blend-mode:screen" fill-rule="evenodd" clip-rule="evenodd" d="M3.38818 40.9509C9.24818 51.8609 16.7182 55.4109 29.5382 56.6609C18.1582 59.0009 7.20818 52.1409 3.38818 40.9509Z" fill="url(#paint5_radial_26_133)"/>
<g style="mix-blend-mode:screen" opacity="0.65">
<path fill-rule="evenodd" clip-rule="evenodd" d="M6.09827 11.9711C10.9583 5.24111 18.9783 0.971125 29.0983 1.33113C31.1535 1.40875 33.198 1.66639 35.2083 2.10111C36.1483 2.58111 37.2783 3.20112 37.5883 3.29112C39.0254 3.51383 40.443 3.84818 41.8282 4.29112C46.8823 6.54296 51.1381 10.269 54.0382 14.9811C54.0942 15.0561 54.133 15.1424 54.152 15.2339C54.171 15.3255 54.1697 15.4201 54.1482 15.5111C54.0782 15.6711 53.8683 15.6811 53.7083 15.7111C53.4659 15.7425 53.2205 15.7425 52.9781 15.7111C51.8681 15.6511 50.7582 15.4511 49.6482 15.4911C47.9093 15.5111 46.1769 15.7088 44.4781 16.0811C40.0281 17.1611 33.7183 19.7111 28.7183 21.8111C35.6583 19.3311 40.7182 17.6611 45.8282 16.8111C48.8045 16.3485 51.8182 16.171 54.8282 16.2811C56.1795 18.826 57.1146 21.5707 57.5983 24.4111H57.7482C55.9682 11.1011 44.8282 0.901137 29.1382 0.281137C18.4882 -0.138863 10.1382 4.66111 5.38818 12.0011L6.13818 11.9011L6.09827 11.9711Z" fill="#CA9E67"/>
</g>
<g style="mix-blend-mode:screen" opacity="0.5">
<path fill-rule="evenodd" clip-rule="evenodd" d="M33.3582 24.821C27.2982 27.411 21.1382 29.921 15.1182 32.631L17.4382 31.751C21.3382 30.261 25.1882 28.691 29.0582 27.141C32.6382 25.711 36.7082 23.911 40.7782 22.541C38.213 22.9614 35.7168 23.7284 33.3582 24.821V24.821Z" fill="#CA9E67"/>
</g>
<g style="mix-blend-mode:screen" opacity="0.5">
<path fill-rule="evenodd" clip-rule="evenodd" d="M27.8181 32.8911C32.7733 30.7037 37.8598 28.8267 43.0481 27.2711C44.2881 26.9111 45.4081 26.6311 46.4481 26.4111C41.2132 27.1936 36.1073 28.6769 31.2681 30.8211C28.4452 31.9761 25.6907 33.2916 23.0181 34.7611C20.3181 36.2911 18.6181 37.7611 18.0181 39.5711V39.5111C18.2719 39.0015 18.61 38.5383 19.0181 38.1411C20.7081 36.4311 24.0181 34.5911 27.8181 32.8911Z" fill="#CA9E67"/>
</g>
<g style="mix-blend-mode:screen" opacity="0.5">
<path fill-rule="evenodd" clip-rule="evenodd" d="M21.6682 17.291C19.0345 17.7928 16.4509 18.5291 13.9482 19.491C15.8682 18.9297 17.8178 18.4756 19.7882 18.131C28.4882 16.601 35.4182 14.0809 43.8582 12.9709C39.8954 13.0876 35.9637 13.7093 32.1582 14.821C30.6982 15.221 29.2882 15.821 27.8182 16.151C25.8182 16.631 23.7082 16.871 21.6682 17.291V17.291Z" fill="#CA9E67"/>
</g>
<g style="mix-blend-mode:screen" opacity="0.65">
<path fill-rule="evenodd" clip-rule="evenodd" d="M49.9683 40.981C47.7472 44.4433 44.6881 47.2889 41.0746 49.2543C37.4611 51.2197 33.4099 52.2412 29.2965 52.2243C25.1831 52.2073 21.1405 51.1524 17.5433 49.1573C13.9461 47.1622 10.9107 44.2915 8.71826 40.811C12.7183 48.281 19.5082 52.731 29.5282 52.951C38.1982 53.141 45.4483 48.801 49.9683 40.951V40.981Z" fill="#CA9E67"/>
</g>
<g style="mix-blend-mode:screen" opacity="0.65">
<path fill-rule="evenodd" clip-rule="evenodd" d="M13.718 13.731L16.538 13.291C15.608 13.181 15.258 13.101 15.718 12.491C16.1172 11.9592 16.5807 11.4788 17.098 11.061C17.8024 10.4851 18.5589 9.97617 19.3579 9.54099C20.8099 8.73585 22.333 8.06634 23.908 7.54099C24.498 7.34099 25.0779 7.16098 25.6379 7.00098C24.7687 7.1645 23.9105 7.3816 23.068 7.651C20.7197 8.39886 18.5224 9.55673 16.578 11.071C15.5427 11.8615 14.585 12.7488 13.718 13.721V13.731ZM10.538 18.591C11.648 16.691 11.988 16.141 13.408 15.591L12.058 15.821C11.2258 17.0135 10.5156 18.2865 9.93799 19.621L10.538 18.621V18.591Z" fill="#CA9E67"/>
</g>
<path opacity="0.75" fill-rule="evenodd" clip-rule="evenodd" d="M8.18811 28.1109C8.12674 25.2822 8.63081 22.4697 9.6709 19.8384C10.711 17.2071 12.2661 14.8101 14.245 12.7878C16.2239 10.7655 18.5866 9.15883 21.1947 8.06191C23.8028 6.96499 26.6037 6.39998 29.4331 6.39998C32.2625 6.39998 35.0634 6.96499 37.6715 8.06191C40.2796 9.15883 42.6424 10.7655 44.6212 12.7878C46.6001 14.8101 48.1551 17.2071 49.1952 19.8384C50.2353 22.4697 50.7395 25.2822 50.6781 28.1109C50.6781 39.8509 41.7581 49.1109 29.4381 49.3609C17.1181 49.6109 8.18811 39.8509 8.18811 28.1109ZM53.6581 25.0209C52.3181 13.1209 41.8381 4.1609 29.4381 3.7509C15.9781 3.3109 5.07812 14.6609 5.07812 28.1109C5.07812 28.5509 5.07812 28.9809 5.07812 29.4109C5.57717 29.41 6.07536 29.3699 6.56812 29.2909L5.09814 29.7509C5.57168 36.0205 8.44999 41.8644 13.1316 46.0614C17.8132 50.2583 23.9358 52.4834 30.2196 52.2717C36.5035 52.0599 42.4622 49.4277 46.8507 44.9251C51.2392 40.4226 53.7176 34.3981 53.7681 28.1109C53.7681 27.3409 53.7681 26.5709 53.6981 25.8209C52.9481 25.8209 52.2081 25.8209 51.4681 25.8209C52.2381 25.5009 52.9581 25.2409 53.6281 25.0309L53.6581 25.0209Z" fill="url(#paint6_linear_26_133)"/>
<g style="mix-blend-mode:multiply" opacity="0.5">
<path fill-rule="evenodd" clip-rule="evenodd" d="M5.08813 28.7709C5.43813 15.6109 16.2081 4.64092 29.4381 5.08092C41.3881 5.47092 51.5681 13.8209 53.4381 25.0809L53.618 25.0209C52.278 13.1209 41.7981 4.1609 29.3981 3.7509C15.9381 3.3109 5.03809 14.6609 5.03809 28.1109C5.03809 28.3309 5.03809 28.5509 5.03809 28.7709H5.08813Z" fill="#683C11"/>
</g>
<g style="mix-blend-mode:multiply" opacity="0.5">
<path fill-rule="evenodd" clip-rule="evenodd" d="M50.6682 28.781C50.3382 40.201 41.5282 49.161 29.4382 49.361C17.3482 49.561 8.53824 40.211 8.19824 28.781C8.19824 29.001 8.19824 29.221 8.19824 29.431C8.19824 41.171 17.1182 50.881 29.4482 50.681C41.7782 50.481 50.6882 41.171 50.6882 29.431C50.6882 29.221 50.6882 29.001 50.6882 28.781H50.6682Z" fill="#683C11"/>
</g>
<path fill-rule="evenodd" clip-rule="evenodd" d="M29.438 6.6709C23.7823 6.71316 18.3731 8.9916 14.3916 13.0087C10.4102 17.0257 8.17993 22.455 8.18801 28.1109C8.18801 39.8509 17.108 49.5509 29.438 49.3609C41.768 49.1709 50.678 39.8509 50.678 28.1109C50.6861 22.4568 48.4572 17.029 44.4779 13.0122C40.4986 8.9954 35.092 6.71579 29.438 6.6709Z" fill="url(#paint7_radial_26_133)"/>
<path style="mix-blend-mode:screen" fill-rule="evenodd" clip-rule="evenodd" d="M29.438 7.61108C18.608 7.61108 9.82799 16.2711 9.82799 26.7311C9.81233 29.2797 10.3139 31.8051 11.3025 34.1542C12.291 36.5034 13.746 38.6276 15.5792 40.3982C17.4125 42.1688 19.5859 43.5491 21.968 44.4554C24.3501 45.3617 26.8914 45.7753 29.438 45.6711C40.808 45.5011 49.048 37.1911 49.048 26.7311C49.048 16.2711 40.268 7.61108 29.438 7.61108Z" fill="url(#paint8_radial_26_133)"/>
<path style="mix-blend-mode:screen" fill-rule="evenodd" clip-rule="evenodd" d="M29.4381 9.31108C24.7406 9.28438 20.2237 11.1188 16.875 14.4131C13.5263 17.7075 11.6183 22.1938 11.5681 26.8911C11.5435 29.2229 11.9924 31.5354 12.8878 33.6886C13.7832 35.8418 15.1063 37.7909 16.7771 39.4177C18.4478 41.0445 20.4315 42.3153 22.6078 43.1529C24.7841 43.9906 27.1078 44.3778 29.4381 44.2911C39.7981 44.1311 47.3081 36.5011 47.3081 26.8911C47.2527 22.1973 45.3423 17.7161 41.9941 14.426C38.646 11.136 34.1321 9.30432 29.4381 9.33107V9.31108Z" fill="url(#paint9_radial_26_133)"/>
<path style="mix-blend-mode:screen" fill-rule="evenodd" clip-rule="evenodd" d="M11.368 21.4511C8.74804 27.9611 11.188 30.7711 18.368 29.8711C26.748 28.8111 36.798 24.4611 41.608 19.1311C42.0486 18.586 42.3616 17.9493 42.5243 17.2676C42.6869 16.5859 42.6951 15.8764 42.5481 15.1911C42.1534 13.6585 41.2509 12.3049 39.988 11.3511C36.128 8.35113 30.698 7.87114 25.988 8.49114C18.938 9.44114 13.9881 15.1311 11.4081 21.4911L11.368 21.4511Z" fill="url(#paint10_radial_26_133)"/>
<path style="mix-blend-mode:screen" fill-rule="evenodd" clip-rule="evenodd" d="M12.0381 38.491C21.3881 54.491 45.9781 51.021 49.1781 32.491C46.0381 42.371 37.8081 46.641 29.7681 46.901C26.3571 47.0092 22.9694 46.3027 19.886 44.8401C16.8026 43.3775 14.1123 41.201 12.0381 38.491V38.491Z" fill="url(#paint11_radial_26_133)"/>
<path style="mix-blend-mode:screen" fill-rule="evenodd" clip-rule="evenodd" d="M17.038 13.421C13.438 17.421 14.478 20.681 20.288 18.931C24.968 17.531 28.4779 16.351 32.4779 13.661C35.0579 11.931 33.798 8.89101 28.778 8.66101C25.118 8.51101 19.578 10.571 17.038 13.391V13.421Z" fill="url(#paint12_radial_26_133)"/>
<path style="mix-blend-mode:screen" fill-rule="evenodd" clip-rule="evenodd" d="M20.5082 39.271C17.5082 40.031 19.5682 42.681 21.3982 43.611C26.7982 46.361 34.1183 45.681 39.7183 42.471C43.1523 40.4426 45.8311 37.3495 47.3483 33.661C48.9283 29.891 47.0782 25.161 43.7982 28.341C40.973 31.2995 37.569 33.6448 33.7982 35.231C29.4853 36.8965 25.0527 38.2337 20.5382 39.231L20.5082 39.271Z" fill="url(#paint13_radial_26_133)"/>
<path style="mix-blend-mode:screen" fill-rule="evenodd" clip-rule="evenodd" d="M33.6581 44.4711C37.4981 43.7111 42.1181 41.6411 44.8081 37.5711C45.6881 36.2611 46.0281 33.5711 44.0281 35.4611C40.8379 38.6954 36.8715 41.0573 32.5081 42.3211C29.1681 43.4611 27.6781 43.6211 27.6581 44.1211C27.6381 44.6211 30.1481 45.1211 33.6581 44.4711V44.4711Z" fill="url(#paint14_radial_26_133)"/>
<g style="mix-blend-mode:multiply" opacity="0.75">
<path fill-rule="evenodd" clip-rule="evenodd" d="M31.488 16.371C32.7476 16.677 33.9474 17.1907 35.0381 17.891L37.0381 16.591C37.2958 16.4256 37.6026 16.3542 37.9069 16.3888C38.2111 16.4234 38.4942 16.562 38.7081 16.781L39.7681 17.781C39.9847 17.9988 40.1207 18.2839 40.1534 18.5894C40.1862 18.8948 40.1137 19.2023 39.9481 19.461L38.6581 21.461C39.3422 22.5543 39.839 23.7541 40.1281 25.011L42.488 25.541C42.7785 25.6172 43.0351 25.7887 43.2164 26.028C43.3978 26.2674 43.4934 26.5608 43.488 26.861V28.341C43.4934 28.6413 43.3978 28.9346 43.2164 29.174C43.0351 29.4134 42.7785 29.5849 42.488 29.661L40.1281 30.191C39.839 31.4479 39.3422 32.6477 38.6581 33.741L39.9481 35.741C40.1137 35.9998 40.1862 36.3072 40.1534 36.6127C40.1207 36.9181 39.9847 37.2033 39.7681 37.421L38.7081 38.471C38.4952 38.6918 38.212 38.8315 37.9072 38.8662C37.6025 38.9009 37.2952 38.8283 37.0381 38.661L35.0381 37.361C33.9439 38.0526 32.74 38.553 31.478 38.841L30.9481 41.191C30.8858 41.4918 30.7212 41.7617 30.4824 41.955C30.2436 42.1482 29.9452 42.2528 29.6381 42.251H28.1481C27.8397 42.2532 27.5399 42.149 27.2994 41.9559C27.059 41.7628 26.8926 41.4926 26.8281 41.191L26.2981 38.841C25.0399 38.551 23.8396 38.0507 22.748 37.361L20.748 38.661C20.4894 38.829 20.1805 38.902 19.874 38.8673C19.5676 38.8327 19.2827 38.6926 19.0681 38.471L18.0681 37.421C17.8499 37.2045 17.712 36.9199 17.6775 36.6144C17.6429 36.309 17.7137 36.0008 17.8781 35.741L19.1781 33.741C18.4899 32.6498 17.9928 31.4493 17.7081 30.191L15.3481 29.661C15.0474 29.5949 14.7783 29.4279 14.5855 29.1878C14.3927 28.9477 14.2877 28.649 14.2881 28.341V26.891C14.2877 26.5831 14.3927 26.2843 14.5855 26.0442C14.7783 25.8041 15.0474 25.6372 15.3481 25.571L17.7081 25.041C17.9928 23.7827 18.4899 22.5822 19.1781 21.491L17.8781 19.491C17.7137 19.2312 17.6429 18.9231 17.6775 18.6176C17.712 18.3121 17.8499 18.0276 18.0681 17.811L19.0681 16.811C19.2847 16.5928 19.5691 16.455 19.8746 16.4205C20.1801 16.3859 20.4882 16.4567 20.748 16.621L22.748 17.921C23.8417 17.2354 25.0413 16.7353 26.2981 16.441L26.8281 14.091C26.8926 13.7894 27.059 13.5193 27.2994 13.3262C27.5399 13.1331 27.8397 13.0288 28.1481 13.031H29.6381C29.9452 13.0293 30.2436 13.1339 30.4824 13.3271C30.7212 13.5203 30.8858 13.7903 30.9481 14.091L31.478 16.441L31.488 16.371ZM28.8981 20.751C30.2628 20.751 31.5969 21.1557 32.7316 21.9139C33.8663 22.6721 34.7506 23.7497 35.2728 25.0105C35.7951 26.2713 35.9318 27.6587 35.6655 28.9971C35.3993 30.3356 34.7421 31.5651 33.7771 32.5301C32.8121 33.495 31.5827 34.1522 30.2443 34.4184C28.9058 34.6847 27.5184 34.548 26.2576 34.0258C24.9968 33.5035 23.9191 32.6192 23.1609 31.4845C22.4027 30.3498 21.998 29.0157 21.998 27.651C21.998 25.821 22.725 24.066 24.019 22.772C25.313 21.478 27.0681 20.751 28.8981 20.751V20.751Z" fill="#172A88"/>
<path fill-rule="evenodd" clip-rule="evenodd" d="M31.488 16.371C32.7476 16.677 33.9474 17.1907 35.0381 17.891L37.0381 16.591C37.2958 16.4256 37.6026 16.3542 37.9069 16.3888C38.2111 16.4234 38.4942 16.562 38.7081 16.781L39.7681 17.781C39.9847 17.9988 40.1207 18.2839 40.1534 18.5894C40.1862 18.8948 40.1137 19.2023 39.9481 19.461L38.6581 21.461C39.3422 22.5543 39.839 23.7541 40.1281 25.011L42.488 25.541C42.7785 25.6172 43.0351 25.7887 43.2164 26.028C43.3978 26.2674 43.4934 26.5608 43.488 26.861V28.341C43.4934 28.6413 43.3978 28.9346 43.2164 29.174C43.0351 29.4134 42.7785 29.5849 42.488 29.661L40.1281 30.191C39.839 31.4479 39.3422 32.6477 38.6581 33.741L39.9481 35.741C40.1137 35.9998 40.1862 36.3072 40.1534 36.6127C40.1207 36.9181 39.9847 37.2033 39.7681 37.421L38.7081 38.471C38.4952 38.6918 38.212 38.8315 37.9072 38.8662C37.6025 38.9009 37.2952 38.8283 37.0381 38.661L35.0381 37.361C33.9439 38.0526 32.74 38.553 31.478 38.841L30.9481 41.191C30.8858 41.4918 30.7212 41.7617 30.4824 41.955C30.2436 42.1482 29.9452 42.2528 29.6381 42.251H28.1481C27.8397 42.2532 27.5399 42.149 27.2994 41.9559C27.059 41.7628 26.8926 41.4926 26.8281 41.191L26.2981 38.841C25.0399 38.551 23.8396 38.0507 22.748 37.361L20.748 38.661C20.4894 38.829 20.1805 38.902 19.874 38.8673C19.5676 38.8327 19.2827 38.6926 19.0681 38.471L18.0681 37.421C17.8499 37.2045 17.712 36.9199 17.6775 36.6144C17.6429 36.309 17.7137 36.0008 17.8781 35.741L19.1781 33.741C18.4899 32.6498 17.9928 31.4493 17.7081 30.191L15.3481 29.661C15.0474 29.5949 14.7783 29.4279 14.5855 29.1878C14.3927 28.9477 14.2877 28.649 14.2881 28.341V26.891C14.2877 26.5831 14.3927 26.2843 14.5855 26.0442C14.7783 25.8041 15.0474 25.6372 15.3481 25.571L17.7081 25.041C17.9928 23.7827 18.4899 22.5822 19.1781 21.491L17.8781 19.491C17.7137 19.2312 17.6429 18.9231 17.6775 18.6176C17.712 18.3121 17.8499 18.0276 18.0681 17.811L19.0681 16.811C19.2847 16.5928 19.5691 16.455 19.8746 16.4205C20.1801 16.3859 20.4882 16.4567 20.748 16.621L22.748 17.921C23.8417 17.2354 25.0413 16.7353 26.2981 16.441L26.8281 14.091C26.8926 13.7894 27.059 13.5193 27.2994 13.3262C27.5399 13.1331 27.8397 13.0288 28.1481 13.031H29.6381C29.9452 13.0293 30.2436 13.1339 30.4824 13.3271C30.7212 13.5203 30.8858 13.7903 30.9481 14.091L31.478 16.441L31.488 16.371ZM28.8981 20.751C30.2628 20.751 31.5969 21.1557 32.7316 21.9139C33.8663 22.6721 34.7506 23.7497 35.2728 25.0105C35.7951 26.2713 35.9318 27.6587 35.6655 28.9971C35.3993 30.3356 34.7421 31.5651 33.7771 32.5301C32.8121 33.495 31.5827 34.1522 30.2443 34.4184C28.9058 34.6847 27.5184 34.548 26.2576 34.0258C24.9968 33.5035 23.9191 32.6192 23.1609 31.4845C22.4027 30.3498 21.998 29.0157 21.998 27.651C21.998 25.821 22.725 24.066 24.019 22.772C25.313 21.478 27.0681 20.751 28.8981 20.751V20.751Z" stroke="#172A88" stroke-width="1.36" stroke-miterlimit="10"/>
</g>
<path fill-rule="evenodd" clip-rule="evenodd" d="M31.488 15.6611C32.7481 15.95 33.9513 16.4468 35.0481 17.1311L37.0481 15.8411C37.3047 15.6744 37.6108 15.6013 37.915 15.6341C38.2192 15.6669 38.503 15.8036 38.7181 16.0211L39.7781 17.0811C39.9956 17.2963 40.1323 17.5798 40.165 17.8841C40.1978 18.1883 40.1248 18.4945 39.9581 18.7511L38.6681 20.7511C39.3524 21.8479 39.8492 23.051 40.1381 24.3111L42.498 24.8311C42.7885 24.9072 43.0451 25.0787 43.2264 25.3181C43.4078 25.5575 43.5034 25.8508 43.498 26.1511V27.6411C43.5034 27.9413 43.4078 28.2347 43.2264 28.4741C43.0451 28.7134 42.7885 28.8849 42.498 28.9611L40.1381 29.4811C39.8492 30.7411 39.3524 31.9443 38.6681 33.0411L39.9581 35.0411C40.1237 35.2998 40.1962 35.6073 40.1635 35.9127C40.1307 36.2182 39.9947 36.5033 39.7781 36.7211L38.7181 37.7211C38.504 37.9403 38.2201 38.0781 37.9154 38.111C37.6107 38.1438 37.3041 38.0696 37.0481 37.9011L35.0481 36.6111C33.9534 37.2994 32.7495 37.7965 31.488 38.0811L30.9581 40.4411C30.894 40.741 30.729 41.0099 30.4906 41.2028C30.2522 41.3957 29.9548 41.501 29.6481 41.5011H28.1581C27.8502 41.5014 27.5514 41.3965 27.3113 41.2037C27.0712 41.0109 26.9043 40.7418 26.8381 40.4411L26.3081 38.0811C25.0504 37.7945 23.8501 37.2975 22.7581 36.6111L20.7581 37.9011C20.5166 38.1034 20.2112 38.2134 19.8962 38.2115C19.5813 38.2097 19.2772 38.0961 19.0381 37.8911L18.0381 36.8911C17.8199 36.6745 17.6821 36.39 17.6476 36.0845C17.613 35.779 17.6838 35.4709 17.8481 35.2111L19.1481 33.2111C18.4597 32.1164 17.9626 30.9125 17.6781 29.6511L15.3181 29.1311C15.0174 29.0649 14.7482 28.8979 14.5554 28.6579C14.3626 28.4178 14.2577 28.119 14.2581 27.8111V26.1911C14.2577 25.8831 14.3626 25.5844 14.5554 25.3443C14.7482 25.1042 15.0174 24.9372 15.3181 24.8711L17.6781 24.3511C17.9626 23.0896 18.4597 21.8858 19.1481 20.7911L17.8481 18.7911C17.6827 18.5334 17.6113 18.2265 17.6459 17.9223C17.6805 17.618 17.819 17.335 18.0381 17.1211L19.0381 16.0611C19.2559 15.8444 19.541 15.7085 19.8464 15.6758C20.1519 15.643 20.4594 15.7154 20.7181 15.8811L22.7181 17.1711C23.8123 16.4886 25.0118 15.9919 26.2681 15.7011L26.7981 13.3411C26.8645 13.0413 27.0319 12.7735 27.2722 12.5823C27.5125 12.3912 27.811 12.2884 28.118 12.2911H29.608C29.9138 12.2888 30.2111 12.392 30.4497 12.5832C30.6883 12.7745 30.8537 13.0421 30.9181 13.3411L31.4481 15.7011L31.488 15.6611ZM28.8981 20.0411C30.2628 20.0411 31.5969 20.4458 32.7316 21.2039C33.8663 21.9621 34.7506 23.0397 35.2728 24.3006C35.7951 25.5614 35.9318 26.9487 35.6655 28.2872C35.3993 29.6257 34.7421 30.8551 33.7771 31.8201C32.8121 32.7851 31.5827 33.4422 30.2443 33.7085C28.9058 33.9747 27.5184 33.8381 26.2576 33.3158C24.9968 32.7936 23.9191 31.9092 23.1609 30.7745C22.4027 29.6398 21.998 28.3058 21.998 26.9411C21.998 25.1111 22.725 23.356 24.019 22.062C25.313 20.768 27.0681 20.0411 28.8981 20.0411Z" fill="#172A88" stroke="#172A88" stroke-width="1.36" stroke-miterlimit="10"/>
<g style="mix-blend-mode:multiply" opacity="0.75">
<path fill-rule="evenodd" clip-rule="evenodd" d="M31.488 16.371C32.7476 16.677 33.9474 17.1907 35.0381 17.891L37.0381 16.591C37.2958 16.4256 37.6026 16.3542 37.9069 16.3888C38.2111 16.4234 38.4942 16.562 38.7081 16.781L39.7681 17.781C39.9847 17.9988 40.1207 18.2839 40.1534 18.5894C40.1862 18.8948 40.1137 19.2023 39.9481 19.461L38.6581 21.461C39.3422 22.5543 39.839 23.7541 40.1281 25.011L42.488 25.541C42.7785 25.6172 43.0351 25.7887 43.2164 26.028C43.3978 26.2674 43.4934 26.5608 43.488 26.861V28.341C43.4934 28.6413 43.3978 28.9346 43.2164 29.174C43.0351 29.4134 42.7785 29.5849 42.488 29.661L40.1281 30.191C39.839 31.4479 39.3422 32.6477 38.6581 33.741L39.9481 35.741C40.1137 35.9998 40.1862 36.3072 40.1534 36.6127C40.1207 36.9181 39.9847 37.2033 39.7681 37.421L38.7081 38.471C38.4952 38.6918 38.212 38.8315 37.9072 38.8662C37.6025 38.9009 37.2952 38.8283 37.0381 38.661L35.0381 37.361C33.9439 38.0526 32.74 38.553 31.478 38.841L30.9481 41.191C30.8858 41.4918 30.7212 41.7617 30.4824 41.955C30.2436 42.1482 29.9452 42.2528 29.6381 42.251H28.1481C27.8397 42.2532 27.5399 42.149 27.2994 41.9559C27.059 41.7628 26.8926 41.4926 26.8281 41.191L26.2981 38.841C25.0399 38.551 23.8396 38.0507 22.748 37.361L20.748 38.661C20.4894 38.829 20.1805 38.902 19.874 38.8673C19.5676 38.8327 19.2827 38.6926 19.0681 38.471L18.0681 37.421C17.8499 37.2045 17.712 36.9199 17.6775 36.6144C17.6429 36.309 17.7137 36.0008 17.8781 35.741L19.1781 33.741C18.4899 32.6498 17.9928 31.4493 17.7081 30.191L15.3481 29.661C15.0474 29.5949 14.7783 29.4279 14.5855 29.1878C14.3927 28.9477 14.2877 28.649 14.2881 28.341V26.891C14.2877 26.5831 14.3927 26.2843 14.5855 26.0442C14.7783 25.8041 15.0474 25.6372 15.3481 25.571L17.7081 25.041C17.9928 23.7827 18.4899 22.5822 19.1781 21.491L17.8781 19.491C17.7137 19.2312 17.6429 18.9231 17.6775 18.6176C17.712 18.3121 17.8499 18.0276 18.0681 17.811L19.0681 16.811C19.2847 16.5928 19.5691 16.455 19.8746 16.4205C20.1801 16.3859 20.4882 16.4567 20.748 16.621L22.748 17.921C23.8417 17.2354 25.0413 16.7353 26.2981 16.441L26.8281 14.091C26.8926 13.7894 27.059 13.5193 27.2994 13.3262C27.5399 13.1331 27.8397 13.0288 28.1481 13.031H29.6381C29.9452 13.0293 30.2436 13.1339 30.4824 13.3271C30.7212 13.5203 30.8858 13.7903 30.9481 14.091L31.478 16.441L31.488 16.371ZM28.8981 20.751C30.2628 20.751 31.5969 21.1557 32.7316 21.9139C33.8663 22.6721 34.7506 23.7497 35.2728 25.0105C35.7951 26.2713 35.9318 27.6587 35.6655 28.9971C35.3993 30.3356 34.7421 31.5651 33.7771 32.5301C32.8121 33.495 31.5827 34.1522 30.2443 34.4184C28.9058 34.6847 27.5184 34.548 26.2576 34.0258C24.9968 33.5035 23.9191 32.6192 23.1609 31.4845C22.4027 30.3498 21.998 29.0157 21.998 27.651C21.998 25.821 22.725 24.066 24.019 22.772C25.313 21.478 27.0681 20.751 28.8981 20.751V20.751Z" fill="white"/>
</g>
<path fill-rule="evenodd" clip-rule="evenodd" d="M31.488 15.6611C32.7481 15.95 33.9513 16.4468 35.0481 17.1311L37.0481 15.8411C37.3047 15.6744 37.6108 15.6013 37.915 15.6341C38.2192 15.6669 38.503 15.8036 38.7181 16.0211L39.7781 17.0811C39.9956 17.2963 40.1323 17.5798 40.165 17.8841C40.1978 18.1883 40.1248 18.4945 39.9581 18.7511L38.6681 20.7511C39.3524 21.8479 39.8492 23.051 40.1381 24.3111L42.498 24.8311C42.7885 24.9072 43.0451 25.0787 43.2264 25.3181C43.4078 25.5575 43.5034 25.8508 43.498 26.1511V27.6411C43.5034 27.9413 43.4078 28.2347 43.2264 28.4741C43.0451 28.7134 42.7885 28.8849 42.498 28.9611L40.1381 29.4811C39.8492 30.7411 39.3524 31.9443 38.6681 33.0411L39.9581 35.0411C40.1237 35.2998 40.1962 35.6073 40.1635 35.9127C40.1307 36.2182 39.9947 36.5033 39.7781 36.7211L38.7181 37.7211C38.504 37.9403 38.2201 38.0781 37.9154 38.111C37.6107 38.1438 37.3041 38.0696 37.0481 37.9011L35.0481 36.6111C33.9534 37.2994 32.7495 37.7965 31.488 38.0811L30.9581 40.4411C30.894 40.741 30.729 41.0099 30.4906 41.2028C30.2522 41.3957 29.9548 41.501 29.6481 41.5011H28.1581C27.8502 41.5014 27.5514 41.3965 27.3113 41.2037C27.0712 41.0109 26.9043 40.7418 26.8381 40.4411L26.3081 38.0811C25.0504 37.7945 23.8501 37.2975 22.7581 36.6111L20.7581 37.9011C20.5166 38.1034 20.2112 38.2134 19.8962 38.2115C19.5813 38.2097 19.2772 38.0961 19.0381 37.8911L18.0381 36.8911C17.8199 36.6745 17.6821 36.39 17.6476 36.0845C17.613 35.779 17.6838 35.4709 17.8481 35.2111L19.1481 33.2111C18.4597 32.1164 17.9626 30.9125 17.6781 29.6511L15.3181 29.1311C15.0174 29.0649 14.7482 28.8979 14.5554 28.6579C14.3626 28.4178 14.2577 28.119 14.2581 27.8111V26.1911C14.2577 25.8831 14.3626 25.5844 14.5554 25.3443C14.7482 25.1042 15.0174 24.9372 15.3181 24.8711L17.6781 24.3511C17.9626 23.0896 18.4597 21.8858 19.1481 20.7911L17.8481 18.7911C17.6827 18.5334 17.6113 18.2265 17.6459 17.9223C17.6805 17.618 17.819 17.335 18.0381 17.1211L19.0381 16.0611C19.2559 15.8444 19.541 15.7085 19.8464 15.6758C20.1519 15.643 20.4594 15.7154 20.7181 15.8811L22.7181 17.1711C23.8123 16.4886 25.0118 15.9919 26.2681 15.7011L26.7981 13.3411C26.8645 13.0413 27.0319 12.7735 27.2722 12.5823C27.5125 12.3912 27.811 12.2884 28.118 12.2911H29.608C29.9138 12.2888 30.2111 12.392 30.4497 12.5832C30.6883 12.7745 30.8537 13.0421 30.9181 13.3411L31.4481 15.7011L31.488 15.6611ZM28.8981 20.0411C30.2628 20.0411 31.5969 20.4458 32.7316 21.2039C33.8663 21.9621 34.7506 23.0397 35.2728 24.3006C35.7951 25.5614 35.9318 26.9487 35.6655 28.2872C35.3993 29.6257 34.7421 30.8551 33.7771 31.8201C32.8121 32.7851 31.5827 33.4422 30.2443 33.7085C28.9058 33.9747 27.5184 33.8381 26.2576 33.3158C24.9968 32.7936 23.9191 31.9092 23.1609 30.7745C22.4027 29.6398 21.998 28.3058 21.998 26.9411C21.998 25.1111 22.725 23.356 24.019 22.062C25.313 20.768 27.0681 20.0411 28.8981 20.0411Z" fill="white"/>
<defs>
<linearGradient id="paint0_linear_26_133" x1="29.4381" y1="58.211" x2="29.4381" y2="-0.00897389" gradientUnits="userSpaceOnUse">
<stop stop-color="#692705"/>
<stop offset="1" stop-color="#823B00"/>
</linearGradient>
<radialGradient id="paint1_radial_26_133" cx="0" cy="0" r="1" gradientUnits="userSpaceOnUse" gradientTransform="translate(12.258 3.30096) scale(60.62 60.62)">
<stop stop-color="#F59547"/>
<stop offset="1" stop-color="#A14C1F"/>
</radialGradient>
<radialGradient id="paint2_radial_26_133" cx="0" cy="0" r="1" gradientUnits="userSpaceOnUse" gradientTransform="translate(15.8582 25.911) scale(61.79 61.79)">
<stop stop-color="#CFA04D"/>
<stop offset="1" stop-color="white"/>
</radialGradient>
<radialGradient id="paint3_radial_26_133" cx="0" cy="0" r="1" gradientUnits="userSpaceOnUse" gradientTransform="translate(25.5482 57.371) scale(76.12 76.12)">
<stop stop-color="#CFA04D"/>
<stop offset="1" stop-color="white"/>
</radialGradient>
<radialGradient id="paint4_radial_26_133" cx="0" cy="0" r="1" gradientUnits="userSpaceOnUse" gradientTransform="translate(44.0479 36.551) scale(52.75)">
<stop offset="0.35"/>
<stop offset="1" stop-color="#CA9E67"/>
</radialGradient>
<radialGradient id="paint5_radial_26_133" cx="0" cy="0" r="1" gradientUnits="userSpaceOnUse" gradientTransform="translate(11.5782 54.6409) scale(22.89 22.89)">
<stop stop-color="#B0670B"/>
<stop offset="1"/>
</radialGradient>
<linearGradient id="paint6_linear_26_133" x1="29.4381" y1="52.2209" x2="29.4381" y2="3.74091" gradientUnits="userSpaceOnUse">
<stop stop-color="#823B00"/>
<stop offset="1" stop-color="#692705"/>
</linearGradient>
<radialGradient id="paint7_radial_26_133" cx="0" cy="0" r="1" gradientUnits="userSpaceOnUse" gradientTransform="translate(21.318 4.8709) scale(52.1 52.1)">
<stop stop-color="#0AA1FF"/>
<stop offset="1" stop-color="#0056CF"/>
</radialGradient>
<radialGradient id="paint8_radial_26_133" cx="0" cy="0" r="1" gradientUnits="userSpaceOnUse" gradientTransform="translate(18.698 4.81109) scale(51.71 51.71)">
<stop stop-color="#29D1FF"/>
<stop offset="1"/>
</radialGradient>
<radialGradient id="paint9_radial_26_133" cx="0" cy="0" r="1" gradientUnits="userSpaceOnUse" gradientTransform="translate(25.8581 13.1911) scale(32.31 32.31)">
<stop stop-color="#29D1FF"/>
<stop offset="1"/>
</radialGradient>
<radialGradient id="paint10_radial_26_133" cx="0" cy="0" r="1" gradientUnits="userSpaceOnUse" gradientTransform="translate(21.4581 2.32114) scale(43.9301 43.93)">
<stop stop-color="#29D1FF"/>
<stop offset="1"/>
</radialGradient>
<radialGradient id="paint11_radial_26_133" cx="0" cy="0" r="1" gradientUnits="userSpaceOnUse" gradientTransform="translate(41.1281 47.061) scale(34.78 34.78)">
<stop stop-color="#29D1FF"/>
<stop offset="1"/>
</radialGradient>
<radialGradient id="paint12_radial_26_133" cx="0" cy="0" r="1" gradientUnits="userSpaceOnUse" gradientTransform="translate(24.138 6.35101) scale(41.8999 41.9001)">
<stop stop-color="#69DFFF"/>
<stop offset="1"/>
</radialGradient>
<radialGradient id="paint13_radial_26_133" cx="0" cy="0" r="1" gradientUnits="userSpaceOnUse" gradientTransform="translate(41.4583 49.311) scale(29.8101 29.81)">
<stop stop-color="#29D1FF"/>
<stop offset="1"/>
</radialGradient>
<radialGradient id="paint14_radial_26_133" cx="0" cy="0" r="1" gradientUnits="userSpaceOnUse" gradientTransform="translate(42.1881 46.9811) scale(18.1 18.1)">
<stop stop-color="#29D1FF"/>
<stop offset="1"/>
</radialGradient>
</defs>
</svg>
